<svg width="288" height="371" viewBox="0 0 288 371" fill="none" xmlns="http://www.w3.org/2000/svg">
<path d="M287.182 269.913C287.182 289.38 287.427 308.847 287.121 328.253C286.446 370.359 275.904 409.842 252.735 445.358C221.23 493.689 176.915 524.262 120.096 535.491C63.8906 546.536 10.8106 537.505 -37.4272 506.016C-82.7229 476.358 -111.224 434.496 -124.77 382.442C-129.612 363.891 -131.819 345.034 -131.758 325.873C-131.574 285.719 -132.554 245.565 -131.512 205.472C-129.122 112.288 -69.79 30.4544 24.1725 7.14313C87.8562 -8.66214 147.801 1.5289 201.555 40.0352C243.48 70.1201 269.1 111.311 281.114 161.107C285.527 179.537 287.305 198.271 287.305 217.25C287.243 234.825 287.243 252.399 287.182 269.913C287.243 269.913 287.243 269.913 287.182 269.913ZM274.372 269.73C274.372 251.606 274.433 233.482 274.372 215.358C274.372 196.623 272.349 178.072 267.568 159.887C254.39 110.152 227.053 70.2422 183.045 42.7203C139.526 15.5035 91.8403 7.5703 41.5185 16.2968C-8.86453 25.0843 -49.6246 50.1652 -79.9647 91.1735C-106.505 127.117 -118.579 168.003 -119.07 212.307C-119.438 249.714 -119.254 287.061 -119.131 324.469C-119.07 344.485 -116.741 364.196 -111.224 383.48C-95.4719 438.096 -63.1704 479.654 -12.1744 505.833C27.4824 526.215 69.7134 531.707 113.599 523.835C159.569 515.597 197.878 493.567 227.727 457.807C259.171 420.155 273.391 376.096 274.31 327.581C274.617 308.237 274.372 289.014 274.372 269.73Z" fill="#346448" fill-opacity="0.05"/>
<path d="M-79.6595 242.636C-79.6595 239.34 -79.7208 236.411 -79.5982 233.482C-79.5982 232.75 -79.1079 231.834 -78.5562 231.346C-59.3714 214.748 -38.8382 200.407 -13.8918 193.328C-1.38802 189.789 11.361 189.056 24.2939 189.911C58.9858 192.108 92.3907 200.956 125.734 209.866C128.492 210.598 131.251 211.33 134.009 212.063C134.07 212.063 134.131 212.185 134.438 212.429C134.315 212.673 134.193 212.978 134.009 213.222C121.137 228.051 108.204 242.941 95.3327 257.77C77.9868 277.664 59.7827 296.642 39.0655 313.119C17.8581 329.9 -5.92372 342.288 -30.9314 352.174C-44.7836 357.666 -59.1263 361.938 -73.2237 366.759C-74.0205 367.003 -74.8786 367.186 -76.411 367.491C-77.3917 358.948 -79.0466 350.649 -79.2305 342.288C-79.7208 323.981 -79.4756 305.674 -79.5369 287.366C-79.5369 287.061 -79.4756 286.817 -79.353 286.207C-78.3724 286.146 -77.3917 286.024 -76.3497 286.024C-71.8753 286.024 -67.4009 286.024 -62.9265 286.024C-58.5133 286.024 -57.4101 284.864 -57.4101 280.41C-57.4101 273.697 -57.4101 266.923 -57.4101 260.211C-57.4101 255.573 -56.4907 254.718 -51.955 254.657C-49.2581 254.657 -46.6224 254.657 -43.9255 254.657C-39.7576 254.718 -38.593 255.817 -38.593 259.844C-38.593 266.984 -38.593 274.063 -38.593 281.203C-38.593 284.803 -37.4285 285.963 -33.8122 285.963C-14.1983 285.963 5.47682 285.963 25.0907 285.963C28.7683 285.963 30.1167 284.62 30.1167 280.959C30.178 270.829 30.1167 260.638 30.1167 250.508C30.1167 247.335 28.707 245.138 25.6423 243.917C9.03185 237.143 -7.63992 230.309 -24.2504 223.474C-27.2538 222.254 -30.1346 222.559 -33.0766 223.779C-47.4806 229.699 -61.9458 235.496 -76.411 241.354C-77.3917 241.781 -78.3724 242.147 -79.6595 242.636ZM-11.7466 327.581C-11.8079 324.835 -14.0144 322.699 -16.7113 322.76C-19.4082 322.822 -21.4922 325.018 -21.4309 327.764C-21.3696 330.572 -19.2857 332.585 -16.5275 332.524C-13.7693 332.463 -11.6853 330.327 -11.7466 327.581ZM-71.5075 347.109C-68.8106 347.048 -66.7266 344.912 -66.7879 342.105C-66.8492 339.237 -68.8106 337.345 -71.6301 337.345C-74.4496 337.345 -76.411 339.42 -76.3497 342.227C-76.2884 345.034 -74.1431 347.17 -71.5075 347.109ZM-44.232 335.82C-46.9902 335.82 -49.0129 337.833 -49.0129 340.702C-49.0129 343.57 -47.1128 345.584 -44.3546 345.645C-41.5351 345.645 -39.5737 343.692 -39.5737 340.824C-39.5124 337.956 -41.4738 335.82 -44.232 335.82ZM43.2335 298.961C43.2335 298.534 43.2335 298.107 43.2335 297.618C42.0076 296.703 40.9043 295.239 39.6172 294.994C37.5945 294.689 36.3073 296.154 36.3073 298.29C36.3073 300.304 37.6558 301.707 39.4946 301.402C40.9043 301.219 42.0076 299.815 43.2335 298.961ZM21.1066 308.115C21.6582 307.26 22.9454 305.979 23.1293 304.636C23.3132 302.806 21.9647 301.463 19.8807 301.585C17.7968 301.707 16.8161 302.928 16.8774 304.941C16.8774 307.016 18.1032 307.993 21.1066 308.115ZM-1.87836 306.345C-2.30741 306.345 -2.79776 306.345 -3.22681 306.406C-4.02362 307.687 -5.24949 308.847 -5.43337 310.25C-5.80113 312.203 -4.33009 313.424 -2.36871 313.424C-0.223442 313.424 1.1863 311.959 0.818542 310.006C0.51207 308.664 -0.958961 307.565 -1.87836 306.345ZM-19.8373 312.63C-20.1438 310.739 -21.0632 309.457 -23.2084 309.579C-25.3537 309.701 -26.2731 310.983 -26.2118 312.936C-26.1505 314.949 -24.9859 316.109 -22.902 316.048C-20.818 315.926 -20.0212 314.522 -19.8373 312.63ZM-61.2715 317.573C-62.0683 317.024 -63.2329 315.682 -64.5814 315.499C-66.4815 315.254 -67.7686 316.78 -67.7073 318.733C-67.646 320.747 -66.4202 321.906 -64.3975 321.845C-62.3135 321.845 -61.2715 320.625 -61.2715 317.573ZM63.828 269.486C63.2764 270.341 61.8666 271.5 61.744 272.843C61.4989 274.795 62.9086 276.199 65.0539 276.077C67.0766 275.955 68.0572 274.673 67.996 272.66C67.996 270.585 66.8314 269.608 63.828 269.486ZM-48.0935 324.713C-45.2127 324.286 -44.0481 323.249 -44.1094 321.235C-44.1707 319.221 -45.2127 318.062 -47.2967 318.062C-49.4419 318.062 -50.6678 319.465 -50.3613 321.296C-50.1162 322.577 -48.7677 323.737 -48.0935 324.713ZM77.619 247.335C76.577 248.921 75.5963 249.775 75.6576 250.569C75.7802 251.362 76.9448 252.033 77.619 252.766C78.3545 252.033 79.5191 251.362 79.6417 250.569C79.703 249.775 78.661 248.921 77.619 247.335ZM-52.4453 296.642C-53.4873 298.229 -54.5293 299.144 -54.4067 299.937C-54.2841 300.731 -53.0582 301.402 -52.3227 302.073C-51.6485 301.341 -50.4839 300.609 -50.4226 299.815C-50.3613 299.083 -51.4033 298.168 -52.4453 296.642ZM-32.7702 304.697C-34.3638 303.721 -35.2832 302.684 -36.0187 302.806C-36.8155 302.928 -37.9188 304.148 -37.9188 304.88C-37.9188 305.613 -36.6316 306.711 -35.8961 306.772C-35.1606 306.894 -34.3025 305.796 -32.7702 304.697ZM53.5308 265.398C52.121 264.177 51.3855 263.018 50.65 263.018C49.8531 263.018 48.566 264.055 48.4434 264.726C48.3821 265.459 49.3628 266.74 50.1596 266.984C50.8338 267.167 51.8758 266.252 53.5308 265.398Z" fill="#346448" fill-opacity="0.05"/>
<path d="M196.405 169.044C189.969 172.278 183.779 175.146 177.772 178.441C164.962 185.52 153.439 194.369 142.835 204.438C141.425 205.78 140.444 205.902 138.667 205.109C112.249 193.026 85.1578 182.896 56.6564 176.733C39.3717 173.01 21.9031 170.996 4.18938 172.522C-19.8376 174.597 -41.1676 183.445 -60.046 198.213C-65.8688 202.79 -71.3239 207.855 -76.9016 212.737C-77.6372 213.408 -78.3727 214.08 -79.5985 215.178C-79.5985 209.564 -79.7824 204.499 -79.5372 199.434C-78.863 183.75 -75.9822 168.372 -70.5271 153.605C-70.0981 152.445 -69.3013 151.041 -68.3206 150.614C-54.8361 144.451 -41.4128 138.104 -27.7444 132.429C-9.04996 124.679 9.88966 125.838 28.5841 132.49C40.1685 136.579 51.4465 141.339 62.9083 145.732C84.6674 153.971 107.285 159.219 130.208 162.88C150.619 166.175 171.152 168.128 191.869 168.739C193.34 168.739 194.75 168.922 196.405 169.044Z" fill="#346448" fill-opacity="0.05"/>
<path d="M-60.9032 408.562C-64.0905 401.545 -67.2777 394.588 -70.5876 387.387C-65.3163 385.678 -60.5355 384.153 -55.7546 382.566C-22.7175 371.582 8.54205 356.997 37.0434 336.798C60.7026 320.016 81.2359 299.878 99.6239 277.543C112.863 261.494 125.735 245.14 139.158 229.212C152.152 213.773 166.863 200.226 184.392 189.913C198.551 181.491 213.752 175.694 229.749 171.727C230.117 171.666 230.485 171.605 230.914 171.544C231.098 171.972 231.343 172.277 231.404 172.643C231.527 173.253 231.588 173.924 231.711 174.718C228.769 175.999 225.888 177.22 223.007 178.501C201.984 188.143 184.821 202.85 170.295 220.364C155.891 237.695 142.284 255.636 128.432 273.333C109.676 297.376 89.3879 319.955 65.9126 339.544C42.2533 359.255 16.4489 375.609 -11.5621 388.485C-26.8855 395.564 -42.8217 401.423 -58.4515 407.83C-59.187 408.135 -59.8612 408.257 -60.9032 408.562Z" fill="#346448" fill-opacity="0.05"/>
<path d="M30.1779 482.459C82.7063 417.713 148.413 375.911 231.22 362.669C231.526 362.974 231.833 363.218 232.139 363.523C231.22 367.429 230.362 371.395 229.197 375.24C228.952 375.972 227.481 376.521 226.439 376.766C199.899 384.638 174.401 395.012 150.313 408.681C124.753 423.205 101.707 440.719 83.2579 463.725C77.7415 470.56 73.0219 478.066 68.2411 485.511C66.5861 488.074 65.2377 489.416 61.8665 488.989C51.3241 487.708 40.843 485.877 30.1779 482.459Z" fill="#346448" fill-opacity="0.05"/>
<path d="M67.0771 130.597C64.1963 129.377 61.5607 128.339 58.9864 127.119C46.1148 121.2 32.998 115.829 19.1458 112.595C-0.529388 108.018 -19.4077 110.398 -37.6731 118.637C-43.7411 121.383 -49.6866 124.373 -55.632 127.302C-56.4288 127.668 -57.287 128.095 -58.5128 128.095C-57.6547 126.692 -56.8579 125.227 -55.9998 123.885C-34.6084 90.6874 -5.06509 68.3526 32.8754 56.88C34.7755 56.3308 36.0014 56.6359 37.4724 57.9174C54.1442 72.4412 64.3189 90.4433 66.9545 112.412C67.69 118.209 67.0771 124.19 67.0771 130.597Z" fill="#346448" fill-opacity="0.05"/>
<path d="M234.285 345.583C192.053 325.079 147.677 322.272 101.891 327.703C102.443 326.971 102.81 326.422 103.239 325.933C107.653 320.929 111.943 315.925 116.479 310.982C117.398 309.945 118.869 309.03 120.218 308.786C146.635 303.904 173.236 301.646 200.083 303.11C210.993 303.66 221.781 305.551 232.691 306.772C234.285 306.955 234.959 307.504 234.959 309.274C234.836 320.075 234.897 330.876 234.775 341.678C234.714 342.898 234.407 344.058 234.285 345.583Z" fill="#346448" fill-opacity="0.05"/>
<path d="M78.845 129.741C79.274 127.544 79.6418 125.774 80.0095 124.066C80.0095 124.005 80.1321 123.944 80.316 123.7C89.0809 123.089 97.9685 122.54 106.917 121.93C126.409 120.648 145.9 119.367 165.33 118.085C177.895 117.292 190.399 116.499 202.964 115.644C204.803 115.522 205.906 116.011 206.948 117.536C213.322 126.751 218.778 136.515 223.191 147.316C175.014 141.397 127.083 135.599 78.845 129.741Z" fill="#346448" fill-opacity="0.05"/>
<path d="M160.978 368.283C150.007 372.981 138.913 377.741 127.818 382.44C127.022 382.806 125.98 382.684 125.06 382.562C102.933 379.877 80.8065 379.328 58.5571 380.853C50.9567 381.342 43.4176 382.44 35.5721 383.294C37.4109 382.013 39.1271 380.914 40.782 379.633C51.447 371.517 62.0508 363.34 72.7771 355.223C73.7578 354.491 75.1062 353.698 76.2708 353.637C104.895 352.416 132.599 356.81 159.323 367.428C159.936 367.733 160.61 368.099 160.978 368.283Z" fill="#346448" fill-opacity="0.05"/>
<path d="M87.181 342.473C89.9392 339.605 92.4522 336.981 95.0265 334.479C95.6395 333.929 96.7428 333.746 97.6009 333.624C116.54 331.244 135.541 330.512 154.604 331.916C180.469 333.807 205.293 339.727 228.585 351.443C229.504 351.871 230.301 352.481 231.465 353.152C224.11 354.19 217.184 354.861 210.258 356.203C200.819 357.973 191.502 360.292 182.124 362.245C180.776 362.55 178.998 362.611 177.834 362.062C149.639 348.88 119.912 342.534 88.8359 342.473C88.4681 342.534 87.9778 342.473 87.181 342.473Z" fill="#346448" fill-opacity="0.05"/>
<path d="M202.964 112.408C162.082 112.957 121.444 113.567 80.6228 114.117C80.3776 111.981 80.1325 110.028 79.8873 107.709C84.2391 106.733 88.5909 105.756 92.8814 104.841C120.831 98.9825 148.72 93.1852 176.669 87.3879C177.711 87.1438 179.366 87.3269 180.04 87.9981C187.58 95.6262 194.935 103.376 202.351 111.126C202.596 111.431 202.658 111.798 202.964 112.408Z" fill="#346448" fill-opacity="0.05"/>
<path d="M234.653 299.452C197.571 293.899 160.979 296.889 124.448 303.602C157.914 282.06 194.874 272.235 234.653 270.648C234.653 280.412 234.653 289.749 234.653 299.452Z" fill="#346448" fill-opacity="0.05"/>
<path d="M139.036 282.181C145.104 273.821 150.559 265.705 156.688 258.138C158.895 255.392 162.572 253.744 165.76 251.852C184.086 240.99 203.884 233.789 224.601 229.273C227.482 228.663 231.098 230.738 234.224 231.959C235.634 232.508 235.082 236.657 233.611 237.268C217.307 244.041 203.516 254.599 190.277 266.01C188.99 267.108 187.212 267.963 185.557 268.268C170.234 271.319 155.278 275.591 140.813 281.632C140.384 281.693 140.016 281.815 139.036 282.181Z" fill="#346448" fill-opacity="0.05"/>
<path d="M175.198 84.0362C142.529 88.9792 110.595 93.8611 78.5386 98.743C77.9869 96.5462 77.4966 94.5934 76.9449 92.4576C81.6032 90.3827 86.2002 88.3689 90.7972 86.3551C106.856 79.2763 122.976 72.1975 139.035 65.0577C140.996 64.2033 142.406 64.2644 144.245 65.4238C154.297 71.5262 164.41 77.5676 175.198 84.0362Z" fill="#346448" fill-opacity="0.05"/>
<path d="M227.481 158.544C183.963 157.384 141.364 152.93 99.7461 141.091C106.734 141.579 113.721 142.067 120.708 142.616C134.561 143.654 148.413 144.752 162.327 145.79C178.876 147.071 195.364 148.292 211.913 149.573C215.407 149.817 218.962 150.183 222.455 150.305C223.988 150.367 224.907 150.733 225.397 152.319C225.888 154.272 226.623 156.164 227.481 158.544Z" fill="#346448" fill-opacity="0.05"/>
<path d="M136.216 62.3709C115.56 69.7548 94.9042 77.1387 74.1257 84.5837C72.7773 82.1427 71.5514 79.9458 70.203 77.5659C70.9385 77.0167 71.6127 76.4674 72.2869 75.9793C83.1971 68.7174 94.1074 61.3945 105.14 54.2546C106.305 53.5223 108.205 53.2172 109.492 53.5834C118.441 56.1464 127.267 58.9535 136.155 61.6996C136.216 61.9437 136.216 62.1268 136.216 62.3709Z" fill="#346448" fill-opacity="0.05"/>
<path d="M234.652 220.364C221.29 217.374 207.928 214.384 194.382 211.394C198.489 208.464 201.002 202.85 207.683 202.362C216.754 201.752 225.703 202.24 234.713 204.62C234.652 210.112 234.652 215.543 234.652 220.364Z" fill="#346448" fill-opacity="0.05"/>
<path d="M166.004 244.41C172.256 236.782 178.447 229.154 184.76 221.587C185.373 220.855 186.722 220.305 187.641 220.366C198.49 221.099 209.094 223.113 219.514 226.347C219.636 226.408 219.759 226.591 220.004 226.896C201.371 230.802 183.473 236.477 166.556 245.02C166.372 244.837 166.188 244.654 166.004 244.41Z" fill="#346448" fill-opacity="0.05"/>
<path d="M234.652 240.38C234.652 248.436 234.652 256.064 234.652 263.631C223.191 264.241 211.851 264.851 199.899 265.522C210.625 255.575 221.658 246.91 234.652 240.38Z" fill="#346448" fill-opacity="0.05"/>
<path d="M99.3178 52.6097C93.5563 55.6609 87.7947 58.7122 82.0331 61.8244C77.7426 64.0823 73.3908 66.2181 69.2228 68.6591C66.8937 70.0016 65.3001 70.1237 63.829 67.7437C63.4 67.0115 62.7258 66.4622 61.9289 65.4858C66.2195 60.726 70.5713 55.9661 74.9231 51.2672C75.2909 50.84 76.0877 50.657 76.7006 50.718C84.1784 51.1452 91.6562 51.5723 99.134 52.0605C99.1953 52.1826 99.2565 52.4267 99.3178 52.6097Z" fill="#346448" fill-opacity="0.05"/>
<path d="M233.55 184.725C234.04 190.4 234.469 195.465 234.837 200.408C226.195 199.737 217.859 199.126 209.462 198.516C216.633 193.024 224.54 188.569 233.55 184.725Z" fill="#346448" fill-opacity="0.05"/>
<path d="M48.8114 53.0978C54.0826 52.4265 58.557 51.8163 63.0927 51.2061C63.2153 51.3891 63.2766 51.5722 63.3992 51.7553C60.5797 53.8301 57.8215 55.9049 54.8794 58.1018C52.9794 56.5152 51.1406 55.0506 48.8114 53.0978Z" fill="#346448" fill-opacity="0.05"/>
</svg>
