<svg width="128" height="124" viewBox="0 0 128 124" fill="none" xmlns="http://www.w3.org/2000/svg">
<g opacity="0.5">
<path d="M126.244 58.9362L127.468 58.4987L127.19 59.9848C126.877 61.6566 126.348 63.4848 126.759 65.135C126.916 65.763 127.111 66.3782 127.268 66.8189C128.414 70.0234 127.9 73.5713 127.19 75.9519C126.802 77.2548 125.894 78.3537 125.248 79.55C124.426 81.0717 123.573 83.2925 122.928 85.1755C122.471 86.5095 121.342 87.5167 120.213 88.3616C118.725 89.4752 117.497 91.1436 116.943 92.0827C110.079 99.8655 100.431 99.1464 96.4652 97.814C92.6054 90.5515 94.05 83.2751 95.8552 79.1324C96.4889 77.6781 97.6016 76.5136 98.85 75.5348C99.5692 74.9708 100.18 74.2803 100.651 73.4973L103.403 68.926C104 67.9338 104.872 67.1356 105.913 66.6279L107.604 65.8025C108.625 65.3047 109.409 64.4143 110.28 63.6858C112.41 61.9047 116.642 60.868 120.086 60.3569C122.175 60.047 124.256 59.6465 126.244 58.9362Z" fill="url(#paint0_linear_2987_25823)"/>
<line y1="-0.5" x2="49.9106" y2="-0.5" transform="matrix(-0.62318 0.782078 0.782078 0.62318 127.569 58.7802)" stroke="url(#paint1_linear_2987_25823)"/>
<line y1="-0.5" x2="14.8868" y2="-0.5" transform="matrix(0.327714 0.944777 0.944777 -0.327714 96.783 77.3956)" stroke="url(#paint2_linear_2987_25823)"/>
<line y1="-0.5" x2="14.6972" y2="-0.5" transform="matrix(-0.992755 -0.120155 -0.120155 0.992755 115.838 93.4297)" stroke="url(#paint3_linear_2987_25823)"/>
<line y1="-0.5" x2="14.9714" y2="-0.5" transform="matrix(-0.992422 -0.122874 -0.122874 0.992422 123.459 83.8955)" stroke="url(#paint4_linear_2987_25823)"/>
<line y1="-0.5" x2="14.9382" y2="-0.5" transform="matrix(0.336504 0.941682 0.941682 -0.336504 104.137 67.7877)" stroke="url(#paint5_linear_2987_25823)"/>
<line y1="-0.5" x2="11.3221" y2="-0.5" transform="matrix(-0.994331 -0.106328 -0.106328 0.994331 127.776 73.4511)" stroke="url(#paint6_linear_2987_25823)"/>
<line y1="-0.5" x2="10.7555" y2="-0.5" transform="matrix(0.336504 0.941682 0.941682 -0.336504 112.898 62.119)" stroke="url(#paint7_linear_2987_25823)"/>
<path d="M50.2403 84.6711L49.8077 84.1979L50.6891 84.0077C52.3516 83.649 54.2343 83.3824 55.5687 82.328C55.8942 82.0708 56.1924 81.814 56.4176 81.6082C58.4594 79.7416 61.2439 78.9572 63.3246 78.6906C64.6731 78.5179 66.046 78.9179 67.4016 79.0209C68.7377 79.1224 70.4502 79.0763 71.9548 78.9838C73.3623 78.8973 74.737 79.5475 75.9825 80.2087C77.2942 80.9051 78.8397 81.2725 79.6967 81.3893C88.0838 84.2185 90.7032 92.0443 90.9646 95.6035C86.5266 101.037 80.3267 102.303 76.4725 102.25C75.1195 102.232 73.8362 101.741 72.6542 101.083C71.9732 100.703 71.2287 100.451 70.4572 100.339L66.2115 99.7211C65.0655 99.5543 63.9921 99.0595 63.1211 98.2962L62.3035 97.5798C61.4496 96.8315 60.3185 96.4485 59.3354 95.8804C57.4097 94.7675 55.4167 92.1428 53.9507 89.7885C52.8348 87.9966 51.6646 86.2291 50.2403 84.6711Z" fill="url(#paint8_linear_2987_25823)"/>
<line y1="-0.5" x2="43.5785" y2="-0.5" transform="matrix(0.963482 0.267773 0.267773 -0.963482 48.9773 83.9344)" stroke="url(#paint9_linear_2987_25823)"/>
<line y1="-0.5" x2="12.6983" y2="-0.5" transform="matrix(0.744326 -0.667817 -0.667817 -0.744326 74.8003 102.094)" stroke="#346448"/>
<line y1="-0.5" x2="14.4845" y2="-0.5" transform="matrix(0.271281 0.9625 0.9625 -0.271281 80.6189 79.9313)" stroke="url(#paint10_linear_2987_25823)"/>
<line y1="-0.5" x2="14.5608" y2="-0.5" transform="matrix(0.332345 0.943158 0.943158 -0.332345 69.7251 77.5275)" stroke="#346448"/>
<line y1="-0.5" x2="12.7421" y2="-0.5" transform="matrix(0.73807 -0.674724 -0.674724 -0.73807 64.8157 99.4818)" stroke="#346448"/>
<line y1="-0.5" x2="9.65762" y2="-0.5" transform="matrix(0.286776 0.957998 0.957998 -0.286776 61.4666 79.0203)" stroke="#346448"/>
<line y1="-0.5" x2="9.17433" y2="-0.5" transform="matrix(0.73807 -0.674724 -0.674724 -0.73807 57.4646 94.4622)" stroke="#346448"/>
<path d="M48.5587 117.217L47.0257 115.706L49.2471 115.104C50.8887 114.66 52.7766 114.398 54.116 113.35C54.8474 112.778 55.5724 112.101 56.0487 111.618C59.0211 108.602 63.3332 107.336 66.2708 106.921C67.6169 106.73 68.9919 107.082 70.3481 107.178C72.5469 107.334 75.821 107.05 78.402 106.727C79.8013 106.552 81.1912 107.13 82.4125 107.835C84.4327 109.001 87.0941 109.509 88.472 109.624C100.365 112.959 104.582 123.674 105.205 128.615C99.3063 136.655 90.5464 138.802 85.1942 138.938C83.5054 138.98 81.8726 138.455 80.3563 137.71L79.9311 137.501C79.0574 137.072 78.1128 136.806 77.1437 136.717L70.3115 136.083C69.1583 135.976 68.0607 135.538 67.1512 134.821L64.8643 133.018C63.9727 132.315 62.8354 131.996 61.7792 131.58C58.5409 130.303 54.9128 125.8 52.4972 122.156C51.3307 120.397 50.062 118.699 48.5587 117.217Z" fill="url(#paint11_linear_2987_25823)"/>
<line y1="-0.5" x2="59.4057" y2="-0.5" transform="matrix(0.975146 0.221563 0.221563 -0.975146 47.2754 115.452)" stroke="url(#paint12_linear_2987_25823)"/>
<line y1="-0.5" x2="17.4933" y2="-0.5" transform="matrix(0.323039 0.946385 0.946385 -0.323039 90.4871 110.113)" stroke="url(#paint13_linear_2987_25823)"/>
<line y1="-0.5" x2="17.8197" y2="-0.5" transform="matrix(0.320446 0.947267 0.947267 -0.320446 76.3254 106.872)" stroke="url(#paint14_linear_2987_25823)"/>
<line y1="-0.5" x2="17.7801" y2="-0.5" transform="matrix(0.702005 -0.712172 -0.712172 -0.702005 69.0474 135.915)" stroke="url(#paint15_linear_2987_25823)"/>
<line y1="-0.5" x2="13.476" y2="-0.5" transform="matrix(0.336178 0.941799 0.941799 -0.336178 62.8962 107.645)" stroke="url(#paint16_linear_2987_25823)"/>
<line y1="-0.5" x2="12.8017" y2="-0.5" transform="matrix(0.702005 -0.712172 -0.712172 -0.702005 58.4402 129.454)" stroke="url(#paint17_linear_2987_25823)"/>
<path d="M159.089 111.684L159.222 109.069L156.794 110.324C155.284 111.105 153.73 112.211 152.037 112.368C150.967 112.468 149.778 112.459 148.985 112.419C144.299 112.18 139.833 114.419 137.189 116.265C136.074 117.043 135.305 118.233 134.382 119.232C132.717 121.033 129.7 123.342 127.308 125.032C126.156 125.846 125.524 127.207 125.127 128.56C124.399 131.044 122.572 133.502 121.525 134.636C114.439 146.044 118.928 157.733 122.058 162.152C132.832 164.293 141.517 159.429 145.854 155.581C147.117 154.46 147.965 152.974 148.58 151.4L148.896 150.593C149.25 149.687 149.767 148.853 150.421 148.132L155.624 142.395C156.402 141.537 156.915 140.473 157.101 139.33L157.66 135.9C157.843 134.78 158.462 133.78 158.983 132.771C160.756 129.337 160.306 122.769 159.529 117.983C159.19 115.899 158.981 113.792 159.089 111.684Z" fill="url(#paint18_linear_2987_25823)"/>
<line x1="159.247" y1="109.334" x2="122.47" y2="162.436" stroke="#346448"/>
<line y1="-1.5" x2="136.987" y2="-1.5" transform="matrix(0.362384 0.932029 0.932029 -0.362384 81.8804 58.8231)" stroke="url(#paint19_linear_2987_25823)" stroke-width="3"/>
<path d="M83.0441 64.0395L99.7744 25.4111C96.3441 24.5098 93.5971 27.1165 92.6523 28.5324C90.439 28.088 88.1801 31.1998 87.3273 32.8112C85.6355 32.5625 83.9666 36.7005 83.3437 38.8006C80.8425 40.1797 79.6178 44.3235 79.3181 46.223C74.118 53.7357 79.6354 61.231 83.0441 64.0395Z" fill="url(#paint20_linear_2987_25823)"/>
<line y1="-0.5" x2="7.49391" y2="-0.5" transform="matrix(-0.466042 -0.884762 -0.884762 0.466042 95.7146 34.7523)" stroke="#346448"/>
<line y1="-0.5" x2="11.3642" y2="-0.5" transform="matrix(-0.594802 -0.803872 -0.803872 0.594802 93.4407 41.6129)" stroke="#346448"/>
<line y1="-0.5" x2="13.0179" y2="-0.5" transform="matrix(-0.623004 -0.782218 -0.782218 0.623004 90.4529 48.8134)" stroke="#346448"/>
<line y1="-0.5" x2="14.054" y2="-0.5" transform="matrix(-0.555893 -0.831254 -0.831254 0.555893 86.4172 57.3644)" stroke="#346448"/>
<path d="M80.4079 68.0688L41.978 50.8873C43.8986 47.9055 47.6849 47.9719 49.338 48.3778C50.6698 46.555 54.4375 47.3236 56.1548 47.9357C57.2343 46.6095 61.2601 48.5334 63.1381 49.6611C65.9138 48.9884 69.616 51.2165 71.1202 52.4147C80.0293 54.4416 81.0241 63.6953 80.4079 68.0688Z" fill="url(#paint21_linear_2987_25823)"/>
<line x1="50.7977" y1="55.1595" x2="48.894" y2="47.9114" stroke="#346448"/>
<line x1="57.095" y1="58.6073" x2="55.9082" y2="47.3053" stroke="#346448"/>
<line x1="64.1609" y1="61.8806" x2="63.2624" y2="48.8937" stroke="#346448"/>
<line x1="72.9172" y1="65.501" x2="70.7862" y2="51.6095" stroke="#346448"/>
<ellipse cx="5.66919" cy="6.96589" rx="5.66919" ry="6.96589" transform="matrix(-0.969612 -0.244649 -0.244649 0.969612 97.9468 66.4741)" fill="url(#paint22_linear_2987_25823)"/>
<ellipse cx="5.66919" cy="6.96589" rx="5.66919" ry="6.96589" transform="matrix(-0.481227 0.876596 0.876596 0.481227 74.7595 63.9514)" fill="url(#paint23_linear_2987_25823)"/>
<ellipse cx="0.947532" cy="0.379013" rx="0.947532" ry="0.379013" transform="matrix(-0.91316 -0.407602 -0.407602 0.91316 93.6047 66.369)" fill="#346448"/>
<ellipse cx="0.48479" cy="0.96958" rx="0.48479" ry="0.96958" transform="matrix(-0.888818 -0.45826 -0.45826 0.888818 74.3948 68.1923)" fill="#426F55"/>
<ellipse cx="5.66919" cy="6.96589" rx="5.66919" ry="6.96589" transform="matrix(-0.851295 -0.524687 -0.524687 0.851295 114.095 107.439)" fill="url(#paint24_linear_2987_25823)"/>
<ellipse cx="0.947533" cy="0.379013" rx="0.947533" ry="0.379013" transform="matrix(-0.748488 -0.663148 -0.663148 0.748488 109.986 106.034)" fill="#346448"/>
<ellipse cx="5.66919" cy="6.96589" rx="5.66919" ry="6.96589" transform="matrix(-0.481227 0.876596 0.876596 0.481227 88.4556 103.444)" fill="url(#paint25_linear_2987_25823)"/>
<ellipse cx="0.48479" cy="0.96958" rx="0.48479" ry="0.96958" transform="matrix(-0.888818 -0.45826 -0.45826 0.888818 88.0906 107.685)" fill="#426F55"/>
<ellipse cx="5.66919" cy="6.96589" rx="5.66919" ry="6.96589" transform="matrix(-0.995012 -0.0997583 -0.0997583 0.995012 106.48 94.3427)" fill="url(#paint26_linear_2987_25823)"/>
<ellipse cx="0.48479" cy="0.96958" rx="0.48479" ry="0.96958" transform="matrix(0.0738394 -0.99727 -0.99727 -0.0738394 101.814 96.1406)" fill="#426F55"/>
</g>
<defs>
<linearGradient id="paint0_linear_2987_25823" x1="126.793" y1="58.3158" x2="97.7743" y2="97.3028" gradientUnits="userSpaceOnUse">
<stop stop-color="#346448"/>
<stop offset="0.691238" stop-color="#346448" stop-opacity="0.17"/>
<stop offset="1" stop-color="#346448" stop-opacity="0"/>
</linearGradient>
<linearGradient id="paint1_linear_2987_25823" x1="14.9884" y1="-0.727282" x2="1.87264" y2="0.028135" gradientUnits="userSpaceOnUse">
<stop stop-color="#346448"/>
<stop offset="1" stop-color="#346448" stop-opacity="0"/>
</linearGradient>
<linearGradient id="paint2_linear_2987_25823" x1="7.44342" y1="0" x2="1.21434" y2="-0.722477" gradientUnits="userSpaceOnUse">
<stop stop-color="#346448"/>
<stop offset="1" stop-color="#346448" stop-opacity="0"/>
</linearGradient>
<linearGradient id="paint3_linear_2987_25823" x1="7.34862" y1="-4.2002e-07" x2="0.39925" y2="-0.737048" gradientUnits="userSpaceOnUse">
<stop stop-color="#346448"/>
<stop offset="1" stop-color="#346448" stop-opacity="0"/>
</linearGradient>
<linearGradient id="paint4_linear_2987_25823" x1="7.48572" y1="-3.73783e-07" x2="-0.357133" y2="-1.55862" gradientUnits="userSpaceOnUse">
<stop stop-color="#346448"/>
<stop offset="1" stop-color="#346448" stop-opacity="0"/>
</linearGradient>
<linearGradient id="paint5_linear_2987_25823" x1="7.4691" y1="-8.10479e-08" x2="0.615386" y2="-1.18569" gradientUnits="userSpaceOnUse">
<stop stop-color="#346448"/>
<stop offset="1" stop-color="#346448" stop-opacity="0"/>
</linearGradient>
<linearGradient id="paint6_linear_2987_25823" x1="5.66104" y1="2.79667e-07" x2="-0.609205" y2="-0.91924" gradientUnits="userSpaceOnUse">
<stop stop-color="#346448"/>
<stop offset="1" stop-color="#346448" stop-opacity="0"/>
</linearGradient>
<linearGradient id="paint7_linear_2987_25823" x1="5.37775" y1="2.1293e-07" x2="0.517902" y2="-1.40318" gradientUnits="userSpaceOnUse">
<stop stop-color="#346448"/>
<stop offset="1" stop-color="#346448" stop-opacity="0"/>
</linearGradient>
<linearGradient id="paint8_linear_2987_25823" x1="49.8867" y1="84.7892" x2="90.1304" y2="94.7427" gradientUnits="userSpaceOnUse">
<stop stop-color="#346448"/>
<stop offset="0.691238" stop-color="#346448" stop-opacity="0.17"/>
<stop offset="1" stop-color="#346448" stop-opacity="0"/>
</linearGradient>
<linearGradient id="paint9_linear_2987_25823" x1="43.6272" y1="-0.144978" x2="1.08287" y2="-0.0399613" gradientUnits="userSpaceOnUse">
<stop stop-color="#346448" stop-opacity="0"/>
<stop offset="0.113322" stop-color="#346448"/>
<stop offset="0.51624" stop-color="#346448"/>
<stop offset="1" stop-color="#346448" stop-opacity="0"/>
</linearGradient>
<linearGradient id="paint10_linear_2987_25823" x1="7.24226" y1="0" x2="0" y2="0" gradientUnits="userSpaceOnUse">
<stop stop-color="#346448"/>
<stop offset="1" stop-color="#346448" stop-opacity="0"/>
</linearGradient>
<linearGradient id="paint11_linear_2987_25823" x1="47.1786" y1="116.524" x2="103.98" y2="127.476" gradientUnits="userSpaceOnUse">
<stop stop-color="#346448"/>
<stop offset="0.691238" stop-color="#346448" stop-opacity="0.17"/>
<stop offset="1" stop-color="#346448" stop-opacity="0"/>
</linearGradient>
<linearGradient id="paint12_linear_2987_25823" x1="29.7029" y1="-2.01344e-05" x2="0.256257" y2="-0.937683" gradientUnits="userSpaceOnUse">
<stop offset="0.378545" stop-color="#346448"/>
<stop offset="1" stop-color="#346448" stop-opacity="0"/>
</linearGradient>
<linearGradient id="paint13_linear_2987_25823" x1="13.9778" y1="-0.497265" x2="6.26802" y2="-0.997148" gradientUnits="userSpaceOnUse">
<stop stop-color="#346448"/>
<stop offset="1" stop-color="#346448" stop-opacity="0"/>
</linearGradient>
<linearGradient id="paint14_linear_2987_25823" x1="8.90983" y1="5.03827e-07" x2="-1.10641" y2="-0.322433" gradientUnits="userSpaceOnUse">
<stop stop-color="#346448"/>
<stop offset="1" stop-color="#346448" stop-opacity="0"/>
</linearGradient>
<linearGradient id="paint15_linear_2987_25823" x1="8.89004" y1="8.07949e-07" x2="0.856978" y2="-0.536141" gradientUnits="userSpaceOnUse">
<stop stop-color="#346448"/>
<stop offset="1" stop-color="#346448" stop-opacity="0"/>
</linearGradient>
<linearGradient id="paint16_linear_2987_25823" x1="6.73801" y1="-1.06849e-07" x2="-0.000693626" y2="-0.789188" gradientUnits="userSpaceOnUse">
<stop stop-color="#346448"/>
<stop offset="1" stop-color="#346448" stop-opacity="0"/>
</linearGradient>
<linearGradient id="paint17_linear_2987_25823" x1="6.40083" y1="-2.38203e-07" x2="0.5672" y2="-1.211" gradientUnits="userSpaceOnUse">
<stop stop-color="#346448"/>
<stop offset="1" stop-color="#346448" stop-opacity="0"/>
</linearGradient>
<linearGradient id="paint18_linear_2987_25823" x1="159.701" y1="109.837" x2="122.204" y2="160.339" gradientUnits="userSpaceOnUse">
<stop stop-color="#346448"/>
<stop offset="0.691238" stop-color="#346448" stop-opacity="0.17"/>
<stop offset="1" stop-color="#346448" stop-opacity="0"/>
</linearGradient>
<linearGradient id="paint19_linear_2987_25823" x1="-0.894781" y1="-1.20384" x2="135.242" y2="-2.40055" gradientUnits="userSpaceOnUse">
<stop offset="0.00624214" stop-color="#346448" stop-opacity="0"/>
<stop offset="0.239431" stop-color="#346448" stop-opacity="0.99"/>
<stop offset="0.514595" stop-color="#346448" stop-opacity="0.76"/>
<stop offset="1" stop-color="#346448" stop-opacity="0"/>
</linearGradient>
<linearGradient id="paint20_linear_2987_25823" x1="99.2523" y1="24.9497" x2="81.0667" y2="64.1475" gradientUnits="userSpaceOnUse">
<stop stop-color="#346448"/>
<stop offset="0.629865" stop-color="#346448" stop-opacity="0.13"/>
<stop offset="1" stop-color="#346448" stop-opacity="0"/>
</linearGradient>
<linearGradient id="paint21_linear_2987_25823" x1="42.0514" y1="50.1943" x2="81.9389" y2="66.8127" gradientUnits="userSpaceOnUse">
<stop stop-color="#346448"/>
<stop offset="0.629865" stop-color="#346448" stop-opacity="0.13"/>
<stop offset="1" stop-color="#346448" stop-opacity="0"/>
</linearGradient>
<linearGradient id="paint22_linear_2987_25823" x1="0.109492" y1="5.00637" x2="10.4204" y2="12.9212" gradientUnits="userSpaceOnUse">
<stop offset="0.122721" stop-color="#346448" stop-opacity="0.53"/>
<stop offset="0.575129" stop-color="#346448" stop-opacity="0.96"/>
<stop offset="1" stop-color="#346448"/>
</linearGradient>
<linearGradient id="paint23_linear_2987_25823" x1="0.750171" y1="7.77475" x2="13.7562" y2="7.54072" gradientUnits="userSpaceOnUse">
<stop stop-color="#346448"/>
<stop offset="0.501301" stop-color="#346448" stop-opacity="0.83"/>
<stop offset="1" stop-color="#346448" stop-opacity="0"/>
</linearGradient>
<linearGradient id="paint24_linear_2987_25823" x1="0.109492" y1="5.00637" x2="10.1861" y2="7.27827" gradientUnits="userSpaceOnUse">
<stop stop-color="#346448" stop-opacity="0.53"/>
<stop offset="0.513594" stop-color="#346448"/>
<stop offset="1" stop-color="#346448"/>
</linearGradient>
<linearGradient id="paint25_linear_2987_25823" x1="0.750171" y1="7.77475" x2="13.7562" y2="7.54072" gradientUnits="userSpaceOnUse">
<stop stop-color="#346448"/>
<stop offset="0.501301" stop-color="#346448" stop-opacity="0.83"/>
<stop offset="1" stop-color="#346448" stop-opacity="0"/>
</linearGradient>
<linearGradient id="paint26_linear_2987_25823" x1="-1.21062" y1="6.24402" x2="11.9709" y2="10.7952" gradientUnits="userSpaceOnUse">
<stop stop-color="#346448" stop-opacity="0"/>
<stop offset="0.355762" stop-color="#346448" stop-opacity="0.83"/>
<stop offset="0.555208" stop-color="#346448"/>
</linearGradient>
</defs>
</svg>
