<svg width="102" height="97" viewBox="0 0 102 97" fill="none" xmlns="http://www.w3.org/2000/svg">
<g id="Group 13" opacity="0.5">
<path id="Vector 11" d="M10.4806 108.602C23.6432 88.974 52.0502 43.6754 60.3781 19.5031" stroke="url(#paint0_linear_2987_25478)" stroke-width="3"/>
<g id="Group 6">
<path id="Vector 10" d="M89.7957 88.0909L91.8465 89.4982L89.4852 90.6136C87.9474 91.34 86.128 91.9105 84.9801 93.1655C84.2825 93.9282 83.6017 94.8337 83.1708 95.4615C80.589 99.2238 76.23 101.362 73.2295 102.327C71.9352 102.743 70.5217 102.634 69.1685 102.766C66.7959 102.997 63.2695 103.952 60.5619 104.798C59.2159 105.219 57.7492 104.895 56.4303 104.396C54.0763 103.505 51.1137 103.467 49.6224 103.607C36.5573 102.341 30.1422 91.9194 28.5677 86.8667C33.2804 77.2611 42.1673 73.3951 47.7324 72.2949C49.3896 71.9672 51.0862 72.1965 52.7099 72.6628L53.4365 72.8715C54.372 73.1401 55.3486 73.2358 56.3185 73.1539L63.7877 72.5227C64.9417 72.4252 66.0993 72.6637 67.1207 73.2096L70.0454 74.7725C71.0467 75.3076 72.2184 75.4218 73.335 75.6273C77.0298 76.3074 81.8116 80.4963 85.0558 83.9189C86.508 85.451 88.0552 86.8964 89.7957 88.0909Z" fill="url(#paint1_linear_2987_25478)"/>
<line id="Line 1" y1="-0.5" x2="63.1336" y2="-0.5" transform="matrix(-0.998913 -0.0466167 -0.0466167 0.998913 91.6326 89.8096)" stroke="url(#paint2_linear_2987_25478)"/>
<line id="Line 2" y1="-0.5" x2="18.8309" y2="-0.5" transform="matrix(-0.573478 0.819221 0.819221 0.573478 49.7314 72.0559)" stroke="#346448"/>
<line id="Line 3" y1="-0.5" x2="18.591" y2="-0.5" transform="matrix(-0.48444 -0.874825 -0.874825 0.48444 47.4226 103.472)" stroke="#346448"/>
<line id="Line 4" y1="-0.5" x2="18.9379" y2="-0.5" transform="matrix(-0.482042 -0.876148 -0.876148 0.482042 62.8442 104.216)" stroke="#346448"/>
<line id="Line 5" y1="-0.5" x2="18.8958" y2="-0.5" transform="matrix(-0.565819 0.82453 0.82453 0.565819 65.0303 72.4709)" stroke="#346448"/>
<line id="Line 6" y1="-0.5" x2="14.3217" y2="-0.5" transform="matrix(-0.496567 -0.867999 -0.867999 0.496567 76.749 100.897)" stroke="#346448"/>
<line id="Line 7" y1="-0.5" x2="13.605" y2="-0.5" transform="matrix(-0.565819 0.82453 0.82453 0.565819 77.3354 77.2485)" stroke="#346448"/>
</g>
<g id="Group 7">
<path id="Vector 10_2" d="M-0.0720292 28.9562L0.401555 26.5144L2.36548 28.2357C3.64448 29.3567 4.89275 30.7981 6.50116 31.3508C7.47866 31.6867 8.58049 31.9504 9.32803 32.0954C13.8075 32.9642 17.5052 36.1103 19.5861 38.4778C20.4837 39.4989 20.9466 40.839 21.6067 42.0276C22.7639 44.1116 25.0458 46.9651 26.9007 49.1114C27.8227 50.1783 28.1098 51.6527 28.1777 53.0612C28.299 55.5751 29.4446 58.3075 30.1668 59.6197C34.2121 72.1071 27.2097 82.1437 23.2028 85.6011C12.5148 85.1062 5.42788 78.4959 2.2012 73.8301C1.24035 72.4407 0.774521 70.7932 0.555241 69.1182L0.457109 68.3686C0.330769 67.4036 0.0293822 66.4697 -0.432239 65.6128L-3.9874 59.0137C-4.53669 57.9941 -4.77915 56.8373 -4.68554 55.683L-4.41749 52.3778C-4.32571 51.2461 -4.68786 50.126 -4.94428 49.0199C-5.79275 45.3602 -3.8562 39.3052 -2.00977 34.9659C-1.18325 33.0235 -0.473972 31.0285 -0.0720292 28.9562Z" fill="url(#paint3_linear_2987_25478)"/>
<line id="Line 1_2" y1="-0.5" x2="63.1336" y2="-0.5" transform="matrix(0.355282 0.934759 0.934759 -0.355282 0.772461 26.5865)" stroke="url(#paint4_linear_2987_25478)"/>
<line id="Line 2_2" y1="-0.5" x2="18.8309" y2="-0.5" transform="matrix(0.979888 0.199547 0.199547 -0.979888 1.18555 72.0918)" stroke="#346448"/>
<line id="Line 3_2" y1="-0.5" x2="18.591" y2="-0.5" transform="matrix(-0.609337 0.792911 0.792911 0.609337 30.1274 60.5247)" stroke="url(#paint5_linear_2987_25478)"/>
<line id="Line 4_2" y1="-0.5" x2="18.9379" y2="-0.5" transform="matrix(-0.611507 0.791239 0.791239 0.611507 25.457 47.2502)" stroke="#346448"/>
<line id="Line 5_2" y1="-0.5" x2="18.8958" y2="-0.5" transform="matrix(0.981705 0.190407 0.190407 -0.981705 -4.52979 57.8946)" stroke="#346448"/>
<line id="Line 6_2" y1="-0.5" x2="14.3217" y2="-0.5" transform="matrix(-0.598244 0.801314 0.801314 0.598244 16.8728 35.8193)" stroke="#346448"/>
<line id="Line 7_2" y1="-0.5" x2="13.605" y2="-0.5" transform="matrix(0.981705 0.190407 0.190407 -0.981705 -5.05151 44.7048)" stroke="#346448"/>
</g>
<ellipse id="Ellipse 26" cx="4.44651" cy="5.46354" rx="4.44651" ry="5.46354" transform="matrix(-0.999995 -0.00319614 -0.00319614 0.999995 54.375 28.6539)" fill="url(#paint6_linear_2987_25478)"/>
<ellipse id="Ellipse 22" cx="21.916" cy="101.195" rx="4.44651" ry="5.46354" transform="rotate(71.6056 21.916 101.195)" fill="url(#paint7_linear_2987_25478)"/>
<ellipse id="Ellipse 23" cx="12.2645" cy="97.24" rx="4.572" ry="6.057" transform="rotate(50.5657 12.2645 97.24)" fill="url(#paint8_linear_2987_25478)"/>
<ellipse id="Ellipse 15" cx="0.788276" cy="0.315311" rx="0.788276" ry="0.315311" transform="matrix(-0.584671 -0.811271 -0.811271 0.584671 46.0898 59.9177)" fill="#346448"/>
<ellipse id="Ellipse 27" cx="0.788276" cy="0.315311" rx="0.788276" ry="0.315311" transform="matrix(-0.999152 0.0411664 0.0411664 0.999152 50.8008 29.4673)" fill="#346448"/>
<ellipse id="Ellipse 16" cx="0.730977" cy="0.315311" rx="0.730977" ry="0.315311" transform="matrix(-0.186583 -0.982439 -0.982439 0.186583 48.7656 70.1554)" fill="#346448"/>
<ellipse id="Ellipse 18" cx="0.730977" cy="0.315311" rx="0.730977" ry="0.315311" transform="matrix(-0.135478 -0.990781 -0.990781 0.135478 43.9812 80.6044)" fill="#346448"/>
<ellipse id="Ellipse 19" cx="0.730976" cy="0.315311" rx="0.730976" ry="0.315311" transform="matrix(-0.639651 -0.768666 -0.768666 0.639651 31.4827 80.0346)" fill="#346448"/>
<ellipse id="Ellipse 24" cx="15.7956" cy="94.413" rx="0.730977" ry="0.315311" transform="rotate(49.5338 15.7956 94.413)" fill="#346448"/>
<ellipse id="Ellipse 20" cx="0.730977" cy="0.315311" rx="0.730977" ry="0.315311" transform="matrix(-0.999192 0.0401883 0.0401883 0.999192 32.9854 63.3444)" fill="#346448"/>
<ellipse id="Ellipse 21" cx="0.730977" cy="0.315311" rx="0.730977" ry="0.315311" transform="matrix(-0.999192 0.0401883 0.0401883 0.999192 27.4578 69.8901)" fill="#346448"/>
<ellipse id="Ellipse 17" cx="0.730977" cy="0.315311" rx="0.730977" ry="0.315311" transform="matrix(-0.584269 -0.81156 -0.81156 0.584269 39.104 71.6817)" fill="#346448"/>
<g id="Group 8">
<path id="Vector 12" d="M52.4739 42.0802L87.4819 46.4413C87.3991 43.4701 84.6558 41.8744 83.2945 41.448C83.1309 39.5631 80.0962 38.479 78.5993 38.1725C78.401 36.7532 74.6799 36.3852 72.8441 36.3786C71.146 34.6917 67.5248 34.6823 65.9265 34.8884C58.6596 32.4749 53.9302 38.6773 52.4739 42.0802Z" fill="url(#paint9_linear_2987_25478)"/>
<line id="Line 8" y1="-0.5" x2="6.28031" y2="-0.5" transform="matrix(0.718193 -0.695844 -0.695844 -0.718193 79.0129 45.3754)" stroke="#346448"/>
<line id="Line 9" y1="-0.5" x2="9.52379" y2="-0.5" transform="matrix(0.604386 -0.796692 -0.796692 -0.604386 72.9597 45.162)" stroke="#346448"/>
<line id="Line 10" y1="-0.5" x2="10.9097" y2="-0.5" transform="matrix(0.575681 -0.817674 -0.817674 -0.575681 66.4648 44.4539)" stroke="#346448"/>
<line id="Line 11" y1="-0.5" x2="11.778" y2="-0.5" transform="matrix(0.641597 -0.767042 -0.767042 -0.641597 58.637 43.2217)" stroke="#346448"/>
</g>
<g id="Group 9">
<path id="Vector 12_2" d="M49.9022 40.8492L17.5784 26.7159C19.1673 24.2038 22.3408 24.2333 23.7289 24.5621C24.8324 23.0253 27.9951 23.6434 29.4385 24.1445C30.334 23.0257 33.721 24.6102 35.3026 25.5422C37.6241 24.9594 40.742 26.801 42.0108 27.7947C49.4909 29.4318 50.3885 37.1798 49.9022 40.8492Z" fill="url(#paint10_linear_2987_25478)"/>
<line id="Line 8_2" x1="24.921" y1="30.2565" x2="23.2757" y2="24.1956" stroke="#346448"/>
<line id="Line 9_2" x1="30.2197" y1="33.0905" x2="29.1471" y2="23.6273" stroke="#346448"/>
<line id="Line 10_2" x1="36.1631" y1="35.7817" x2="35.3205" y2="24.9046" stroke="#346448"/>
<line id="Line 11_2" x1="43.5274" y1="38.7621" x2="41.6457" y2="27.1353" stroke="#346448"/>
</g>
<g id="Group 11">
<path id="Vector 12_3" d="M54.6447 29.5078L40.5596 9.6954C42.3891 8.77473 44.2536 9.91753 44.9571 10.604C46.154 10.0874 47.8033 11.5741 48.4784 12.382C49.4042 12.0385 50.8434 14.1757 51.4473 15.2873C53.0255 15.7661 54.2145 17.9599 54.6117 18.9969C58.4505 22.6166 56.2332 27.5124 54.6447 29.5078Z" fill="url(#paint11_linear_2987_25478)"/>
<line id="Line 8_3" x1="43.4922" y1="14.3487" x2="44.6695" y2="10.1844" stroke="#346448"/>
<line id="Line 9_3" x1="45.6261" y1="17.8798" x2="48.3482" y2="11.9085" stroke="#346448"/>
<line id="Line 10_3" x1="48.1858" y1="21.5725" x2="51.5451" y2="14.8474" stroke="#346448"/>
<line id="Line 11_3" x1="51.4744" y1="25.9564" x2="54.4857" y2="18.4201" stroke="#346448"/>
</g>
<g id="Group 10">
<ellipse id="Ellipse 28" cx="4.44651" cy="5.46354" rx="4.44651" ry="5.46354" transform="matrix(-0.566284 -0.82421 -0.82421 0.566284 62.8174 39.9084)" fill="url(#paint12_linear_2987_25478)"/>
<ellipse id="Ellipse 29" cx="0.730977" cy="0.315311" rx="0.730977" ry="0.315311" transform="matrix(-0.494939 -0.868928 -0.868928 0.494939 59.9109 37.5086)" fill="#346448"/>
</g>
<ellipse id="Ellipse 13" cx="4.44651" cy="5.46354" rx="4.44651" ry="5.46354" transform="matrix(-0.997 -0.077405 -0.077405 0.997 36.7654 62.7457)" fill="url(#paint13_linear_2987_25478)"/>
<ellipse id="Ellipse 14" cx="4.44651" cy="5.46354" rx="4.44651" ry="5.46354" transform="matrix(-0.548107 -0.836408 -0.836408 0.548107 48.7368 62.4525)" fill="url(#paint14_linear_2987_25478)"/>
<ellipse id="Ellipse 11" cx="4.44651" cy="5.46354" rx="4.44651" ry="5.46354" transform="matrix(-0.26857 -0.96326 -0.96326 0.26857 50.7373 73.3676)" fill="url(#paint15_linear_2987_25478)"/>
<ellipse id="Ellipse 12" cx="4.44651" cy="5.46354" rx="4.44651" ry="5.46354" transform="matrix(-0.997 -0.077405 -0.077405 0.997 31.4927 69.2089)" fill="url(#paint16_linear_2987_25478)"/>
<ellipse id="Ellipse 8" cx="4.572" cy="6.057" rx="4.572" ry="6.057" transform="matrix(-0.653391 -0.757021 -0.757021 0.653391 34.9602 82.1782)" fill="url(#paint17_linear_2987_25478)"/>
<ellipse id="Ellipse 10" cx="4.44651" cy="5.46354" rx="4.44651" ry="5.46354" transform="matrix(-0.26857 -0.96326 -0.96326 0.26857 45.3684 82.8506)" fill="url(#paint18_linear_2987_25478)"/>
<ellipse id="Ellipse 9" cx="4.44651" cy="5.46354" rx="4.44651" ry="5.46354" transform="matrix(-0.653391 -0.757021 -0.757021 0.653391 42.6504 73.9028)" fill="url(#paint19_linear_2987_25478)"/>
</g>
<defs>
<linearGradient id="paint0_linear_2987_25478" x1="60.0639" y1="19.5407" x2="9.70333" y2="115.054" gradientUnits="userSpaceOnUse">
<stop stop-color="#346448" stop-opacity="0"/>
<stop offset="0.111969" stop-color="#346448"/>
<stop offset="0.488839" stop-color="white" stop-opacity="0"/>
<stop offset="0.777099" stop-color="white" stop-opacity="0"/>
<stop offset="0.813607" stop-color="white" stop-opacity="0.53"/>
<stop offset="1" stop-color="white" stop-opacity="0"/>
</linearGradient>
<linearGradient id="paint1_linear_2987_25478" x1="91.5336" y1="88.6707" x2="30.0621" y2="87.8295" gradientUnits="userSpaceOnUse">
<stop stop-color="white"/>
<stop offset="0.0001" stop-color="#346448"/>
<stop offset="0.691238" stop-color="#346448" stop-opacity="0.17"/>
<stop offset="1" stop-color="#346448" stop-opacity="0"/>
</linearGradient>
<linearGradient id="paint2_linear_2987_25478" x1="31.5668" y1="-3.92967e-05" x2="63.0274" y2="0.0280172" gradientUnits="userSpaceOnUse">
<stop stop-color="#346448"/>
<stop offset="1" stop-color="#346448" stop-opacity="0"/>
</linearGradient>
<linearGradient id="paint3_linear_2987_25478" x1="-0.232725" y1="27.1312" x2="23.4903" y2="83.8469" gradientUnits="userSpaceOnUse">
<stop stop-color="white"/>
<stop offset="0.0001" stop-color="#346448"/>
<stop offset="0.691238" stop-color="#346448" stop-opacity="0.17"/>
<stop offset="1" stop-color="#346448" stop-opacity="0"/>
</linearGradient>
<linearGradient id="paint4_linear_2987_25478" x1="31.5668" y1="-4.00023e-05" x2="60.9173" y2="-0.513842" gradientUnits="userSpaceOnUse">
<stop stop-color="#346448"/>
<stop offset="1" stop-color="#346448" stop-opacity="0"/>
</linearGradient>
<linearGradient id="paint5_linear_2987_25478" x1="9.29552" y1="-2.8288e-06" x2="0.382391" y2="-0.407574" gradientUnits="userSpaceOnUse">
<stop stop-color="#346448"/>
<stop offset="1" stop-color="#346448" stop-opacity="0"/>
</linearGradient>
<linearGradient id="paint6_linear_2987_25478" x1="0.58838" y1="6.09796" x2="10.7894" y2="5.9144" gradientUnits="userSpaceOnUse">
<stop stop-color="#346448"/>
<stop offset="0.501301" stop-color="#346448" stop-opacity="0.83"/>
<stop offset="1" stop-color="#346448" stop-opacity="0"/>
</linearGradient>
<linearGradient id="paint7_linear_2987_25478" x1="19.3287" y1="96.3057" x2="22.8562" y2="106.479" gradientUnits="userSpaceOnUse">
<stop offset="0.208753" stop-color="#346448"/>
<stop offset="0.486002" stop-color="#346448" stop-opacity="0.4"/>
<stop offset="1" stop-color="white" stop-opacity="0"/>
</linearGradient>
<linearGradient id="paint8_linear_2987_25478" x1="12.2645" y1="91.183" x2="12.2645" y2="103.297" gradientUnits="userSpaceOnUse">
<stop stop-color="#346448"/>
<stop offset="0.345667" stop-color="#346448" stop-opacity="0.85"/>
<stop offset="1" stop-color="#346448" stop-opacity="0"/>
</linearGradient>
<linearGradient id="paint9_linear_2987_25478" x1="87.7301" y1="45.9127" x2="51.9215" y2="40.5152" gradientUnits="userSpaceOnUse">
<stop stop-color="#346448"/>
<stop offset="0.629865" stop-color="#346448" stop-opacity="0.13"/>
<stop offset="1" stop-color="#346448" stop-opacity="0"/>
</linearGradient>
<linearGradient id="paint10_linear_2987_25478" x1="17.6351" y1="26.1347" x2="51.1766" y2="39.7859" gradientUnits="userSpaceOnUse">
<stop stop-color="#346448"/>
<stop offset="0.629865" stop-color="#346448" stop-opacity="0.13"/>
<stop offset="1" stop-color="#346448" stop-opacity="0"/>
</linearGradient>
<linearGradient id="paint11_linear_2987_25478" x1="40.7992" y1="9.37213" x2="55.7746" y2="29.3316" gradientUnits="userSpaceOnUse">
<stop stop-color="#346448"/>
<stop offset="0.629865" stop-color="#346448" stop-opacity="0.13"/>
<stop offset="1" stop-color="#346448" stop-opacity="0"/>
</linearGradient>
<linearGradient id="paint12_linear_2987_25478" x1="0.0858775" y1="3.92663" x2="8.173" y2="10.1345" gradientUnits="userSpaceOnUse">
<stop offset="0.122721" stop-color="#346448" stop-opacity="0.53"/>
<stop offset="0.575129" stop-color="#346448" stop-opacity="0.96"/>
<stop offset="1" stop-color="#346448"/>
</linearGradient>
<linearGradient id="paint13_linear_2987_25478" x1="3.97593" y1="5.92101" x2="10.2576" y2="5.53819" gradientUnits="userSpaceOnUse">
<stop stop-color="#346448"/>
<stop offset="0.317272" stop-color="#346448" stop-opacity="0.86"/>
<stop offset="1" stop-color="#346448" stop-opacity="0"/>
</linearGradient>
<linearGradient id="paint14_linear_2987_25478" x1="0.176493" y1="2.30096" x2="10.7894" y2="5.9144" gradientUnits="userSpaceOnUse">
<stop stop-color="#346448"/>
<stop offset="0.501301" stop-color="#346448" stop-opacity="0.83"/>
<stop offset="1" stop-color="#346448" stop-opacity="0"/>
</linearGradient>
<linearGradient id="paint15_linear_2987_25478" x1="0.0858775" y1="3.92663" x2="8.173" y2="10.1345" gradientUnits="userSpaceOnUse">
<stop offset="0.306288" stop-color="#346448"/>
<stop offset="0.575129" stop-color="#346448" stop-opacity="0.74"/>
<stop offset="1" stop-color="#346448" stop-opacity="0"/>
</linearGradient>
<linearGradient id="paint16_linear_2987_25478" x1="1.85921" y1="0.574173" x2="5.38668" y2="10.7477" gradientUnits="userSpaceOnUse">
<stop offset="0.208753" stop-color="#346448"/>
<stop offset="0.486002" stop-color="#346448" stop-opacity="0.4"/>
<stop offset="1" stop-color="white" stop-opacity="0"/>
</linearGradient>
<linearGradient id="paint17_linear_2987_25478" x1="4.572" y1="0" x2="4.572" y2="12.114" gradientUnits="userSpaceOnUse">
<stop stop-color="#346448"/>
<stop offset="0.345667" stop-color="#346448" stop-opacity="0.85"/>
<stop offset="1" stop-color="#346448" stop-opacity="0"/>
</linearGradient>
<linearGradient id="paint18_linear_2987_25478" x1="8.73058" y1="4.48813" x2="0.914851" y2="10.5544" gradientUnits="userSpaceOnUse">
<stop offset="0.377108" stop-color="#346448" stop-opacity="0.98"/>
<stop offset="0.644594" stop-color="#346448" stop-opacity="0.73"/>
<stop offset="1" stop-color="#346448" stop-opacity="0"/>
</linearGradient>
<linearGradient id="paint19_linear_2987_25478" x1="4.44651" y1="0" x2="4.44651" y2="10.9271" gradientUnits="userSpaceOnUse">
<stop offset="0.181128" stop-color="#346448"/>
<stop offset="0.759855" stop-color="#346448" stop-opacity="0.19"/>
<stop offset="1" stop-color="#346448" stop-opacity="0"/>
</linearGradient>
</defs>
</svg>
