<svg width="256" height="659" viewBox="0 0 256 659" fill="none" xmlns="http://www.w3.org/2000/svg">
<path d="M255.557 329.394C255.557 353.151 255.856 376.908 255.482 400.59C254.66 451.976 241.794 500.159 213.519 543.502C175.072 602.484 120.991 639.794 51.6511 653.497C-16.9409 666.977 -81.7182 655.955 -140.586 617.527C-195.864 581.334 -230.646 530.246 -247.177 466.721C-253.086 444.081 -255.779 421.07 -255.704 397.685C-255.48 348.683 -256.677 299.68 -255.405 250.752C-252.488 137.033 -180.081 37.1656 -65.4117 8.71726C12.3061 -10.571 85.4609 1.86583 151.061 48.8578C202.224 85.5725 233.491 135.841 248.152 196.611C253.538 219.101 255.707 241.964 255.707 265.125C255.632 286.573 255.632 308.021 255.557 329.394C255.632 329.394 255.632 329.394 255.557 329.394ZM239.924 329.171C239.924 307.053 239.999 284.935 239.924 262.816C239.924 239.953 237.456 217.314 231.621 195.121C215.539 134.426 182.178 85.7215 128.471 52.1345C75.3629 18.92 17.1681 9.23857 -44.2431 19.8881C-105.729 30.6121 -155.471 61.2201 -192.498 111.265C-224.886 155.13 -239.622 205.026 -240.22 259.093C-240.669 304.744 -240.445 350.321 -240.295 395.972C-240.22 420.399 -237.378 444.454 -230.646 467.987C-211.422 534.64 -172.002 585.355 -109.768 617.304C-61.3724 642.177 -9.83488 648.88 43.7223 639.273C99.8226 629.219 146.573 602.335 183.001 558.694C221.373 512.745 238.727 458.976 239.849 399.771C240.223 376.163 239.924 352.704 239.924 329.171Z" fill="#346448" fill-opacity="0.05"/>
<path d="M-192.125 296.105C-192.125 292.084 -192.2 288.509 -192.05 284.935C-192.05 284.041 -191.452 282.924 -190.779 282.328C-167.366 262.072 -142.308 244.571 -111.864 235.932C-96.6049 231.613 -81.0464 230.719 -65.2635 231.761C-22.9264 234.442 17.8398 245.241 58.5313 256.114C61.8973 257.008 65.2634 257.901 68.6294 258.795C68.7042 258.795 68.779 258.944 69.153 259.242C69.0034 259.54 68.8538 259.912 68.6294 260.21C52.9213 278.307 37.1384 296.478 21.4303 314.575C0.261734 338.852 -21.954 362.013 -47.2366 382.121C-73.1175 402.601 -102.14 417.718 -132.659 429.783C-149.564 436.485 -167.067 441.699 -184.271 447.582C-185.243 447.88 -186.291 448.103 -188.161 448.475C-189.357 438.049 -191.377 427.921 -191.602 417.718C-192.2 395.377 -191.901 373.035 -191.976 350.694C-191.976 350.321 -191.901 350.023 -191.751 349.279C-190.554 349.204 -189.357 349.055 -188.086 349.055C-182.625 349.055 -177.165 349.055 -171.705 349.055C-166.319 349.055 -164.973 347.64 -164.973 342.204C-164.973 334.012 -164.973 325.745 -164.973 317.553C-164.973 311.894 -163.851 310.851 -158.315 310.776C-155.024 310.776 -151.808 310.776 -148.516 310.776C-143.43 310.851 -142.009 312.191 -142.009 317.107C-142.009 325.82 -142.009 334.459 -142.009 343.172C-142.009 347.566 -140.588 348.981 -136.174 348.981C-112.238 348.981 -88.2272 348.981 -64.2911 348.981C-59.8031 348.981 -58.1574 347.342 -58.1574 342.874C-58.0826 330.512 -58.1574 318.075 -58.1574 305.712C-58.1574 301.84 -59.8779 299.159 -63.6179 297.669C-83.8888 289.403 -104.235 281.062 -124.505 272.721C-128.171 271.232 -131.686 271.604 -135.277 273.094C-152.855 280.317 -170.508 287.392 -188.161 294.542C-189.357 295.063 -190.554 295.51 -192.125 296.105ZM-109.246 399.771C-109.321 396.419 -112.014 393.813 -115.305 393.887C-118.596 393.962 -121.139 396.643 -121.065 399.994C-120.99 403.42 -118.447 405.877 -115.081 405.803C-111.715 405.728 -109.171 403.122 -109.246 399.771ZM-182.177 423.602C-178.885 423.527 -176.342 420.921 -176.417 417.495C-176.492 413.995 -178.885 411.686 -182.326 411.686C-185.767 411.686 -188.161 414.218 -188.086 417.644C-188.011 421.07 -185.393 423.676 -182.177 423.602ZM-148.89 409.824C-152.256 409.824 -154.725 412.282 -154.725 415.782C-154.725 419.282 -152.406 421.74 -149.04 421.814C-145.599 421.814 -143.206 419.431 -143.206 415.931C-143.131 412.431 -145.524 409.824 -148.89 409.824ZM-42.1501 364.843C-42.1501 364.322 -42.1501 363.801 -42.1501 363.205C-43.6461 362.088 -44.9926 360.3 -46.5634 360.003C-49.0318 359.63 -50.6026 361.417 -50.6026 364.024C-50.6026 366.482 -48.957 368.194 -46.713 367.822C-44.9926 367.599 -43.6461 365.886 -42.1501 364.843ZM-69.1531 376.014C-68.4799 374.971 -66.9091 373.408 -66.6847 371.769C-66.4603 369.535 -68.1059 367.897 -70.6491 368.046C-73.1923 368.194 -74.3892 369.684 -74.3144 372.142C-74.3144 374.674 -72.8183 375.865 -69.1531 376.014ZM-97.2033 373.854C-97.7269 373.854 -98.3253 373.854 -98.8489 373.929C-99.8213 375.493 -101.317 376.908 -101.542 378.621C-101.991 381.004 -100.195 382.493 -97.8017 382.493C-95.1837 382.493 -93.4633 380.706 -93.9121 378.323C-94.2861 376.684 -96.0813 375.344 -97.2033 373.854ZM-119.12 381.525C-119.494 379.216 -120.616 377.652 -123.234 377.801C-125.852 377.95 -126.974 379.514 -126.899 381.897C-126.824 384.355 -125.403 385.77 -122.86 385.695C-120.317 385.547 -119.344 383.834 -119.12 381.525ZM-169.685 387.557C-170.657 386.887 -172.079 385.249 -173.724 385.025C-176.043 384.727 -177.614 386.589 -177.539 388.972C-177.464 391.43 -175.968 392.845 -173.5 392.77C-170.957 392.77 -169.685 391.281 -169.685 387.557ZM-17.0172 328.873C-17.6904 329.916 -19.4108 331.331 -19.5604 332.969C-19.8596 335.352 -18.1392 337.065 -15.5212 336.916C-13.0527 336.767 -11.856 335.203 -11.9308 332.746C-11.9308 330.214 -13.352 329.022 -17.0172 328.873ZM-153.603 396.27C-150.087 395.749 -148.666 394.483 -148.741 392.026C-148.816 389.568 -150.087 388.153 -152.63 388.153C-155.248 388.153 -156.744 389.866 -156.37 392.1C-156.071 393.664 -154.426 395.079 -153.603 396.27ZM-0.187073 301.84C-1.45868 303.776 -2.65549 304.819 -2.58069 305.787C-2.43109 306.755 -1.00987 307.574 -0.187073 308.468C0.710541 307.574 2.13174 306.755 2.28134 305.787C2.35614 304.819 1.08453 303.776 -0.187073 301.84ZM-158.914 362.013C-160.185 363.95 -161.457 365.067 -161.307 366.035C-161.158 367.003 -159.662 367.822 -158.764 368.641C-157.941 367.748 -156.52 366.854 -156.445 365.886C-156.37 364.992 -157.642 363.875 -158.914 362.013ZM-134.903 371.844C-136.848 370.652 -137.97 369.386 -138.867 369.535C-139.84 369.684 -141.186 371.173 -141.186 372.067C-141.186 372.961 -139.615 374.301 -138.718 374.376C-137.82 374.525 -136.773 373.184 -134.903 371.844ZM-29.5836 323.884C-31.3041 322.394 -32.2017 320.979 -33.0993 320.979C-34.0717 320.979 -35.6425 322.245 -35.7921 323.064C-35.8669 323.958 -34.6701 325.522 -33.6977 325.82C-32.8749 326.043 -31.6033 324.926 -29.5836 323.884Z" fill="#346448" fill-opacity="0.05"/>
<path d="M144.776 206.296C136.922 210.243 129.367 213.743 122.036 217.764C106.403 226.403 92.3406 237.201 79.4001 249.489C77.6797 251.128 76.4829 251.277 74.3137 250.309C42.0747 235.563 9.01286 223.201 -25.7694 215.679C-46.8631 211.136 -68.1813 208.679 -89.7986 210.54C-119.12 213.072 -145.151 223.871 -168.19 241.893C-175.296 247.479 -181.953 253.66 -188.76 259.618C-189.657 260.437 -190.555 261.256 -192.051 262.596C-192.051 255.745 -192.275 249.564 -191.976 243.383C-191.153 224.243 -187.638 205.476 -180.98 187.454C-180.457 186.039 -179.484 184.326 -178.288 183.805C-161.831 176.283 -145.45 168.538 -128.77 161.612C-105.955 152.154 -82.8421 153.569 -60.028 161.687C-45.8907 166.676 -32.1274 172.485 -18.1397 177.847C8.41446 187.901 36.0158 194.305 63.9912 198.774C88.8998 202.795 113.958 205.178 139.241 205.923C141.036 205.923 142.756 206.147 144.776 206.296Z" fill="#346448" fill-opacity="0.05"/>
<path d="M-169.236 498.598C-173.125 490.034 -177.015 481.544 -181.054 472.756C-174.621 470.671 -168.787 468.809 -162.952 466.873C-122.635 453.468 -84.4867 435.669 -49.7045 411.019C-20.8315 390.539 4.22672 365.963 26.6669 338.706C42.8238 319.12 58.5319 299.162 74.9132 279.724C90.7709 260.883 108.723 244.35 130.116 231.764C147.395 221.487 165.945 214.412 185.468 209.572C185.917 209.497 186.366 209.423 186.889 209.348C187.114 209.869 187.413 210.242 187.488 210.689C187.637 211.433 187.712 212.253 187.862 213.221C184.271 214.785 180.756 216.274 177.24 217.838C151.584 229.605 130.64 247.552 112.912 268.926C95.3337 290.076 78.728 311.971 61.8231 333.568C38.9341 362.91 14.1752 390.464 -14.4734 414.37C-43.3464 438.424 -74.8374 458.383 -109.021 474.097C-127.721 482.735 -147.169 489.885 -166.244 497.704C-167.141 498.077 -167.964 498.226 -169.236 498.598Z" fill="#346448" fill-opacity="0.05"/>
<path d="M-58.0828 588.779C6.02126 509.764 86.2074 458.751 187.263 442.59C187.637 442.963 188.011 443.261 188.385 443.633C187.263 448.399 186.216 453.24 184.794 457.932C184.495 458.825 182.7 459.496 181.428 459.793C149.04 469.4 117.923 482.061 88.5262 498.742C57.3344 516.467 29.2094 537.84 6.69447 565.916C-0.0375786 574.257 -5.79721 583.417 -11.6317 592.503C-13.6513 595.631 -15.2969 597.269 -19.4109 596.748C-32.2766 595.184 -45.0675 592.95 -58.0828 588.779Z" fill="#346448" fill-opacity="0.05"/>
<path d="M183.299 465.754C179.26 474.915 175.37 484.149 171.106 493.235C170.508 494.501 168.414 495.245 166.843 495.841C139.092 507.384 113.585 522.651 91.1447 542.684C76.3342 555.866 63.5433 570.76 53.146 587.665C52.1736 589.304 50.0792 590.868 48.284 591.389C34.8947 594.964 21.281 596.974 7.36812 597.421C6.24611 597.421 5.1241 597.421 3.25409 597.421C6.02171 592.878 8.34051 588.782 10.8837 584.835C27.265 559.589 48.4336 539.035 72.5193 521.236C105.506 497.033 141.785 479.159 180.382 465.606C181.055 465.382 181.728 465.233 182.326 465.01C182.7 465.233 183 465.531 183.299 465.754Z" fill="#346448" fill-opacity="0.05"/>
<path d="M49.7053 472.311C43.7212 475.662 38.1112 478.492 32.8004 481.769C22.1787 488.397 11.7066 495.323 1.15974 502.025C-0.635468 503.142 -2.80467 504.036 -4.89908 504.11C-40.8033 505.6 -75.7352 511.93 -109.096 525.26C-118.222 528.909 -126.973 533.601 -135.725 538.07C-137.894 539.187 -139.166 539.187 -140.737 537.25C-145.374 531.665 -150.236 526.228 -155.248 520.42C-148.815 517.739 -143.056 515.579 -137.371 512.972C-121.513 505.6 -105.506 498.45 -90.022 490.333C-80.5224 485.343 -70.7983 481.918 -60.4011 479.683C-24.6464 471.864 11.557 469.853 48.0596 472.087C48.3589 471.864 48.6581 472.013 49.7053 472.311Z" fill="#346448" fill-opacity="0.05"/>
<path d="M191.003 421.739C139.465 396.717 85.3098 393.291 29.4338 399.919C30.107 399.025 30.5558 398.355 31.0794 397.759C36.4651 391.653 41.7011 385.546 47.2363 379.514C48.3584 378.248 50.1536 377.131 51.7992 376.833C84.0382 370.875 116.502 368.119 149.264 369.907C162.579 370.577 175.744 372.886 189.058 374.375C191.003 374.598 191.826 375.269 191.826 377.428C191.676 390.61 191.751 403.792 191.601 416.973C191.527 418.463 191.153 419.878 191.003 421.739Z" fill="#346448" fill-opacity="0.05"/>
<path d="M1.30902 158.332C1.83262 155.651 2.28142 153.491 2.73023 151.406C2.73023 151.332 2.87983 151.257 3.10423 150.959C13.8007 150.215 24.6468 149.544 35.5676 148.8C59.3542 147.236 83.1408 145.672 106.853 144.108C122.187 143.14 137.446 142.172 152.78 141.129C155.024 140.98 156.37 141.576 157.642 143.438C165.421 154.683 172.079 166.598 177.464 179.78C118.671 172.556 60.177 165.481 1.30902 158.332Z" fill="#346448" fill-opacity="0.05"/>
<path d="M101.542 449.441C88.1525 455.175 74.6136 460.984 61.0747 466.718C60.1023 467.165 58.8307 467.016 57.7087 466.867C30.7057 463.591 3.70276 462.92 -23.4498 464.782C-32.7251 465.378 -41.9255 466.718 -51.5 467.761C-49.256 466.197 -47.1616 464.857 -45.142 463.293C-32.1267 453.388 -19.1862 443.409 -6.09609 433.504C-4.89928 432.61 -3.25369 431.642 -1.83248 431.568C33.0993 430.078 66.9092 435.44 99.5222 448.398C100.27 448.771 101.093 449.217 101.542 449.441Z" fill="#346448" fill-opacity="0.05"/>
<path d="M11.482 417.944C14.848 414.444 17.9149 411.242 21.0565 408.188C21.8045 407.518 23.1509 407.295 24.1981 407.146C47.3115 404.241 70.4996 403.348 93.7626 405.06C125.328 407.369 155.623 414.593 184.047 428.892C185.169 429.413 186.141 430.158 187.562 430.977C178.586 432.243 170.134 433.062 161.681 434.7C150.162 436.86 138.792 439.69 127.348 442.073C125.702 442.445 123.533 442.52 122.112 441.85C87.7037 425.764 51.4255 418.019 13.5016 417.944C13.0528 418.019 12.4544 417.944 11.482 417.944Z" fill="#346448" fill-opacity="0.05"/>
<path d="M152.78 137.179C102.889 137.849 53.2958 138.594 3.47865 139.264C3.17944 136.658 2.88026 134.275 2.58105 131.445C7.89189 130.253 13.2027 129.062 18.4387 127.945C52.5478 120.795 86.582 113.72 120.691 106.646C121.963 106.348 123.982 106.571 124.805 107.39C134.006 116.699 142.982 126.157 152.032 135.615C152.332 135.988 152.406 136.434 152.78 137.179Z" fill="#346448" fill-opacity="0.05"/>
<path d="M191.453 365.442C146.199 358.665 101.543 362.315 56.9616 370.506C97.8027 344.218 142.907 332.228 191.453 330.292C191.453 342.207 191.453 353.601 191.453 365.442Z" fill="#346448" fill-opacity="0.05"/>
<path d="M74.7641 344.366C82.1693 334.163 88.8266 324.258 96.3066 315.023C98.9994 311.672 103.487 309.662 107.377 307.353C129.742 294.097 153.903 285.309 179.186 279.798C182.701 279.053 187.114 281.586 190.929 283.075C192.65 283.745 191.976 288.809 190.181 289.554C170.284 297.82 153.454 310.704 137.297 324.63C135.726 325.971 133.557 327.014 131.538 327.386C112.837 331.109 94.5862 336.323 76.9333 343.695C76.4097 343.77 75.9609 343.919 74.7641 344.366Z" fill="#346448" fill-opacity="0.05"/>
<path d="M118.895 102.555C79.0268 108.587 40.0557 114.545 0.935052 120.503C0.261847 117.822 -0.336561 115.439 -1.00977 112.832C4.67507 110.3 10.2851 107.843 15.8951 105.385C35.4929 96.7464 55.1654 88.1076 74.7631 79.3944C77.1568 78.3518 78.8772 78.4262 81.1212 79.8412C93.3885 87.2884 105.731 94.6612 118.895 102.555Z" fill="#346448" fill-opacity="0.05"/>
<path d="M74.5395 582.3C97.1292 546.777 128.695 521.605 165.721 502.689C144.254 539.33 113.81 565.916 74.5395 582.3Z" fill="#346448" fill-opacity="0.05"/>
<path d="M182.7 193.482C129.592 192.067 77.6056 186.631 26.816 172.183C35.3433 172.779 43.8705 173.375 52.3978 174.045C69.3027 175.311 86.2076 176.652 103.187 177.918C123.383 179.482 143.505 180.971 163.701 182.535C167.965 182.833 172.303 183.28 176.567 183.429C178.437 183.503 179.559 183.95 180.157 185.886C180.755 188.269 181.653 190.578 182.7 193.482Z" fill="#346448" fill-opacity="0.05"/>
<path d="M71.3227 76.1157C46.115 85.1268 20.9072 94.138 -4.4502 103.224C-6.09581 100.245 -7.59182 97.5637 -9.23743 94.6593C-8.33982 93.989 -7.51702 93.3188 -6.69421 92.723C6.62027 83.8608 19.9348 74.9242 33.3989 66.2109C34.8201 65.3173 37.1389 64.9449 38.7097 65.3917C49.6306 68.5196 60.4018 71.9453 71.2479 75.2965C71.3227 75.5944 71.3227 75.8178 71.3227 76.1157Z" fill="#346448" fill-opacity="0.05"/>
<path d="M191.451 268.926C175.144 265.276 158.838 261.627 142.307 257.978C147.318 254.403 150.385 247.552 158.539 246.956C169.609 246.212 180.53 246.807 191.526 249.712C191.451 256.414 191.451 263.042 191.451 268.926Z" fill="#346448" fill-opacity="0.05"/>
<path d="M107.676 298.271C115.306 288.962 122.86 279.653 130.565 270.418C131.313 269.525 132.958 268.855 134.08 268.929C147.32 269.823 160.261 272.28 172.977 276.227C173.126 276.302 173.276 276.525 173.575 276.897C150.836 281.664 128.994 288.59 108.349 299.016C108.125 298.792 107.9 298.569 107.676 298.271Z" fill="#346448" fill-opacity="0.05"/>
<path d="M191.452 293.353C191.452 303.183 191.452 312.492 191.452 321.727C177.464 322.472 163.626 323.216 149.04 324.036C162.13 311.897 175.594 301.322 191.452 293.353Z" fill="#346448" fill-opacity="0.05"/>
<path d="M26.2935 64.2032C19.2622 67.9268 12.231 71.6504 5.19974 75.4485C-0.0362968 78.204 -5.34715 80.8105 -10.4336 83.7894C-13.276 85.4278 -15.2208 85.5767 -17.016 82.6723C-17.5396 81.7786 -18.3624 81.1084 -19.3348 79.9168C-14.0988 74.108 -8.78796 68.2992 -3.47712 62.5648C-3.02832 62.0435 -2.05592 61.8201 -1.30791 61.8946C7.81775 62.4159 16.9434 62.9372 26.0691 63.533C26.1439 63.6819 26.2187 63.9798 26.2935 64.2032Z" fill="#346448" fill-opacity="0.05"/>
<path d="M190.106 225.433C190.705 232.359 191.228 238.54 191.677 244.572C181.13 243.753 170.957 243.008 160.71 242.263C169.461 235.561 179.111 230.124 190.106 225.433Z" fill="#346448" fill-opacity="0.05"/>
</svg>
