<svg width="132" height="154" viewBox="0 0 132 154" fill="none" xmlns="http://www.w3.org/2000/svg">
<g opacity="0.5">
<path d="M2.20069 -20.6797C13.6586 10.6763 37.3985 82.3798 40.6948 118.345" stroke="url(#paint0_linear_2966_24549)" stroke-width="3"/>
<path d="M102.894 34.6L107.41 32.8951L103.7 29.8847C102.379 28.813 100.687 27.9285 99.7738 26.4937C98.862 25.0608 97.9898 23.0607 97.5121 21.7957C95.0842 15.3657 89.2627 10.7903 85.4478 8.59629C84.2693 7.91849 82.8785 7.71098 81.5737 7.32931C78.1603 6.33094 72.6206 3.2221 68.8314 0.893548C67.6299 0.155245 66.1377 0.117629 64.7553 0.396164C61.0412 1.14452 56.3999 0.0921608 54.2231 -0.662462C35.8721 -3.32011 23.5655 8.82114 19.7061 15.224C23.0878 30.6556 34.8352 39.0177 42.062 42.0907C43.6165 42.7517 45.3119 42.9388 46.9999 42.8725L49.7262 42.7653C50.6988 42.7271 51.6701 42.8666 52.5926 43.1771L63.8976 46.9825C64.9952 47.3519 66.1763 47.3958 67.2984 47.1089L73.2471 45.5875C74.347 45.3062 75.5032 45.4645 76.6268 45.628C82.2389 46.4446 91.4548 41.4566 97.3137 37.5471C99.0697 36.3754 100.92 35.3457 102.894 34.6Z" fill="url(#paint1_linear_2966_24549)"/>
<line x1="107.125" y1="32.8863" x2="19.6097" y2="15.7146" stroke="url(#paint2_linear_2966_24549)"/>
<line x1="43.2956" y1="42.8428" x2="33.6674" y2="18.0456" stroke="#346448"/>
<line x1="51.5271" y1="-0.878593" x2="33.7008" y2="18.4065" stroke="#346448"/>
<line x1="72.9365" y1="3.28689" x2="54.8314" y2="22.9815" stroke="#346448"/>
<line x1="64.4233" y1="47.4142" x2="54.9943" y2="22.4425" stroke="#346448"/>
<line x1="90.8921" y1="12.5223" x2="76.9541" y2="27.1862" stroke="#346448"/>
<line x1="82.9129" y1="44.9979" x2="76.124" y2="27.0183" stroke="#346448"/>
<path d="M-38.9995 83.734L-39.2349 88.5546L-34.9954 86.3514C-33.4863 85.5671 -32.0008 84.3676 -30.321 84.1019C-28.6434 83.8366 -26.4615 83.8336 -25.1109 83.8996C-18.246 84.235 -11.7298 80.7188 -8.19737 78.0941C-7.10609 77.2832 -6.3616 76.0903 -5.49158 75.0456C-3.21579 72.3128 1.84301 68.4706 5.48862 65.9231C6.64451 65.1153 7.27361 63.7617 7.56898 62.3828C8.36258 58.6781 11.1772 54.8405 12.7367 53.1447C22.4866 37.3725 16.2547 21.2472 11.92 15.1561C-3.58111 12.1086 -15.9316 19.551 -21.6298 24.9548C-22.8556 26.1172 -23.7027 27.5977 -24.3144 29.1723L-25.3025 31.7155C-25.655 32.6227 -26.17 33.458 -26.8224 34.1804L-34.8173 43.0328C-35.5936 43.8923 -36.1045 44.9581 -36.2884 46.1016L-37.2634 52.1638C-37.4436 53.2848 -38.0495 54.2822 -38.6472 55.2475C-41.6325 60.0694 -40.7298 70.5096 -39.4787 77.4412C-39.1038 79.5186 -38.8965 81.6256 -38.9995 83.734Z" fill="url(#paint3_linear_2966_24549)"/>
<line x1="-39.1133" y1="88.2967" x2="11.5085" y2="14.8721" stroke="url(#paint4_linear_2966_24549)"/>
<line x1="-22.8112" y1="25.7865" x2="3.76891" y2="26.8368" stroke="#346448"/>
<line x1="12.5295" y1="52.0914" x2="1.94486" y2="28.0568" stroke="url(#paint5_linear_2966_24549)"/>
<line x1="1.65777" y1="68.7345" x2="-9.1914" y2="44.2812" stroke="#346448"/>
<ellipse cx="31.244" cy="94.7933" rx="6.28122" ry="7.71791" transform="rotate(-166.41 31.244 94.7933)" fill="url(#paint6_linear_2966_24549)"/>
<ellipse cx="6.28122" cy="7.71791" rx="6.28122" ry="7.71791" transform="matrix(0.532397 -0.846495 -0.846495 -0.532397 18.5883 2.75421)" fill="url(#paint7_linear_2966_24549)"/>
<ellipse cx="6.4585" cy="8.55623" rx="6.4585" ry="8.55623" transform="matrix(0.800809 -0.59892 -0.59892 -0.800809 0.779602 6.22859)" fill="url(#paint8_linear_2966_24549)"/>
<ellipse cx="33.5466" cy="58.4743" rx="1.11353" ry="0.445414" transform="rotate(139.553 33.5466 58.4743)" fill="#346448"/>
<ellipse cx="29.96" cy="100.716" rx="1.11353" ry="0.445414" transform="rotate(-163.867 29.96 100.716)" fill="#346448"/>
<ellipse cx="40.9636" cy="45.6992" rx="1.03259" ry="0.445414" transform="rotate(114.527 40.9636 45.6992)" fill="#346448"/>
<ellipse cx="37.9537" cy="29.7962" rx="1.03259" ry="0.445414" transform="rotate(111.559 37.9537 29.7962)" fill="#346448"/>
<ellipse cx="20.3128" cy="25.8332" rx="1.03259" ry="0.445414" transform="rotate(143.539 20.3128 25.8332)" fill="#346448"/>
<ellipse cx="1.03259" cy="0.445414" rx="1.03259" ry="0.445414" transform="matrix(0.811466 -0.5844 -0.5844 -0.811466 4.14337 1.5397)" fill="#346448"/>
<ellipse cx="16.9877" cy="48.2683" rx="1.03259" ry="0.445414" transform="rotate(-163.924 16.9877 48.2683)" fill="#346448"/>
<ellipse cx="11.6051" cy="37.4286" rx="1.03259" ry="0.445414" transform="rotate(-163.924 11.6051 37.4286)" fill="#346448"/>
<ellipse cx="27.9804" cy="39.9326" rx="1.03259" ry="0.445414" transform="rotate(139.525 27.9804 39.9326)" fill="#346448"/>
<path d="M37.4433 84.7109L86.941 90.5011C85.8282 94.5498 81.5277 95.8164 79.5166 95.9437C78.6581 98.4747 74.13 98.9416 71.9732 98.8586C71.2238 100.739 65.9946 99.9926 63.4737 99.3842C60.5766 101.128 55.6051 99.9226 53.4815 99.1022C42.6997 99.9697 38.297 89.8694 37.4433 84.7109Z" fill="url(#paint9_linear_2966_24549)"/>
<line x1="75.3865" y1="88.8494" x2="80.1052" y2="96.3622" stroke="#346448"/>
<line x1="67.0451" y1="87.1737" x2="72.3906" y2="99.5197" stroke="#346448"/>
<line x1="57.9029" y1="85.9773" x2="63.5197" y2="100.329" stroke="#346448"/>
<line x1="46.7319" y1="84.9974" x2="54.0614" y2="99.9338" stroke="#346448"/>
<path d="M33.5007 85.5349L-15.6008 94.0547C-14.2657 98.0357 -9.9017 99.0625 -7.88662 99.0782C-6.88947 101.558 -2.3424 101.774 -0.193508 101.571C0.658783 103.408 5.83866 102.373 8.32206 101.626C11.3112 103.206 16.2084 101.728 18.2833 100.792C29.0966 101.061 32.9338 90.7328 33.5007 85.5349Z" fill="url(#paint10_linear_2966_24549)"/>
<line y1="-0.5" x2="13.4535" y2="-0.5" transform="matrix(-0.345953 0.938252 0.938252 0.345953 4.5498 89.8048)" stroke="#346448"/>
<line y1="-0.5" x2="15.4112" y2="-0.5" transform="matrix(-0.312379 0.949958 0.949958 0.312379 13.6176 88.0875)" stroke="#346448"/>
<line y1="-0.5" x2="16.6378" y2="-0.5" transform="matrix(-0.390189 0.920735 0.920735 0.390189 24.7027 86.5301)" stroke="#346448"/>
<path d="M36.1936 102.69L10.2056 125.136C12.4061 127.014 15.3484 126.074 16.5445 125.368C18.013 126.48 20.7759 124.995 21.9737 124.113C23.1284 124.896 25.8218 122.448 27.0241 121.126C29.3505 120.999 31.7196 118.39 32.6134 117.1C39.0975 113.425 37.7019 105.962 36.1936 102.69Z" fill="url(#paint11_linear_2966_24549)"/>
<line y1="-0.5" x2="6.11309" y2="-0.5" transform="matrix(0.0351149 0.999383 0.999383 -0.0351149 16.5002 119.713)" stroke="#346448"/>
<line y1="-0.5" x2="9.2702" y2="-0.5" transform="matrix(0.186236 0.982505 0.982505 -0.186236 20.6033 115.479)" stroke="#346448"/>
<line y1="-0.5" x2="10.6192" y2="-0.5" transform="matrix(0.221047 0.975263 0.975263 -0.221047 25.3516 111.249)" stroke="#346448"/>
<line y1="-0.5" x2="11.4644" y2="-0.5" transform="matrix(0.139292 0.990251 0.990251 -0.139292 31.3484 106.398)" stroke="#346448"/>
<ellipse cx="41.0792" cy="89.5914" rx="6.28122" ry="7.71791" transform="rotate(138.265 41.0792 89.5914)" fill="url(#paint12_linear_2966_24549)"/>
<ellipse cx="45.0759" cy="93.9278" rx="1.03259" ry="0.445414" transform="rotate(133.439 45.0759 93.9278)" fill="#346448"/>
<ellipse cx="17.8949" cy="42.4406" rx="6.28122" ry="7.7179" transform="rotate(-170.666 17.8949 42.4406)" fill="url(#paint13_linear_2966_24549)"/>
<ellipse cx="29.3105" cy="54.1409" rx="6.28122" ry="7.71791" transform="rotate(137.01 29.3105 54.1409)" fill="url(#paint14_linear_2966_24549)"/>
<ellipse cx="35.7771" cy="42.8922" rx="6.28122" ry="7.71791" transform="rotate(119.352 35.7771 42.8922)" fill="url(#paint15_linear_2966_24549)"/>
<ellipse cx="12.8346" cy="31.7997" rx="6.28122" ry="7.7179" transform="rotate(-170.666 12.8346 31.7997)" fill="url(#paint16_linear_2966_24549)"/>
<ellipse cx="16.6775" cy="20.5784" rx="6.4585" ry="8.55623" transform="rotate(144.571 16.6775 20.5784)" fill="url(#paint17_linear_2966_24549)"/>
<ellipse cx="31.6003" cy="28.0761" rx="6.28122" ry="7.71791" transform="rotate(119.352 31.6003 28.0761)" fill="url(#paint18_linear_2966_24549)"/>
<ellipse cx="25.0753" cy="35.0989" rx="6.28122" ry="7.71791" transform="rotate(144.571 25.0753 35.0989)" fill="url(#paint19_linear_2966_24549)"/>
</g>
<defs>
<linearGradient id="paint0_linear_2966_24549" x1="40.2764" y1="118.188" x2="3.30419" y2="-29.7934" gradientUnits="userSpaceOnUse">
<stop stop-color="#346448" stop-opacity="0"/>
<stop offset="0.111969" stop-color="#346448"/>
<stop offset="0.488839" stop-color="white" stop-opacity="0"/>
<stop offset="0.777099" stop-color="white" stop-opacity="0"/>
<stop offset="0.813607" stop-color="white" stop-opacity="0.53"/>
<stop offset="1" stop-color="white" stop-opacity="0"/>
</linearGradient>
<linearGradient id="paint1_linear_2966_24549" x1="106.702" y1="33.9252" x2="22.0801" y2="14.4056" gradientUnits="userSpaceOnUse">
<stop stop-color="white"/>
<stop offset="0.0001" stop-color="#346448"/>
<stop offset="0.691238" stop-color="#346448" stop-opacity="0.17"/>
<stop offset="1" stop-color="#346448" stop-opacity="0"/>
</linearGradient>
<linearGradient id="paint2_linear_2966_24549" x1="63.4634" y1="23.8098" x2="19.864" y2="15.1979" gradientUnits="userSpaceOnUse">
<stop stop-color="#346448"/>
<stop offset="1" stop-color="#346448" stop-opacity="0"/>
</linearGradient>
<linearGradient id="paint3_linear_2966_24549" x1="-39.8978" y1="87.4951" x2="11.7246" y2="17.6595" gradientUnits="userSpaceOnUse">
<stop stop-color="white"/>
<stop offset="0.0001" stop-color="#346448"/>
<stop offset="0.691238" stop-color="#346448" stop-opacity="0.17"/>
<stop offset="1" stop-color="#346448" stop-opacity="0"/>
</linearGradient>
<linearGradient id="paint4_linear_2966_24549" x1="-13.3908" y1="51.8682" x2="9.29202" y2="17.162" gradientUnits="userSpaceOnUse">
<stop stop-color="#346448"/>
<stop offset="1" stop-color="#346448" stop-opacity="0"/>
</linearGradient>
<linearGradient id="paint5_linear_2966_24549" x1="7.69478" y1="39.8726" x2="12.0161" y2="51.6988" gradientUnits="userSpaceOnUse">
<stop stop-color="#346448"/>
<stop offset="1" stop-color="#346448" stop-opacity="0"/>
</linearGradient>
<linearGradient id="paint6_linear_2966_24549" x1="25.7939" y1="95.6895" x2="40.2041" y2="95.4302" gradientUnits="userSpaceOnUse">
<stop stop-color="#346448"/>
<stop offset="0.501301" stop-color="#346448" stop-opacity="0.83"/>
<stop offset="1" stop-color="#346448" stop-opacity="0"/>
</linearGradient>
<linearGradient id="paint7_linear_2966_24549" x1="2.62636" y1="0.811087" x2="7.60933" y2="15.1824" gradientUnits="userSpaceOnUse">
<stop offset="0.208753" stop-color="#346448"/>
<stop offset="0.486002" stop-color="#346448" stop-opacity="0.4"/>
<stop offset="1" stop-color="white" stop-opacity="0"/>
</linearGradient>
<linearGradient id="paint8_linear_2966_24549" x1="6.4585" y1="0" x2="6.4585" y2="17.1125" gradientUnits="userSpaceOnUse">
<stop stop-color="#346448"/>
<stop offset="0.345667" stop-color="#346448" stop-opacity="0.85"/>
<stop offset="1" stop-color="#346448" stop-opacity="0"/>
</linearGradient>
<linearGradient id="paint9_linear_2966_24549" x1="87.1037" y1="91.3098" x2="36.159" y2="86.6722" gradientUnits="userSpaceOnUse">
<stop stop-color="#346448"/>
<stop offset="0.629865" stop-color="#346448" stop-opacity="0.13"/>
<stop offset="1" stop-color="#346448" stop-opacity="0"/>
</linearGradient>
<linearGradient id="paint10_linear_2966_24549" x1="-15.7185" y1="94.8712" x2="34.8916" y2="87.4222" gradientUnits="userSpaceOnUse">
<stop stop-color="#346448"/>
<stop offset="0.629865" stop-color="#346448" stop-opacity="0.13"/>
<stop offset="1" stop-color="#346448" stop-opacity="0"/>
</linearGradient>
<linearGradient id="paint11_linear_2966_24549" x1="10.4256" y1="125.66" x2="37.6846" y2="103.312" gradientUnits="userSpaceOnUse">
<stop stop-color="#346448"/>
<stop offset="0.629865" stop-color="#346448" stop-opacity="0.13"/>
<stop offset="1" stop-color="#346448" stop-opacity="0"/>
</linearGradient>
<linearGradient id="paint12_linear_2966_24549" x1="34.9192" y1="87.4203" x2="46.3433" y2="96.1896" gradientUnits="userSpaceOnUse">
<stop offset="0.122721" stop-color="#346448" stop-opacity="0.53"/>
<stop offset="0.575129" stop-color="#346448" stop-opacity="0.96"/>
<stop offset="1" stop-color="#346448"/>
</linearGradient>
<linearGradient id="paint13_linear_2966_24549" x1="17.2302" y1="43.0868" x2="26.1037" y2="42.546" gradientUnits="userSpaceOnUse">
<stop stop-color="#346448"/>
<stop offset="0.317272" stop-color="#346448" stop-opacity="0.86"/>
<stop offset="1" stop-color="#346448" stop-opacity="0"/>
</linearGradient>
<linearGradient id="paint14_linear_2966_24549" x1="23.2786" y1="49.6733" x2="38.2706" y2="54.7777" gradientUnits="userSpaceOnUse">
<stop stop-color="#346448"/>
<stop offset="0.501301" stop-color="#346448" stop-opacity="0.83"/>
<stop offset="1" stop-color="#346448" stop-opacity="0"/>
</linearGradient>
<linearGradient id="paint15_linear_2966_24549" x1="29.6172" y1="40.7211" x2="41.0412" y2="49.4904" gradientUnits="userSpaceOnUse">
<stop offset="0.306288" stop-color="#346448"/>
<stop offset="0.575129" stop-color="#346448" stop-opacity="0.74"/>
<stop offset="1" stop-color="#346448" stop-opacity="0"/>
</linearGradient>
<linearGradient id="paint16_linear_2966_24549" x1="9.17969" y1="24.8929" x2="14.1627" y2="39.2642" gradientUnits="userSpaceOnUse">
<stop offset="0.208753" stop-color="#346448"/>
<stop offset="0.486002" stop-color="#346448" stop-opacity="0.4"/>
<stop offset="1" stop-color="white" stop-opacity="0"/>
</linearGradient>
<linearGradient id="paint17_linear_2966_24549" x1="16.6775" y1="12.0221" x2="16.6775" y2="29.1346" gradientUnits="userSpaceOnUse">
<stop stop-color="#346448"/>
<stop offset="0.345667" stop-color="#346448" stop-opacity="0.85"/>
<stop offset="1" stop-color="#346448" stop-opacity="0"/>
</linearGradient>
<linearGradient id="paint18_linear_2966_24549" x1="37.652" y1="26.6982" x2="26.6114" y2="35.2675" gradientUnits="userSpaceOnUse">
<stop offset="0.377108" stop-color="#346448" stop-opacity="0.98"/>
<stop offset="0.644594" stop-color="#346448" stop-opacity="0.73"/>
<stop offset="1" stop-color="#346448" stop-opacity="0"/>
</linearGradient>
<linearGradient id="paint19_linear_2966_24549" x1="25.0753" y1="27.381" x2="25.0753" y2="42.8168" gradientUnits="userSpaceOnUse">
<stop offset="0.181128" stop-color="#346448"/>
<stop offset="0.759855" stop-color="#346448" stop-opacity="0.19"/>
<stop offset="1" stop-color="#346448" stop-opacity="0"/>
</linearGradient>
</defs>
</svg>
