<svg width="149" height="101" viewBox="0 0 149 101" fill="none" xmlns="http://www.w3.org/2000/svg">
<path d="M151.2 -51.1669C131.587 -35.6158 88.4447 0.824843 72.7818 22.1786" stroke="url(#paint0_linear_2987_26507)" stroke-width="3"/>
<path d="M32.3938 -57.9953L28.7201 -62.3103L34.1896 -63.2899C35.8637 -63.5897 37.7712 -63.511 39.2808 -64.2942C40.98 -65.1757 43.0279 -66.7442 44.2225 -67.7612C50.0934 -72.7595 58.3268 -74.0406 63.1624 -74.0892C64.5219 -74.1029 65.8361 -73.6079 67.1582 -73.291C71.0032 -72.3692 78.3617 -72.4315 83.3688 -72.674C84.7773 -72.7422 86.1018 -72.056 87.1589 -71.1227C90.3392 -68.3152 95.5364 -66.8066 98.0929 -66.3657C117.264 -59.1355 122.684 -40.8178 122.998 -32.5627C111.367 -19.3064 95.3297 -17.5901 86.7594 -18.5414C85.0805 -18.7278 83.5035 -19.3818 82.0578 -20.2557L79.1162 -22.0341C78.2832 -22.5377 77.3654 -22.885 76.4078 -23.059L63.1041 -25.4769C61.9646 -25.6839 60.9094 -26.2164 60.0659 -27.0099L54.8541 -31.9126C54.0272 -32.6906 52.9421 -33.1129 51.8709 -33.4892C45.8714 -35.5967 39.4354 -45.7227 35.8484 -52.7156C34.8849 -54.5939 33.7622 -56.388 32.3938 -57.9953Z" fill="url(#paint1_linear_2987_26507)"/>
<path d="M143.343 64.7646L140.849 69.8534L137.771 65.2272C136.829 63.8113 136.141 62.0304 134.821 60.9579C133.336 59.7507 131.081 58.4973 129.672 57.8069C122.749 54.414 118.293 47.3728 116.322 42.9572C115.767 41.7157 115.698 40.3131 115.462 38.9742C114.775 35.0803 111.786 28.356 109.568 23.8603C108.944 22.5956 109.046 21.1074 109.48 19.7659C110.788 15.7303 110.101 10.3624 109.487 7.84197C108.479 -12.6226 123.12 -24.893 130.566 -28.4701C147.359 -23.0843 155.324 -9.05932 157.866 -0.819786C158.364 0.794393 158.393 2.50136 158.167 4.17552L157.708 7.5822C157.578 8.54678 157.626 9.52699 157.848 10.4746L160.931 23.64C161.195 24.7676 161.127 25.9476 160.736 27.0375L158.316 33.7712C157.932 34.8396 157.977 36.0031 158.058 37.1355C158.516 43.4779 151.793 53.4159 146.809 59.4923C145.47 61.1244 144.272 62.869 143.343 64.7646Z" fill="url(#paint2_linear_2987_26507)"/>
<line y1="-0.5" x2="98.5478" y2="-0.5" transform="matrix(-0.0989712 -0.99509 -0.99509 0.0989712 140.32 69.5938)" stroke="#346448"/>
<line y1="-0.5" x2="29.3939" y2="-0.5" transform="matrix(-0.893832 -0.448403 -0.448403 0.893832 158.238 0.856903)" stroke="#346448"/>
<line y1="-0.5" x2="29.0195" y2="-0.5" transform="matrix(0.795181 -0.606372 -0.606372 -0.795181 109.196 4.41444)" stroke="#346448"/>
<line y1="-0.5" x2="29.5609" y2="-0.5" transform="matrix(0.796839 -0.604191 -0.604191 -0.796839 111.544 28.3998)" stroke="#346448"/>
<line y1="-0.5" x2="29.4953" y2="-0.5" transform="matrix(-0.897971 -0.440054 -0.440054 0.897971 161.066 24.5782)" stroke="#346448"/>
<line y1="-0.5" x2="22.3553" y2="-0.5" transform="matrix(0.786666 -0.617379 -0.617379 -0.786666 119.821 49.1219)" stroke="#346448"/>
<line y1="-0.5" x2="21.2366" y2="-0.5" transform="matrix(-0.897971 -0.440054 -0.440054 0.897971 156.477 44.6654)" stroke="#346448"/>
<path d="M69.8108 44.9851C68.9076 46.0432 67.3212 47.0427 65.8261 47.8094C64.2465 48.6194 62.6654 49.4432 61.2418 50.5037C61.0629 48.9166 60.9228 47.1343 59.9891 45.8385C59.9587 45.7964 59.9294 45.7565 59.9016 45.7191C58.9011 44.3761 58.5033 42.7029 58.3884 41.3257C58.2753 39.9708 58.7872 38.6215 58.9637 37.2734C59.041 36.6833 59.0947 36.0311 59.1307 35.3971C59.2105 33.9892 59.9876 32.6561 60.6463 31.4092C61.024 30.6943 61.2705 29.9524 61.381 29.4925C63.9392 23.8501 69.5725 22.5745 72.0695 22.642C75.5421 26.1134 75.989 30.5197 75.6825 33.2001C75.5749 34.141 75.1432 35.0003 74.6016 35.7772C74.2895 36.2249 74.0618 36.7257 73.9296 37.2551L73.2945 39.7972C73.0376 40.8259 72.4883 41.7583 71.7132 42.4817C70.9532 43.191 70.4857 44.1946 69.8108 44.9851Z" fill="url(#paint3_linear_2987_26507)"/>
<line y1="-0.5" x2="29.7973" y2="-0.5" transform="matrix(0.366954 -0.930239 -0.930239 -0.366954 61.1353 50.3607)" stroke="#346448"/>
<line y1="-0.5" x2="8.88766" y2="-0.5" transform="matrix(-0.589914 -0.807466 -0.807466 0.589914 75.4563 34.3539)" stroke="#346448"/>
<line y1="-0.5" x2="8.77447" y2="-0.5" transform="matrix(0.984442 -0.175707 -0.175707 -0.984442 61.7764 28.5305)" stroke="#346448"/>
<line y1="-0.5" x2="8.93817" y2="-0.5" transform="matrix(0.98492 -0.173009 -0.173009 -0.98492 59.092 35.3051)" stroke="#346448"/>
<line y1="-0.5" x2="8.91832" y2="-0.5" transform="matrix(-0.597413 -0.801934 -0.801934 0.597413 72.9373 41.1237)" stroke="#346448"/>
<line y1="-0.5" x2="6.75945" y2="-0.5" transform="matrix(0.981902 -0.189389 -0.189389 -0.981902 58.4531 42.0218)" stroke="#346448"/>
<line y1="-0.5" x2="6.42119" y2="-0.5" transform="matrix(-0.597413 -0.801934 -0.801934 0.597413 68.9265 45.891)" stroke="#346448"/>
<ellipse cx="6.94074" cy="8.52827" rx="6.94074" ry="8.52827" transform="matrix(0.942232 0.334962 0.334962 -0.942232 100.817 0.443298)" fill="url(#paint4_linear_2987_26507)"/>
<ellipse cx="6.94074" cy="8.52827" rx="6.94074" ry="8.52827" transform="matrix(0.310784 0.950481 0.950481 -0.310784 82.6589 -3.9928)" fill="url(#paint5_linear_2987_26507)"/>
<ellipse cx="1.23045" cy="0.492181" rx="1.23045" ry="0.492181" transform="matrix(0.352641 0.935759 0.935759 -0.352641 85.6152 0.905457)" fill="#346448"/>
<ellipse cx="1.14101" cy="0.492181" rx="1.14101" ry="0.492181" transform="matrix(0.975043 0.222017 0.222017 -0.975043 106.757 1.08115)" fill="#346448"/>
<path d="M83.7285 4.2751L32.7544 -16.5601C31.6686 -12.0492 35.1521 -8.52709 37.0296 -7.32987C36.5082 -4.42303 40.6392 -1.55293 42.7699 -0.481238C42.4904 1.73815 47.9476 3.8088 50.7111 4.5667C52.5825 7.8005 58.0352 9.29012 60.5276 9.6307C70.4941 16.2283 80.1476 8.80928 83.7285 4.2751Z" fill="url(#paint6_linear_2987_26507)"/>
<line y1="-0.5" x2="14.8661" y2="-0.5" transform="matrix(-0.791389 0.611313 0.611313 0.791389 54.1157 -8.71527)" stroke="#346448"/>
<line y1="-0.5" x2="17.0294" y2="-0.5" transform="matrix(-0.769156 0.639061 0.639061 0.769156 63.6138 -5.00223)" stroke="#346448"/>
<line y1="-0.5" x2="18.3848" y2="-0.5" transform="matrix(-0.81957 0.572979 0.572979 0.81957 74.9067 0.0441895)" stroke="#346448"/>
<path d="M88.955 10.2055L110.102 48.6981C106.627 49.969 103.519 47.5293 102.4 46.1507C100.144 46.8283 97.4938 43.8163 96.4508 42.2257C94.7177 42.649 92.5805 38.5135 91.7285 36.3928C88.9959 35.2044 87.3195 31.0196 86.8228 29.0757C80.6884 21.7793 85.6883 13.4554 88.955 10.2055Z" fill="url(#paint7_linear_2987_26507)"/>
<line x1="105.436" y1="39.5819" x2="102.455" y2="46.8098" stroke="#346448"/>
<line x1="102.37" y1="32.7453" x2="96.2403" y2="42.894" stroke="#346448"/>
<line x1="98.5548" y1="25.5725" x2="91.1238" y2="36.9411" stroke="#346448"/>
<line x1="93.5499" y1="17.0482" x2="86.5745" y2="29.9454" stroke="#346448"/>
<defs>
<linearGradient id="paint0_linear_2987_26507" x1="73.1307" y1="22.2296" x2="146.453" y2="-63.5694" gradientUnits="userSpaceOnUse">
<stop stop-color="#346448" stop-opacity="0"/>
<stop offset="0.111969" stop-color="#346448"/>
<stop offset="0.210702" stop-color="#346448" stop-opacity="0"/>
<stop offset="0.682785" stop-color="#346448" stop-opacity="0"/>
<stop offset="0.813607" stop-color="#346448" stop-opacity="0.53"/>
<stop offset="1" stop-color="#346448" stop-opacity="0"/>
</linearGradient>
<linearGradient id="paint1_linear_2987_26507" x1="28.8544" y1="-60.936" x2="121.139" y2="-34.6223" gradientUnits="userSpaceOnUse">
<stop stop-color="white"/>
<stop offset="0.0001" stop-color="#346448"/>
<stop offset="0.691238" stop-color="#346448" stop-opacity="0.17"/>
<stop offset="1" stop-color="#346448" stop-opacity="0"/>
</linearGradient>
<linearGradient id="paint2_linear_2987_26507" x1="142.056" y1="69.1826" x2="129.418" y2="-25.944" gradientUnits="userSpaceOnUse">
<stop stop-color="white"/>
<stop offset="0.0001" stop-color="#346448"/>
<stop offset="0.691238" stop-color="#346448" stop-opacity="0.17"/>
<stop offset="1" stop-color="#346448" stop-opacity="0"/>
</linearGradient>
<linearGradient id="paint3_linear_2987_26507" x1="61.6591" y1="50.4902" x2="71.4115" y2="23.1626" gradientUnits="userSpaceOnUse">
<stop stop-color="white"/>
<stop offset="0.0001" stop-color="#346448"/>
<stop offset="0.691238" stop-color="#346448" stop-opacity="0.17"/>
<stop offset="1" stop-color="#346448" stop-opacity="0"/>
</linearGradient>
<linearGradient id="paint4_linear_2987_26507" x1="6.20619" y1="9.24235" x2="16.0114" y2="8.64479" gradientUnits="userSpaceOnUse">
<stop stop-color="#346448"/>
<stop offset="0.317272" stop-color="#346448" stop-opacity="0.86"/>
<stop offset="1" stop-color="#346448" stop-opacity="0"/>
</linearGradient>
<linearGradient id="paint5_linear_2987_26507" x1="0.275495" y1="3.59166" x2="16.8416" y2="9.23202" gradientUnits="userSpaceOnUse">
<stop stop-color="#346448"/>
<stop offset="0.501301" stop-color="#346448" stop-opacity="0.83"/>
<stop offset="1" stop-color="#346448" stop-opacity="0"/>
</linearGradient>
<linearGradient id="paint6_linear_2987_26507" x1="32.1651" y1="-15.8647" x2="83.9233" y2="6.85833" gradientUnits="userSpaceOnUse">
<stop stop-color="#346448"/>
<stop offset="0.629865" stop-color="#346448" stop-opacity="0.13"/>
<stop offset="1" stop-color="#346448" stop-opacity="0"/>
</linearGradient>
<linearGradient id="paint7_linear_2987_26507" x1="109.605" y1="49.2283" x2="86.8905" y2="10.2862" gradientUnits="userSpaceOnUse">
<stop stop-color="#346448"/>
<stop offset="0.629865" stop-color="#346448" stop-opacity="0.13"/>
<stop offset="1" stop-color="#346448" stop-opacity="0"/>
</linearGradient>
</defs>
</svg>
