<svg width="114" height="125" viewBox="0 0 114 125" fill="none" xmlns="http://www.w3.org/2000/svg">
<g opacity="0.5">
<path d="M100.153 88.4741C87.038 74.7205 58.4237 42.7877 48.8884 25.0856" stroke="url(#paint0_linear_2966_24753)" stroke-width="3"/>
<path d="M9.52575 81.6404L6.88252 83.9904L10.2887 85.104C11.9052 85.6325 13.793 85.9142 15.1227 86.9747C16.1745 87.8135 17.2867 88.9519 17.9673 89.7174C21.6858 93.8998 27.3847 95.7546 31.0515 96.3854C32.3914 96.6159 33.7719 96.3207 35.1295 96.2474C38.05 96.0898 42.8407 96.7779 46.3488 97.4223C47.7357 97.677 49.1466 97.1749 50.3657 96.4661C53.037 94.9127 56.7641 94.3851 58.6222 94.3256C73.7975 90.9021 79.7971 77.6972 80.8999 71.5226C73.771 60.6755 62.39 57.5479 55.7383 57.1983C54.0513 57.1097 52.3949 57.5452 50.8423 58.2108L49.334 58.8574C48.4394 59.2409 47.4824 59.4579 46.5099 59.4978L37.033 59.8867C35.8759 59.9342 34.7572 60.3155 33.812 60.9848L30.0713 63.6332C29.1447 64.2893 28.0024 64.5512 26.9061 64.8466C22.4485 66.0478 17.0707 72.216 13.6951 76.8995C12.4608 78.612 11.1034 80.2378 9.52575 81.6404Z" fill="url(#paint1_linear_2966_24753)"/>
<line x1="7.09462" y1="83.8325" x2="80.8144" y2="71.03" stroke="#346448"/>
<line x1="54.1909" y1="56.9066" x2="69.1743" y2="73.4466" stroke="#346448"/>
<line x1="60.7245" y1="93.6561" x2="68.9054" y2="73.1979" stroke="#346448"/>
<line x1="42.7005" y1="96.816" x2="50.977" y2="75.9534" stroke="#346448"/>
<line x1="36.2662" y1="59.6643" x2="51.146" y2="76.4007" stroke="#346448"/>
<line x1="25.8619" y1="94.9659" x2="32.3828" y2="79.2951" stroke="#346448"/>
<line x1="22.5047" y1="67.1048" x2="33.2181" y2="79.155" stroke="#346448"/>
<path d="M106.181 -0.254723L105.079 -3.61545L102.701 -0.935109C101.572 0.336944 100.561 1.95616 99.0586 2.75311C97.8701 3.38355 96.3828 3.95007 95.4096 4.26924C90.0918 6.01318 86.1198 10.501 84.0801 13.6128C83.3348 14.7499 83.0555 16.1338 82.5817 17.4081C81.5626 20.1495 79.0224 24.2692 77.0336 27.23C76.2473 28.4006 76.1456 29.8947 76.31 31.2953C76.6702 34.3644 75.6691 37.993 74.9832 39.7209C72.0762 55.0036 81.7969 65.7681 87.0206 69.2399C99.8101 67.0237 107.214 57.8315 110.185 51.87C110.938 50.3581 111.199 48.6653 111.207 46.9761L111.215 45.335C111.22 44.3617 111.402 43.3975 111.753 42.4896L115.173 33.6427C115.59 32.5624 115.686 31.3844 115.449 30.2508L114.51 25.7646C114.278 24.6533 114.493 23.5013 114.659 22.3781C115.333 17.8109 111.819 10.4208 108.868 5.45844C107.789 3.64398 106.839 1.75114 106.181 -0.254723Z" fill="url(#paint2_linear_2966_24753)"/>
<line x1="105.139" y1="-3.358" x2="87.5065" y2="69.3578" stroke="#346448"/>
<line x1="111.069" y1="50.567" x2="89.9283" y2="57.7188" stroke="#346448"/>
<line x1="74.7596" y1="41.9159" x2="90.2636" y2="57.5713" stroke="#346448"/>
<line x1="79.0434" y1="24.1255" x2="94.8803" y2="40.0297" stroke="#346448"/>
<line x1="115.682" y1="33.0279" x2="94.4026" y2="40.0064" stroke="#346448"/>
<line x1="87.45" y1="9.41863" x2="99.2246" y2="21.6439" stroke="#346448"/>
<line x1="114.341" y1="17.4413" x2="99.0201" y2="22.4658" stroke="#346448"/>
<path d="M49.0494 7.6239C48.4813 6.73343 47.3934 5.81521 46.3497 5.08171C45.2469 4.30671 44.1445 3.52122 43.1854 2.57423C42.8842 3.74886 42.5916 5.07442 41.7534 5.95071C41.7262 5.9792 41.7 6.00614 41.6752 6.03129C40.919 6.79719 40.4626 7.78634 40.2002 8.69277C39.8221 9.99869 40.1259 11.4243 40.07 12.7827C40.0648 12.9092 40.0582 13.0373 40.0505 13.1659C39.9658 14.5735 40.5311 16.0303 40.8957 17.3925C40.9999 17.7817 41.0592 18.1399 41.0834 18.3885C42.4145 22.9 46.5166 24.4508 48.4013 24.6622C51.3772 22.4166 52.176 19.1502 52.227 17.1024C52.2449 16.3836 52.0105 15.6921 51.6848 15.051C51.4972 14.6817 51.3785 14.2811 51.3347 13.8692L51.1242 11.8909C51.039 11.0904 50.7239 10.3316 50.217 9.70615C49.72 9.09301 49.4739 8.28927 49.0494 7.6239Z" fill="url(#paint3_linear_2966_24753)"/>
<line x1="43.5762" y1="2.55323" x2="48.8873" y2="24.5449" stroke="#346448"/>
<line x1="52.5372" y1="16.5591" x2="47.841" y2="21.4049" stroke="#346448"/>
<line x1="41.4349" y1="18.678" x2="47.7684" y2="20.7445" stroke="#346448"/>
<line x1="40.1264" y1="13.3015" x2="46.5838" y2="15.3889" stroke="#346448"/>
<line x1="51.3505" y1="11.2072" x2="46.5931" y2="16.0256" stroke="#346448"/>
<line x1="40.3594" y1="8.18632" x2="45.2158" y2="9.84599" stroke="#346448"/>
<line x1="48.8353" y1="7.20118" x2="45.4099" y2="10.6704" stroke="#346448"/>
<ellipse cx="74.1532" cy="49.655" rx="5.26981" ry="6.47516" transform="rotate(-11.6195 74.1532 49.655)" fill="url(#paint4_linear_2966_24753)"/>
<ellipse cx="61.6988" cy="43.9128" rx="5.26981" ry="6.47516" transform="rotate(-63.9428 61.6988 43.9128)" fill="url(#paint5_linear_2966_24753)"/>
<ellipse cx="60.007" cy="54.6663" rx="5.26981" ry="6.47516" transform="rotate(-81.6008 60.007 54.6663)" fill="url(#paint6_linear_2966_24753)"/>
<ellipse cx="81.3106" cy="56.4739" rx="5.26981" ry="6.47516" transform="rotate(-11.6195 81.3106 56.4739)" fill="url(#paint7_linear_2966_24753)"/>
<ellipse cx="5.26981" cy="6.47516" rx="5.26981" ry="6.47516" transform="matrix(-0.19448 0.980906 0.980906 0.19448 85.5168 80.9573)" fill="url(#paint8_linear_2966_24753)"/>
<ellipse cx="81.6663" cy="66.4189" rx="5.41854" ry="7.1785" transform="rotate(-56.3823 81.6663 66.4189)" fill="url(#paint9_linear_2966_24753)"/>
<ellipse cx="5.41854" cy="7.1785" rx="5.41854" ry="7.1785" transform="matrix(-0.533677 0.845689 0.845689 0.533677 98.4276 72.8921)" fill="url(#paint10_linear_2966_24753)"/>
<ellipse cx="67.7248" cy="65.0216" rx="5.26981" ry="6.47516" transform="rotate(-81.6008 67.7248 65.0216)" fill="url(#paint11_linear_2966_24753)"/>
<ellipse cx="57.0796" cy="41.7885" rx="0.934231" ry="0.373693" transform="rotate(-61.4003 57.0796 41.7885)" fill="#346448"/>
<ellipse cx="55.1013" cy="54.0232" rx="0.866322" ry="0.373693" transform="rotate(-86.4266 55.1013 54.0232)" fill="#346448"/>
<ellipse cx="62.2307" cy="65.58" rx="0.866322" ry="0.373693" transform="rotate(-89.3938 62.2307 65.58)" fill="#346448"/>
<ellipse cx="77.2414" cy="63.3924" rx="0.866322" ry="0.373693" transform="rotate(-57.4143 77.2414 63.3924)" fill="#346448"/>
<ellipse cx="0.866322" cy="0.373693" rx="0.866322" ry="0.373693" transform="matrix(-0.548821 0.83594 0.83594 0.548821 97.1989 77.5751)" fill="#346448"/>
<ellipse cx="73.1155" cy="44.8168" rx="0.866322" ry="0.373693" transform="rotate(-4.87682 73.1155 44.8168)" fill="#346448"/>
<ellipse cx="80.585" cy="51.6949" rx="0.866322" ry="0.373693" transform="rotate(-4.87682 80.585 51.6949)" fill="#346448"/>
<ellipse cx="0.866322" cy="0.373693" rx="0.866322" ry="0.373693" transform="matrix(-0.0779661 0.996956 0.996956 0.0779661 85.7545 85.8012)" fill="#346448"/>
<ellipse cx="70.7301" cy="57.5615" rx="5.26981" ry="6.47516" transform="rotate(-56.3823 70.7301 57.5615)" fill="url(#paint12_linear_2966_24753)"/>
<ellipse cx="67.0036" cy="54.646" rx="0.866322" ry="0.373693" transform="rotate(-61.4287 67.0036 54.646)" fill="#346448"/>
<path d="M55.2396 39.6979L14.7209 50.0118C14.3782 46.5058 17.3676 44.2231 18.9051 43.52C18.8183 41.2794 22.2261 39.5551 23.9408 38.973C23.9637 37.2747 28.2848 36.2908 30.4425 36.0111C32.1893 33.776 36.4459 33.2285 38.3559 33.2341C46.5432 29.3197 53.0231 35.9123 55.2396 39.6979Z" fill="url(#paint13_linear_2966_24753)"/>
<line x1="24.2211" y1="47.9036" x2="18.27" y2="43.4331" stroke="#346448"/>
<line x1="31.2502" y1="46.7058" x2="23.3579" y2="38.6365" stroke="#346448"/>
<line x1="38.7701" y1="44.8983" x2="30.0637" y2="35.3393" stroke="#346448"/>
<line x1="47.8213" y1="42.3191" x2="37.5974" y2="32.8155" stroke="#346448"/>
<path d="M59.7925 35.7874L79.7368 9.06339C77.257 7.74278 74.6639 9.25091 73.6773 10.17C72.0522 9.4236 69.7432 11.4102 68.7919 12.4967C67.5331 11.9964 65.4917 14.8816 64.6283 16.3868C62.4487 16.9935 60.7486 19.9643 60.171 21.3738C54.7919 26.2162 57.6774 33.0005 59.7925 35.7874Z" fill="url(#paint14_linear_2966_24753)"/>
<line y1="-0.5" x2="5.93624" y2="-0.5" transform="matrix(-0.249727 -0.968316 -0.968316 0.249727 74.9031 15.5232)" stroke="#346448"/>
<line y1="-0.5" x2="9.00203" y2="-0.5" transform="matrix(-0.393656 -0.919258 -0.919258 0.393656 71.8986 20.3967)" stroke="#346448"/>
<line y1="-0.5" x2="10.312" y2="-0.5" transform="matrix(-0.426088 -0.904682 -0.904682 0.426088 68.2816 25.4019)" stroke="#346448"/>
<line y1="-0.5" x2="11.1328" y2="-0.5" transform="matrix(-0.349486 -0.936941 -0.936941 0.349486 63.6106 31.2572)" stroke="#346448"/>
</g>
<defs>
<linearGradient id="paint0_linear_2966_24753" x1="49.1561" y1="25.0839" x2="95.2808" y2="97.3018" gradientUnits="userSpaceOnUse">
<stop stop-color="#346448" stop-opacity="0"/>
<stop offset="0.111969" stop-color="#346448"/>
<stop offset="0.210702" stop-color="#346448" stop-opacity="0"/>
<stop offset="0.682785" stop-color="#346448" stop-opacity="0"/>
<stop offset="0.813607" stop-color="#346448" stop-opacity="0.53"/>
<stop offset="1" stop-color="#346448" stop-opacity="0"/>
</linearGradient>
<linearGradient id="paint1_linear_2966_24753" x1="7.12788" y1="82.971" x2="79.2854" y2="72.8761" gradientUnits="userSpaceOnUse">
<stop stop-color="white"/>
<stop offset="0.0001" stop-color="#346448"/>
<stop offset="0.691238" stop-color="#346448" stop-opacity="0.17"/>
<stop offset="1" stop-color="#346448" stop-opacity="0"/>
</linearGradient>
<linearGradient id="paint2_linear_2966_24753" x1="105.916" y1="-2.98422" x2="86.4226" y2="67.2198" gradientUnits="userSpaceOnUse">
<stop stop-color="white"/>
<stop offset="0.0001" stop-color="#346448"/>
<stop offset="0.691238" stop-color="#346448" stop-opacity="0.17"/>
<stop offset="1" stop-color="#346448" stop-opacity="0"/>
</linearGradient>
<linearGradient id="paint3_linear_2966_24753" x1="43.4978" y1="2.62824" x2="47.9612" y2="24.2017" gradientUnits="userSpaceOnUse">
<stop stop-color="white"/>
<stop offset="0.0001" stop-color="#346448"/>
<stop offset="0.691238" stop-color="#346448" stop-opacity="0.17"/>
<stop offset="1" stop-color="#346448" stop-opacity="0"/>
</linearGradient>
<linearGradient id="paint4_linear_2966_24753" x1="73.5955" y1="50.1972" x2="81.0402" y2="49.7435" gradientUnits="userSpaceOnUse">
<stop stop-color="#346448"/>
<stop offset="0.317272" stop-color="#346448" stop-opacity="0.86"/>
<stop offset="1" stop-color="#346448" stop-opacity="0"/>
</linearGradient>
<linearGradient id="paint5_linear_2966_24753" x1="56.6381" y1="40.1647" x2="69.2161" y2="44.4472" gradientUnits="userSpaceOnUse">
<stop stop-color="#346448"/>
<stop offset="0.501301" stop-color="#346448" stop-opacity="0.83"/>
<stop offset="1" stop-color="#346448" stop-opacity="0"/>
</linearGradient>
<linearGradient id="paint6_linear_2966_24753" x1="54.839" y1="52.8449" x2="64.4235" y2="60.2021" gradientUnits="userSpaceOnUse">
<stop offset="0.306288" stop-color="#346448"/>
<stop offset="0.575129" stop-color="#346448" stop-opacity="0.74"/>
<stop offset="1" stop-color="#346448" stop-opacity="0"/>
</linearGradient>
<linearGradient id="paint7_linear_2966_24753" x1="78.2442" y1="50.6793" x2="82.4248" y2="62.7365" gradientUnits="userSpaceOnUse">
<stop offset="0.208753" stop-color="#346448"/>
<stop offset="0.486002" stop-color="#346448" stop-opacity="0.4"/>
<stop offset="1" stop-color="white" stop-opacity="0"/>
</linearGradient>
<linearGradient id="paint8_linear_2966_24753" x1="2.20346" y1="0.680485" x2="6.38407" y2="12.7377" gradientUnits="userSpaceOnUse">
<stop offset="0.208753" stop-color="#346448"/>
<stop offset="0.486002" stop-color="#346448" stop-opacity="0.4"/>
<stop offset="1" stop-color="white" stop-opacity="0"/>
</linearGradient>
<linearGradient id="paint9_linear_2966_24753" x1="81.6663" y1="59.2404" x2="81.6663" y2="73.5974" gradientUnits="userSpaceOnUse">
<stop stop-color="#346448"/>
<stop offset="0.345667" stop-color="#346448" stop-opacity="0.85"/>
<stop offset="1" stop-color="#346448" stop-opacity="0"/>
</linearGradient>
<linearGradient id="paint10_linear_2966_24753" x1="5.41854" y1="0" x2="5.41854" y2="14.357" gradientUnits="userSpaceOnUse">
<stop stop-color="#346448"/>
<stop offset="0.345667" stop-color="#346448" stop-opacity="0.85"/>
<stop offset="1" stop-color="#346448" stop-opacity="0"/>
</linearGradient>
<linearGradient id="paint11_linear_2966_24753" x1="72.8021" y1="63.8656" x2="63.5392" y2="71.055" gradientUnits="userSpaceOnUse">
<stop offset="0.377108" stop-color="#346448" stop-opacity="0.98"/>
<stop offset="0.644594" stop-color="#346448" stop-opacity="0.73"/>
<stop offset="1" stop-color="#346448" stop-opacity="0"/>
</linearGradient>
<linearGradient id="paint12_linear_2966_24753" x1="70.7301" y1="51.0864" x2="70.7301" y2="64.0367" gradientUnits="userSpaceOnUse">
<stop offset="0.181128" stop-color="#346448"/>
<stop offset="0.759855" stop-color="#346448" stop-opacity="0.19"/>
<stop offset="1" stop-color="#346448" stop-opacity="0"/>
</linearGradient>
<linearGradient id="paint13_linear_2966_24753" x1="14.3509" y1="49.427" x2="55.6574" y2="37.7759" gradientUnits="userSpaceOnUse">
<stop stop-color="#346448"/>
<stop offset="0.629865" stop-color="#346448" stop-opacity="0.13"/>
<stop offset="1" stop-color="#346448" stop-opacity="0"/>
</linearGradient>
<linearGradient id="paint14_linear_2966_24753" x1="79.4185" y1="8.61246" x2="58.2486" y2="35.5099" gradientUnits="userSpaceOnUse">
<stop stop-color="#346448"/>
<stop offset="0.629865" stop-color="#346448" stop-opacity="0.13"/>
<stop offset="1" stop-color="#346448" stop-opacity="0"/>
</linearGradient>
</defs>
</svg>
