<svg width="92" height="61" viewBox="0 0 92 61" fill="none" xmlns="http://www.w3.org/2000/svg">
<g id="Group 24">
<g id="Group 6">
<path id="Vector 10" d="M26.9737 27.3486C25.4944 27.6318 23.4772 27.4034 21.6948 27.04C19.8116 26.656 17.9178 26.2826 15.9969 26.2159L16.0205 26.1786C16.9279 24.7401 17.9994 23.1669 18.0919 21.4687C18.0959 21.3965 18.0989 21.3282 18.1011 21.2649C18.1665 19.3829 19.0223 17.6396 19.8912 16.3857C20.6655 15.2682 21.909 14.5419 22.8983 13.6094C23.4417 13.0971 24.0222 12.4806 24.5582 11.8779C25.4954 10.8242 26.9323 10.2771 28.2385 9.7458C29.1118 9.39061 29.8963 8.88613 30.3297 8.54972C36.3094 5.51103 41.9342 8.24409 43.9991 9.99045C44.5859 15.2741 41.9826 19.3011 39.9101 21.3594C39.1825 22.0819 38.2363 22.5162 37.2529 22.8065C36.6863 22.9737 36.1549 23.243 35.685 23.601L33.4284 25.3202C32.5152 26.0159 31.4201 26.4324 30.2754 26.5195C29.1532 26.6049 28.0791 27.1369 26.9737 27.3486Z" fill="url(#paint0_linear_2987_26566)"/>
<line id="Line 1" y1="-0.5" x2="32.2613" y2="-0.5" transform="matrix(0.867775 -0.496957 -0.496957 -0.867775 16.0037 26.0228)" stroke="url(#paint1_linear_2987_26566)"/>
<line id="Line 2" y1="-0.5" x2="9.62258" y2="-0.5" transform="matrix(0.0440084 -0.999031 -0.999031 -0.0440084 38.9385 22.1815)" stroke="url(#paint2_linear_2987_26566)"/>
<line id="Line 3" y1="-0.5" x2="9.50002" y2="-0.5" transform="matrix(0.878372 0.477978 0.477978 -0.878372 31.3149 8.0041)" stroke="url(#paint3_linear_2987_26566)"/>
<line id="Line 4" y1="-0.5" x2="9.67725" y2="-0.5" transform="matrix(0.877059 0.480382 0.480382 -0.877059 24.4624 11.9144)" stroke="url(#paint4_linear_2987_26566)"/>
<line id="Line 5" y1="-0.5" x2="9.65577" y2="-0.5" transform="matrix(0.0346967 -0.999398 -0.999398 -0.0346967 32.229 26.1997)" stroke="url(#paint5_linear_2987_26566)"/>
<line id="Line 6" y1="-0.5" x2="7.31838" y2="-0.5" transform="matrix(0.884938 0.465709 0.465709 -0.884938 19.3784 17.1596)" stroke="url(#paint6_linear_2987_26566)"/>
<line id="Line 7" y1="-0.5" x2="6.95215" y2="-0.5" transform="matrix(0.0346967 -0.999398 -0.999398 -0.0346967 25.6133 27.5158)" stroke="url(#paint7_linear_2987_26566)"/>
</g>
<g id="Group 7">
<path id="Vector 10_2" d="M66.0492 20.2906C66.7603 21.3606 67.2466 23.0225 67.5491 24.5444C67.8688 26.1524 68.2003 27.7652 68.782 29.298C67.3271 29.0551 65.7086 28.7286 64.3214 29.2299C64.2763 29.2462 64.2335 29.2621 64.1933 29.2774C62.8067 29.8035 61.2906 29.7607 60.0643 29.539C58.7264 29.2971 57.562 28.4379 56.3087 27.9108C55.8932 27.736 55.4425 27.5655 54.9946 27.4073C53.665 26.9376 52.5868 25.8263 51.5451 24.8758C51.0411 24.4158 50.5065 24.0547 50.1556 23.8569C45.7916 20.1568 46.0844 14.8306 46.7763 12.63C50.7383 10.4242 54.7649 11.1424 57.068 12.093C57.8765 12.4267 58.5304 13.0276 59.0834 13.7052C59.402 14.0957 59.7892 14.4247 60.2259 14.6761L62.323 15.8835C63.1716 16.3721 63.8608 17.0958 64.3072 17.9674C64.7448 18.8218 65.5178 19.491 66.0492 20.2906Z" fill="url(#paint8_linear_2987_26566)"/>
<line id="Line 1_2" y1="-0.5" x2="28.1683" y2="-0.5" transform="matrix(-0.796697 -0.604379 -0.604379 0.796697 69.218 29.6542)" stroke="url(#paint9_linear_2987_26566)"/>
<line id="Line 2_2" y1="-0.5" x2="8.20796" y2="-0.5" transform="matrix(-0.938213 0.346058 0.346058 0.938213 58.0356 12.5858)" stroke="#346448"/>
<line id="Line 3_2" y1="-0.5" x2="9.36252" y2="-0.5" transform="matrix(0.102998 -0.994681 -0.994681 -0.102998 49.2539 24.5127)" stroke="url(#paint10_linear_2987_26566)"/>
<line id="Line 4_2" y1="-0.5" x2="9.41185" y2="-0.5" transform="matrix(0.0391067 -0.999235 -0.999235 -0.0391067 55.2253 28.5551)" stroke="#346448"/>
<line id="Line 5_2" y1="-0.5" x2="8.23627" y2="-0.5" transform="matrix(-0.934947 0.354786 0.354786 0.934947 63.4109 16.5364)" stroke="#346448"/>
<line id="Line 6_2" y1="-0.5" x2="6.2425" y2="-0.5" transform="matrix(0.0869361 -0.996214 -0.996214 -0.0869361 60.543 29.6279)" stroke="#346448"/>
<line id="Line 7_2" y1="-0.5" x2="5.93012" y2="-0.5" transform="matrix(-0.934947 0.354786 0.354786 0.934947 66.6299 21.3052)" stroke="#346448"/>
</g>
<g id="Group 8">
<path id="Vector 10_3" d="M77.861 10.789L77.9683 11.0328L77.4173 10.97C75.7275 10.7776 73.854 10.456 72.2627 11.0561C72.0035 11.1539 71.7654 11.2519 71.5725 11.3368C69.3697 12.3065 66.8672 12.2164 65.0281 11.8739C63.6915 11.625 62.5106 10.8118 61.2521 10.2974C60.2273 9.87861 58.9368 9.4772 57.7538 9.15127C56.3943 8.7767 55.2927 7.71979 54.2954 6.72284C53.3981 5.82591 52.2779 5.12944 51.6181 4.80142C45.2685 -0.0381018 45.2902 -7.48139 46.0948 -10.5981C51.4558 -13.9592 57.119 -13.2504 60.3973 -12.0927C61.5481 -11.6864 62.5029 -10.8965 63.3226 -9.99226C63.7949 -9.47129 64.3583 -9.04089 64.9851 -8.72219L68.2794 -7.0472C69.3118 -6.52229 70.1701 -5.70983 70.751 -4.70786L71.0692 -4.15889C71.6386 -3.17663 72.5908 -2.44521 73.3129 -1.5691C74.5247 -0.0989625 75.4085 2.46434 75.97 4.75631C76.4722 6.80665 77.0105 8.85698 77.861 10.789Z" fill="url(#paint11_linear_2987_26566)"/>
<line id="Line 1_3" y1="-0.5" x2="38.3988" y2="-0.5" transform="matrix(-0.824588 -0.565733 -0.565733 0.824588 77.7578 11.1254)" stroke="url(#paint12_linear_2987_26566)"/>
<line id="Line 3_3" y1="-0.5" x2="11.3073" y2="-0.5" transform="matrix(0.0489464 -0.998801 -0.998801 -0.0489464 50.5237 4.02739)" stroke="url(#paint13_linear_2987_26566)"/>
<line id="Line 4_3" y1="-0.5" x2="11.5183" y2="-0.5" transform="matrix(0.0516822 -0.998663 -0.998663 -0.0516822 58.2588 9.35172)" stroke="url(#paint14_linear_2987_26566)"/>
<line id="Line 6_3" y1="-0.5" x2="8.71065" y2="-0.5" transform="matrix(0.0350427 -0.999386 -0.999386 -0.0350427 66.511 12.0903)" stroke="url(#paint15_linear_2987_26566)"/>
<line id="Line 7_3" y1="-0.5" x2="8.27476" y2="-0.5" transform="matrix(-0.915245 0.402899 0.402899 0.915245 74.3896 0.0510254)" stroke="url(#paint16_linear_2987_26566)"/>
</g>
<line id="Line 12" y1="-1.5" x2="88.5458" y2="-1.5" transform="matrix(0.00708035 -0.999975 -0.999975 -0.00708035 43.4622 36.8936)" stroke="url(#paint17_linear_2987_26566)" stroke-width="3"/>
<g id="Group 11">
<path id="Vector 12" d="M44.0071 33.4821L24.7432 52.6989C26.5891 54.0584 28.8611 53.1476 29.7663 52.5222C30.9901 53.3171 33.0893 51.9864 33.986 51.2217C34.943 51.7746 36.9326 49.6866 37.8077 48.5735C39.6392 48.3415 41.3633 46.1441 41.9964 45.0744C46.9122 41.8012 45.3851 35.9824 44.0071 33.4821Z" fill="url(#paint18_linear_2987_26566)"/>
<line id="Line 8" y1="-0.5" x2="4.84392" y2="-0.5" transform="matrix(0.106704 0.994291 0.994291 -0.106704 29.4099 48.0552)" stroke="#346448"/>
<line id="Line 9" y1="-0.5" x2="7.34558" y2="-0.5" transform="matrix(0.256225 0.966617 0.966617 -0.256225 32.4121 44.4759)" stroke="#346448"/>
<line id="Line 10" y1="-0.5" x2="8.41451" y2="-0.5" transform="matrix(0.290426 0.956897 0.956897 -0.290426 35.9246 40.8627)" stroke="#346448"/>
<line id="Line 11" y1="-0.5" x2="9.08423" y2="-0.5" transform="matrix(0.209957 0.97771 0.97771 -0.209957 40.3884 36.6879)" stroke="#346448"/>
</g>
<g id="Group 12">
<path id="Vector 12_2" d="M46.5519 31.6904L65.5417 51.178C63.6768 52.5113 61.4179 51.5684 60.5216 50.9303C59.2867 51.7078 57.2065 50.3474 56.3208 49.5701C55.356 50.1094 53.3962 47.9934 52.5369 46.868C50.7089 46.6101 49.0161 44.3886 48.3982 43.31C43.5293 39.9675 45.1386 34.1709 46.5519 31.6904Z" fill="url(#paint19_linear_2987_26566)"/>
<line id="Line 8_2" x1="61.4375" y1="46.5292" x2="60.8525" y2="51.3377" stroke="#346448"/>
<line id="Line 9_2" x1="58.4712" y1="42.9822" x2="56.4887" y2="50.0552" stroke="#346448"/>
<line id="Line 10_2" x1="55.0054" y1="39.3368" x2="52.4478" y2="47.3532" stroke="#346448"/>
<line id="Line 11_2" x1="50.6121" y1="35.0591" x2="48.5792" y2="43.913" stroke="#346448"/>
</g>
<g id="Group 17">
<ellipse id="Ellipse 30" cx="3.66446" cy="4.50262" rx="3.66446" ry="4.50262" transform="matrix(0.810926 0.585148 0.585148 -0.810926 35.6345 28.4653)" fill="url(#paint20_linear_2987_26566)"/>
<ellipse id="Ellipse 28" cx="3.66446" cy="4.50262" rx="3.66446" ry="4.50262" transform="matrix(0.770713 -0.637182 -0.637182 -0.770713 48.9629 35.5109)" fill="url(#paint21_linear_2987_26566)"/>
<ellipse id="Ellipse 29" cx="0.612467" cy="0.244987" rx="0.612467" ry="0.244987" transform="matrix(0.698332 0.715774 0.715774 -0.698332 38.2178 29.5639)" fill="#346448"/>
<ellipse id="Ellipse 36" cx="0.313359" cy="0.626718" rx="0.313359" ry="0.626718" transform="matrix(0.657017 0.753876 0.753876 -0.657017 50.1934 33.0501)" fill="#426F55"/>
</g>
<g id="Group 20">
<ellipse id="Ellipse 30_2" cx="3.66446" cy="4.50262" rx="3.66446" ry="4.50262" transform="matrix(0.597631 0.801771 0.801771 -0.597631 35.7029 0.00335693)" fill="url(#paint22_linear_2987_26566)"/>
<ellipse id="Ellipse 29_2" cx="0.612467" cy="0.244987" rx="0.612467" ry="0.244987" transform="matrix(0.45099 0.892529 0.892529 -0.45099 37.8369 1.82751)" fill="#346448"/>
</g>
<g id="Group 18">
<ellipse id="Ellipse 28_2" cx="3.66446" cy="4.50262" rx="3.66446" ry="4.50262" transform="matrix(0.770713 -0.637182 -0.637182 -0.770713 50.1543 8.51866)" fill="url(#paint23_linear_2987_26566)"/>
<ellipse id="Ellipse 36_2" cx="0.313359" cy="0.626718" rx="0.313359" ry="0.626718" transform="matrix(0.657017 0.753876 0.753876 -0.657017 51.3848 6.05783)" fill="#426F55"/>
</g>
<g id="Group 19">
<ellipse id="Ellipse 28_3" cx="3.66446" cy="4.50262" rx="3.66446" ry="4.50262" transform="matrix(0.887995 0.459853 0.459853 -0.887995 37.1545 9.68755)" fill="url(#paint24_linear_2987_26566)"/>
<ellipse id="Ellipse 36_3" cx="0.313359" cy="0.626718" rx="0.313359" ry="0.626718" transform="matrix(-0.436596 0.899657 0.899657 0.436596 40.3867 9.72029)" fill="#426F55"/>
</g>
</g>
<defs>
<linearGradient id="paint0_linear_2987_26566" x1="16.3588" y1="26.4868" x2="43.0908" y2="9.98535" gradientUnits="userSpaceOnUse">
<stop stop-color="#346448"/>
<stop offset="0.691238" stop-color="#346448" stop-opacity="0.17"/>
<stop offset="1" stop-color="#346448" stop-opacity="0"/>
</linearGradient>
<linearGradient id="paint1_linear_2987_26566" x1="9.6882" y1="-0.727282" x2="1.19409" y2="-0.411053" gradientUnits="userSpaceOnUse">
<stop stop-color="#346448"/>
<stop offset="1" stop-color="#346448" stop-opacity="0"/>
</linearGradient>
<linearGradient id="paint2_linear_2987_26566" x1="4.81129" y1="0" x2="0.753571" y2="-0.304208" gradientUnits="userSpaceOnUse">
<stop stop-color="#346448"/>
<stop offset="1" stop-color="#346448" stop-opacity="0"/>
</linearGradient>
<linearGradient id="paint3_linear_2987_26566" x1="4.75001" y1="-4.2002e-07" x2="0.228788" y2="-0.309953" gradientUnits="userSpaceOnUse">
<stop stop-color="#346448"/>
<stop offset="1" stop-color="#346448" stop-opacity="0"/>
</linearGradient>
<linearGradient id="paint4_linear_2987_26566" x1="4.83863" y1="-3.73783e-07" x2="-0.345515" y2="-0.665935" gradientUnits="userSpaceOnUse">
<stop stop-color="#346448"/>
<stop offset="1" stop-color="#346448" stop-opacity="0"/>
</linearGradient>
<linearGradient id="paint5_linear_2987_26566" x1="4.82788" y1="-8.10479e-08" x2="0.321536" y2="-0.503915" gradientUnits="userSpaceOnUse">
<stop stop-color="#346448"/>
<stop offset="1" stop-color="#346448" stop-opacity="0"/>
</linearGradient>
<linearGradient id="paint6_linear_2987_26566" x1="3.65919" y1="2.79667e-07" x2="-0.444041" y2="-0.38883" gradientUnits="userSpaceOnUse">
<stop stop-color="#346448"/>
<stop offset="1" stop-color="#346448" stop-opacity="0"/>
</linearGradient>
<linearGradient id="paint7_linear_2987_26566" x1="3.47608" y1="2.1293e-07" x2="0.187433" y2="-0.613755" gradientUnits="userSpaceOnUse">
<stop stop-color="#346448"/>
<stop offset="1" stop-color="#346448" stop-opacity="0"/>
</linearGradient>
<linearGradient id="paint8_linear_2987_26566" x1="68.8755" y1="28.9239" x2="47.0721" y2="13.3461" gradientUnits="userSpaceOnUse">
<stop stop-color="#346448"/>
<stop offset="0.691238" stop-color="#346448" stop-opacity="0.17"/>
<stop offset="1" stop-color="#346448" stop-opacity="0"/>
</linearGradient>
<linearGradient id="paint9_linear_2987_26566" x1="28.1998" y1="-0.144978" x2="0.699852" y2="-0.101101" gradientUnits="userSpaceOnUse">
<stop stop-color="#346448" stop-opacity="0"/>
<stop offset="0.113322" stop-color="#346448"/>
<stop offset="0.51624" stop-color="#346448"/>
<stop offset="1" stop-color="#346448" stop-opacity="0"/>
</linearGradient>
<linearGradient id="paint10_linear_2987_26566" x1="4.68126" y1="0" x2="0" y2="0" gradientUnits="userSpaceOnUse">
<stop stop-color="#346448"/>
<stop offset="1" stop-color="#346448" stop-opacity="0"/>
</linearGradient>
<linearGradient id="paint11_linear_2987_26566" x1="78.0716" y1="10.5047" x2="46.559" y2="-9.62164" gradientUnits="userSpaceOnUse">
<stop stop-color="#346448"/>
<stop offset="0.691238" stop-color="#346448" stop-opacity="0.17"/>
<stop offset="1" stop-color="#346448" stop-opacity="0"/>
</linearGradient>
<linearGradient id="paint12_linear_2987_26566" x1="19.1994" y1="-2.01344e-05" x2="0.154408" y2="-0.392015" gradientUnits="userSpaceOnUse">
<stop offset="0.378545" stop-color="#346448"/>
<stop offset="1" stop-color="#346448" stop-opacity="0"/>
</linearGradient>
<linearGradient id="paint13_linear_2987_26566" x1="9.03497" y1="-0.497265" x2="4.03936" y2="-0.706631" gradientUnits="userSpaceOnUse">
<stop stop-color="#346448"/>
<stop offset="1" stop-color="#346448" stop-opacity="0"/>
</linearGradient>
<linearGradient id="paint14_linear_2987_26566" x1="5.75915" y1="5.03827e-07" x2="-0.719068" y2="-0.134796" gradientUnits="userSpaceOnUse">
<stop stop-color="#346448"/>
<stop offset="1" stop-color="#346448" stop-opacity="0"/>
</linearGradient>
<linearGradient id="paint15_linear_2987_26566" x1="4.35533" y1="-1.06849e-07" x2="-0.0350309" y2="-0.332348" gradientUnits="userSpaceOnUse">
<stop stop-color="#346448"/>
<stop offset="1" stop-color="#346448" stop-opacity="0"/>
</linearGradient>
<linearGradient id="paint16_linear_2987_26566" x1="4.13738" y1="-2.38203e-07" x2="0.273698" y2="-0.518436" gradientUnits="userSpaceOnUse">
<stop stop-color="#346448"/>
<stop offset="1" stop-color="#346448" stop-opacity="0"/>
</linearGradient>
<linearGradient id="paint17_linear_2987_26566" x1="-0.57837" y1="-1.20384" x2="87.4216" y2="-1.70386" gradientUnits="userSpaceOnUse">
<stop offset="0.00624214" stop-color="#346448" stop-opacity="0"/>
<stop offset="0.239431" stop-color="#346448" stop-opacity="0.99"/>
<stop offset="0.514595" stop-color="#346448" stop-opacity="0.76"/>
<stop offset="1" stop-color="#346448" stop-opacity="0"/>
</linearGradient>
<linearGradient id="paint18_linear_2987_26566" x1="24.9468" y1="53.1006" x2="45.2208" y2="33.8888" gradientUnits="userSpaceOnUse">
<stop stop-color="#346448"/>
<stop offset="0.629865" stop-color="#346448" stop-opacity="0.13"/>
<stop offset="1" stop-color="#346448" stop-opacity="0"/>
</linearGradient>
<linearGradient id="paint19_linear_2987_26566" x1="65.3324" y1="51.5768" x2="45.3325" y2="32.0799" gradientUnits="userSpaceOnUse">
<stop stop-color="#346448"/>
<stop offset="0.629865" stop-color="#346448" stop-opacity="0.13"/>
<stop offset="1" stop-color="#346448" stop-opacity="0"/>
</linearGradient>
<linearGradient id="paint20_linear_2987_26566" x1="0.0707735" y1="3.23602" x2="6.73554" y2="8.35202" gradientUnits="userSpaceOnUse">
<stop offset="0.122721" stop-color="#346448" stop-opacity="0.53"/>
<stop offset="0.575129" stop-color="#346448" stop-opacity="0.96"/>
<stop offset="1" stop-color="#346448"/>
</linearGradient>
<linearGradient id="paint21_linear_2987_26566" x1="0.484896" y1="5.02545" x2="8.89177" y2="4.87418" gradientUnits="userSpaceOnUse">
<stop stop-color="#346448"/>
<stop offset="0.501301" stop-color="#346448" stop-opacity="0.83"/>
<stop offset="1" stop-color="#346448" stop-opacity="0"/>
</linearGradient>
<linearGradient id="paint22_linear_2987_26566" x1="0.0707735" y1="3.23602" x2="6.58408" y2="4.70454" gradientUnits="userSpaceOnUse">
<stop stop-color="#346448" stop-opacity="0.53"/>
<stop offset="0.513594" stop-color="#346448"/>
<stop offset="1" stop-color="#346448"/>
</linearGradient>
<linearGradient id="paint23_linear_2987_26566" x1="0.484896" y1="5.02545" x2="8.89177" y2="4.87418" gradientUnits="userSpaceOnUse">
<stop stop-color="#346448"/>
<stop offset="0.501301" stop-color="#346448" stop-opacity="0.83"/>
<stop offset="1" stop-color="#346448" stop-opacity="0"/>
</linearGradient>
<linearGradient id="paint24_linear_2987_26566" x1="-0.782522" y1="4.03602" x2="7.7378" y2="6.97781" gradientUnits="userSpaceOnUse">
<stop stop-color="#346448" stop-opacity="0"/>
<stop offset="0.355762" stop-color="#346448" stop-opacity="0.83"/>
<stop offset="0.555208" stop-color="#346448"/>
</linearGradient>
</defs>
</svg>
