<svg width="138" height="82" viewBox="0 0 138 82" fill="none" xmlns="http://www.w3.org/2000/svg">
<path d="M-9.75119 -50.944C16.3681 -28.4743 77.0114 20.5542 110.63 36.9105" stroke="url(#paint0_linear_2987_26446)" stroke-width="3"/>
<path d="M-0.168077 67.6724L-3.93661 71.9048L-5.65938 66.6221C-6.18668 65.0052 -6.37124 63.1051 -7.35469 61.7175C-8.46158 60.1558 -10.2969 58.3431 -11.4687 57.2998C-17.2271 52.1725 -19.6289 44.1936 -20.3424 39.4108C-20.543 38.0661 -20.2336 36.6962 -20.1015 35.3431C-19.7175 31.4079 -20.7917 24.1279 -21.7209 19.2018C-21.9822 17.8161 -21.4847 16.4098 -20.7058 15.2343C-18.3625 11.698 -17.5834 6.34263 -17.4984 3.7498C-12.9747 -16.2339 4.42299 -24.1229 12.5564 -25.5694C27.2869 -15.8727 31.1934 -0.224299 31.4304 8.39533C31.4768 10.084 31.046 11.7359 30.3793 13.2881L29.0225 16.4465C28.6384 17.3407 28.4207 18.2976 28.38 19.2701L27.8157 32.7799C27.7673 33.9371 27.3851 35.0555 26.7152 36.0002L22.5762 41.8369C21.9195 42.7631 21.6504 43.8959 21.4251 45.0087C20.1631 51.2411 11.019 59.0092 4.58605 63.5242C2.85819 64.737 1.23569 66.0958 -0.168077 67.6724Z" fill="url(#paint1_linear_2987_26446)"/>
<line y1="-0.5" x2="98.5478" y2="-0.5" transform="matrix(0.171831 -0.985126 -0.985126 -0.171831 -4.3772 71.5125)" stroke="#346448"/>
<line y1="-0.5" x2="29.3939" y2="-0.5" transform="matrix(-0.740623 -0.671921 -0.671921 0.740623 31.3384 10.1103)" stroke="#346448"/>
<line y1="-0.5" x2="29.0195" y2="-0.5" transform="matrix(0.928787 -0.370613 -0.370613 -0.928787 -16.8586 0.369934)" stroke="#346448"/>
<line y1="-0.5" x2="29.5609" y2="-0.5" transform="matrix(0.929799 -0.368067 -0.368067 -0.929799 -21.0364 24.1051)" stroke="#346448"/>
<line y1="-0.5" x2="29.4953" y2="-0.5" transform="matrix(-0.746853 -0.66499 -0.66499 0.746853 27.6934 33.7198)" stroke="#346448"/>
<line y1="-0.5" x2="22.3553" y2="-0.5" transform="matrix(0.92354 -0.383501 -0.383501 -0.92354 -18.6262 46.2888)" stroke="#346448"/>
<line y1="-0.5" x2="21.2366" y2="-0.5" transform="matrix(-0.746853 -0.66499 -0.66499 0.746853 17.8804 51.8375)" stroke="#346448"/>
<path d="M106.159 -59.1122L111.543 -57.3423L107.384 -53.6572C106.111 -52.5293 104.442 -51.6029 103.561 -50.148C102.57 -48.5105 101.638 -46.1048 101.148 -44.6144C98.7403 -37.2897 92.3793 -31.9075 88.2768 -29.3473C87.1235 -28.6275 85.7437 -28.3654 84.4501 -27.9474C80.6877 -26.7315 74.4387 -22.8454 70.2908 -20.0303C69.124 -19.2384 67.636 -19.1343 66.2474 -19.3803C62.0703 -20.1204 56.848 -18.7011 54.436 -17.7458C34.3048 -13.932 20.1367 -26.7453 15.569 -33.6287C18.593 -51.0031 31.3888 -60.8216 39.2001 -64.4735C40.7304 -65.189 42.4172 -65.4521 44.1065 -65.4591L47.5439 -65.4733C48.5172 -65.4773 49.4816 -65.6588 50.3897 -66.0091L63.0056 -70.8747C64.0861 -71.2915 65.2642 -71.3866 66.3976 -71.1486L73.4002 -69.6782C74.5114 -69.4449 75.6576 -69.6495 76.768 -69.8862C82.9871 -71.2122 93.7555 -65.9207 100.46 -61.8197C102.261 -60.7182 104.154 -59.7715 106.159 -59.1122Z" fill="url(#paint2_linear_2987_26446)"/>
<ellipse cx="6.94074" cy="8.52827" rx="6.94074" ry="8.52827" transform="matrix(0.89868 -0.438605 -0.438605 -0.89868 46.405 10.4551)" fill="url(#paint3_linear_2987_26446)"/>
<ellipse cx="6.94074" cy="8.52827" rx="6.94074" ry="8.52827" transform="matrix(0.128891 -0.991659 -0.991659 -0.128891 97.6375 25.8183)" fill="url(#paint4_linear_2987_26446)"/>
<ellipse cx="6.94074" cy="8.52827" rx="6.94074" ry="8.52827" transform="matrix(0.989382 -0.145338 -0.145338 -0.989382 29.1096 11.4108)" fill="url(#paint5_linear_2987_26446)"/>
<ellipse cx="6.94074" cy="8.52827" rx="6.94074" ry="8.52827" transform="matrix(0.989382 -0.145338 -0.145338 -0.989382 15.4785 1.23593)" fill="url(#paint6_linear_2987_26446)"/>
<ellipse cx="1.23045" cy="0.492181" rx="1.23045" ry="0.492181" transform="matrix(0.878339 -0.478038 -0.478038 -0.878339 50.8499 6.85295)" fill="#346448"/>
<ellipse cx="1.23045" cy="0.492181" rx="1.23045" ry="0.492181" transform="matrix(0.0847744 -0.9964 -0.9964 -0.0847744 97.0791 20.1242)" fill="#346448"/>
<ellipse cx="1.14101" cy="0.492181" rx="1.14101" ry="0.492181" transform="matrix(0.998102 -0.0615894 -0.0615894 -0.998102 34.4709 8.98778)" fill="#346448"/>
<path d="M77.219 20.2399L63.5955 73.5959C68.2128 74.0508 71.2222 70.1158 72.1497 68.0914C75.1006 68.2079 77.375 63.7213 78.1434 61.4634C80.3801 61.4349 81.6802 55.7447 82.0507 52.9031C84.9962 50.6046 85.7215 44.9988 85.7159 42.4832C90.8794 31.7038 82.2027 23.1629 77.219 20.2399Z" fill="url(#paint7_linear_2987_26446)"/>
<line y1="-0.5" x2="9.80319" y2="-0.5" transform="matrix(0.600031 0.799977 0.799977 -0.600031 66.9082 60.6905)" stroke="#346448"/>
<line y1="-0.5" x2="14.8661" y2="-0.5" transform="matrix(0.714386 0.699751 0.699751 -0.714386 68.4268 51.3585)" stroke="#346448"/>
<line y1="-0.5" x2="17.0294" y2="-0.5" transform="matrix(0.738811 0.673912 0.673912 -0.738811 70.7976 41.4399)" stroke="#346448"/>
<line y1="-0.5" x2="18.3848" y2="-0.5" transform="matrix(0.680294 0.732939 0.732939 -0.680294 74.2422 29.5599)" stroke="#346448"/>
<path d="M79.6302 16.499L107.86 -30.7827C111.438 -27.8292 110.769 -22.9207 109.988 -20.8356C112.151 -18.8252 110.573 -14.0489 109.514 -11.9121C111.071 -10.3058 107.953 -5.37177 106.199 -3.10551C106.646 0.603882 103.182 5.07077 101.394 6.84054C97.3913 18.1026 85.2169 17.972 79.6302 16.499Z" fill="url(#paint8_linear_2987_26446)"/>
<line x1="84.1229" y1="7.31687" x2="102.497" y2="6.68464" stroke="#346448"/>
<path d="M96.2622 26.0689L129.707 8.14529C130.774 11.1591 128.638 13.8221 127.437 14.7768C128.002 16.7317 125.376 18.994 123.993 19.8808C124.343 21.3819 120.751 23.1911 118.911 23.9081C117.86 26.2582 114.229 27.6689 112.546 28.0805C106.187 33.3147 99.0406 28.9203 96.2622 26.0689Z" fill="url(#paint9_linear_2987_26446)"/>
<line x1="121.816" y1="12.032" x2="128.033" y2="14.6722" stroke="#346448"/>
<line x1="115.891" y1="14.6236" x2="124.604" y2="20.0107" stroke="#346448"/>
<line x1="109.662" y1="17.857" x2="119.417" y2="24.3789" stroke="#346448"/>
<line x1="102.248" y1="22.1012" x2="113.328" y2="28.2434" stroke="#346448"/>
<ellipse cx="6.94074" cy="8.52827" rx="6.94074" ry="8.52827" transform="matrix(0.888864 -0.458171 -0.458171 -0.888864 78.5527 36.6834)" fill="url(#paint10_linear_2987_26446)"/>
<ellipse cx="1.14101" cy="0.492181" rx="1.14101" ry="0.492181" transform="matrix(0.924257 -0.38177 -0.38177 -0.924257 82.8391 32.6536)" fill="#346448"/>
<defs>
<linearGradient id="paint0_linear_2987_26446" x1="110.633" y1="36.4526" x2="-17.893" y2="-54.781" gradientUnits="userSpaceOnUse">
<stop stop-color="#346448" stop-opacity="0"/>
<stop offset="0.111969" stop-color="#346448"/>
<stop offset="0.488839" stop-color="white" stop-opacity="0"/>
<stop offset="0.777099" stop-color="white" stop-opacity="0"/>
<stop offset="0.813607" stop-color="white" stop-opacity="0.53"/>
<stop offset="1" stop-color="white" stop-opacity="0"/>
</linearGradient>
<linearGradient id="paint1_linear_2987_26446" x1="-2.59378" y1="71.5827" x2="10.7722" y2="-23.4443" gradientUnits="userSpaceOnUse">
<stop stop-color="white"/>
<stop offset="0.0001" stop-color="#346448"/>
<stop offset="0.691238" stop-color="#346448" stop-opacity="0.17"/>
<stop offset="1" stop-color="#346448" stop-opacity="0"/>
</linearGradient>
<linearGradient id="paint2_linear_2987_26446" x1="110.712" y1="-58.4456" x2="18.2291" y2="-32.8391" gradientUnits="userSpaceOnUse">
<stop stop-color="white"/>
<stop offset="0.0001" stop-color="#346448"/>
<stop offset="0.691238" stop-color="#346448" stop-opacity="0.17"/>
<stop offset="1" stop-color="#346448" stop-opacity="0"/>
</linearGradient>
<linearGradient id="paint3_linear_2987_26446" x1="0.275495" y1="3.59166" x2="16.8416" y2="9.23202" gradientUnits="userSpaceOnUse">
<stop stop-color="#346448"/>
<stop offset="0.501301" stop-color="#346448" stop-opacity="0.83"/>
<stop offset="1" stop-color="#346448" stop-opacity="0"/>
</linearGradient>
<linearGradient id="paint4_linear_2987_26446" x1="0.918427" y1="9.51855" x2="16.8416" y2="9.23202" gradientUnits="userSpaceOnUse">
<stop stop-color="#346448"/>
<stop offset="0.501301" stop-color="#346448" stop-opacity="0.83"/>
<stop offset="1" stop-color="#346448" stop-opacity="0"/>
</linearGradient>
<linearGradient id="paint5_linear_2987_26446" x1="0.13405" y1="6.12924" x2="12.7576" y2="15.8193" gradientUnits="userSpaceOnUse">
<stop offset="0.306288" stop-color="#346448"/>
<stop offset="0.575129" stop-color="#346448" stop-opacity="0.74"/>
<stop offset="1" stop-color="#346448" stop-opacity="0"/>
</linearGradient>
<linearGradient id="paint6_linear_2987_26446" x1="13.6279" y1="7.0057" x2="1.42803" y2="16.4747" gradientUnits="userSpaceOnUse">
<stop offset="0.377108" stop-color="#346448" stop-opacity="0.98"/>
<stop offset="0.644594" stop-color="#346448" stop-opacity="0.73"/>
<stop offset="1" stop-color="#346448" stop-opacity="0"/>
</linearGradient>
<linearGradient id="paint7_linear_2987_26446" x1="64.3653" y1="74.0839" x2="79.7508" y2="19.6915" gradientUnits="userSpaceOnUse">
<stop stop-color="#346448"/>
<stop offset="0.629865" stop-color="#346448" stop-opacity="0.13"/>
<stop offset="1" stop-color="#346448" stop-opacity="0"/>
</linearGradient>
<linearGradient id="paint8_linear_2987_26446" x1="108.749" y1="-30.5809" x2="81.0265" y2="18.681" gradientUnits="userSpaceOnUse">
<stop stop-color="#346448"/>
<stop offset="0.629865" stop-color="#346448" stop-opacity="0.13"/>
<stop offset="1" stop-color="#346448" stop-opacity="0"/>
</linearGradient>
<linearGradient id="paint9_linear_2987_26446" x1="130.161" y1="8.57975" x2="96.3134" y2="27.8532" gradientUnits="userSpaceOnUse">
<stop stop-color="#346448"/>
<stop offset="0.629865" stop-color="#346448" stop-opacity="0.13"/>
<stop offset="1" stop-color="#346448" stop-opacity="0"/>
</linearGradient>
<linearGradient id="paint10_linear_2987_26446" x1="0.13405" y1="6.12924" x2="12.7576" y2="15.8193" gradientUnits="userSpaceOnUse">
<stop offset="0.122721" stop-color="#346448" stop-opacity="0.53"/>
<stop offset="0.575129" stop-color="#346448" stop-opacity="0.96"/>
<stop offset="1" stop-color="#346448"/>
</linearGradient>
</defs>
</svg>
