<svg width="32" height="32" viewBox="0 0 32 32" fill="none" xmlns="http://www.w3.org/2000/svg">
<mask id="mask0_4049_13197" style="mask-type:alpha" maskUnits="userSpaceOnUse" x="0" y="0" width="32" height="32">
<rect width="32" height="32" fill="#D9D9D9"/>
</mask>
<g mask="url(#mask0_4049_13197)">
<path d="M8 23V9V13.475V13V23ZM10 17H15.525C15.5583 16.6333 15.6417 16.2833 15.775 15.95C15.9083 15.6167 16.075 15.3 16.275 15H10V17ZM10 21H13.925C14.2083 20.6667 14.5333 20.3958 14.9 20.1875C15.2667 19.9792 15.65 19.8083 16.05 19.675C15.9833 19.575 15.925 19.4667 15.875 19.35C15.825 19.2333 15.7833 19.1167 15.75 19H10V21ZM10 13H20V11H10V13ZM8 25C7.45 25 6.97917 24.8042 6.5875 24.4125C6.19583 24.0208 6 23.55 6 23V9C6 8.45 6.19583 7.97917 6.5875 7.5875C6.97917 7.19583 7.45 7 8 7H22C22.55 7 23.0208 7.19583 23.4125 7.5875C23.8042 7.97917 24 8.45 24 9V15.45C23.7667 15.0167 23.4833 14.6333 23.15 14.3C22.8167 13.9667 22.4333 13.6917 22 13.475V9H8V23H13.05C13.0333 23.1 13.0208 23.2 13.0125 23.3C13.0042 23.4 13 23.5 13 23.6V25H8ZM20 20C19.3 20 18.7083 19.7583 18.225 19.275C17.7417 18.7917 17.5 18.2 17.5 17.5C17.5 16.8 17.7417 16.2083 18.225 15.725C18.7083 15.2417 19.3 15 20 15C20.7 15 21.2917 15.2417 21.775 15.725C22.2583 16.2083 22.5 16.8 22.5 17.5C22.5 18.2 22.2583 18.7917 21.775 19.275C21.2917 19.7583 20.7 20 20 20ZM15 25V23.6C15 23.2 15.1042 22.8292 15.3125 22.4875C15.5208 22.1458 15.8167 21.9 16.2 21.75C16.8 21.5 17.4208 21.3125 18.0625 21.1875C18.7042 21.0625 19.35 21 20 21C20.65 21 21.2958 21.0625 21.9375 21.1875C22.5792 21.3125 23.2 21.5 23.8 21.75C24.1833 21.9 24.4792 22.1458 24.6875 22.4875C24.8958 22.8292 25 23.2 25 23.6V25H15Z" fill="white"/>
</g>
</svg>
