<svg width="48" height="48" viewBox="0 0 48 48" fill="none" xmlns="http://www.w3.org/2000/svg">
<g id="delivery 1">
<g id="Group 2624">
<path id="Vector" d="M23.2563 40.7644C22.5433 40.7644 21.6428 40.5229 19.8394 39.5298C18.8155 38.9645 17.8265 38.3379 16.8781 37.6535L12.6905 38.9094C12.5763 38.9435 12.4557 38.9503 12.3385 38.9292C12.2212 38.9081 12.1105 38.8597 12.0154 38.7879C9.75809 37.0885 7.99699 34.8156 6.91512 32.2054C6.86889 32.094 6.84987 31.9732 6.85964 31.8529C6.86941 31.7327 6.90768 31.6165 6.97128 31.514C7.03489 31.4116 7.12199 31.3257 7.22539 31.2636C7.32878 31.2014 7.44549 31.1648 7.56585 31.1568C9.76435 31.0195 11.9182 30.4747 13.9175 29.5501C14.6118 29.2264 15.284 28.8573 15.9297 28.4453C16.8237 27.8183 17.7691 27.2681 18.7559 26.8006C19.3645 26.5353 19.9876 26.3046 20.6223 26.1096C20.6792 26.0944 20.7749 26.0686 20.8987 26.0322L21.0255 25.9927C21.1477 25.9547 21.2609 25.919 21.5304 25.8484C21.7863 25.7824 22.1303 25.6988 22.5555 25.6115C23.5186 25.3807 24.5116 25.2997 25.4994 25.3716C25.9407 25.404 26.3774 25.4826 26.8023 25.6062C27.3658 25.7748 27.8707 25.9805 28.3589 26.1787C28.8834 26.4034 29.4201 26.5986 29.9664 26.7634C30.4374 26.8982 30.9207 26.9855 31.4091 27.0238C31.8928 27.0702 32.4949 27.1279 32.7561 27.7672C32.8342 27.9834 32.862 28.2145 32.8374 28.4431C32.8127 28.6716 32.7364 28.8915 32.6141 29.0861C32.2812 29.7342 31.739 30.2506 31.0756 30.5518C30.4122 30.853 29.6666 30.9211 28.9596 30.7452C28.75 30.7134 28.5594 30.6769 28.384 30.6359C28.645 30.8234 28.9185 30.9928 29.2025 31.1431C30.2779 31.7098 31.4801 31.9929 32.6954 31.9655L34.9885 31.9647C35.1764 31.9649 35.3575 32.0346 35.4969 32.1606C35.6363 32.2865 35.7241 32.4597 35.7433 32.6466C35.8188 33.2602 35.7118 33.8824 35.4358 34.4355C34.7144 35.8342 32.9072 36.5449 30.8707 36.2564C29.317 37.4671 27.7215 38.6232 26.0871 39.7226C25.3179 40.3141 24.3959 40.6739 23.4295 40.7599C23.3718 40.7628 23.3141 40.7643 23.2563 40.7644ZM17.0216 36.0582C17.1843 36.0583 17.3427 36.1108 17.4734 36.2078C18.4604 36.9401 19.4954 37.6055 20.5714 38.1994C22.5456 39.286 23.0885 39.2564 23.349 39.2435C24.041 39.1691 24.6972 38.8976 25.2397 38.4614C26.9361 37.3203 28.59 36.1172 30.198 34.8547C30.2836 34.7873 30.3828 34.7393 30.4886 34.7139C30.5945 34.6885 30.7047 34.6862 30.8115 34.7074C32.2724 34.9913 33.6498 34.5843 34.0857 33.74C34.1278 33.6581 34.1614 33.5721 34.1859 33.4833H32.7136C31.2956 33.5149 29.8917 33.196 28.6265 32.5549C27.3612 31.9138 26.2738 30.9704 25.4606 29.8083C25.1358 29.7863 24.8098 29.7865 24.4849 29.809C24.3482 29.8189 24.2343 29.8303 24.1584 29.8394C23.9583 29.8625 23.7573 29.8053 23.5994 29.6802C23.4416 29.5551 23.3399 29.3724 23.3167 29.1723C23.2935 28.9723 23.3508 28.7712 23.4759 28.6133C23.601 28.4555 23.7837 28.3538 23.9838 28.3306C24.0749 28.32 24.2116 28.3063 24.3801 28.2942C24.9101 28.2582 25.4423 28.2701 25.9701 28.3299L25.9846 28.3314C26.5446 28.4027 27.0913 28.5554 27.6072 28.7847C28.1128 29.0058 28.645 29.1602 29.1904 29.2441C29.4615 29.3133 29.7431 29.3321 30.0211 29.2995C30.4835 29.1809 30.8918 28.9086 31.179 28.5273C30.6269 28.4785 30.0807 28.3768 29.548 28.2236C28.9494 28.0439 28.3613 27.831 27.7864 27.5857C27.3103 27.3914 26.8608 27.2091 26.3665 27.0611C26.0426 26.9674 25.7097 26.9084 25.3733 26.8849C24.5292 26.8273 23.6813 26.8998 22.8592 27.0998C22.4659 27.1803 22.1477 27.2577 21.9116 27.3185C21.68 27.3792 21.5836 27.4096 21.4788 27.4415L21.3338 27.487C21.1895 27.5295 21.0779 27.5599 21.0323 27.5713C20.4711 27.7464 19.9195 27.9512 19.38 28.1848C18.4727 28.6183 17.6028 29.1262 16.7794 29.7035C16.0671 30.16 15.3252 30.5685 14.5584 30.926C12.7218 31.778 10.7617 32.3334 8.75114 32.5714C9.68209 34.4241 11.005 36.052 12.6282 37.3422L16.8037 36.0908C16.8744 36.0696 16.9478 36.0581 17.0216 36.0582Z" fill="black"/>
<path id="Vector_2" d="M40.2665 33.433H31.6027C31.4014 33.433 31.2082 33.353 31.0658 33.2106C30.9234 33.0682 30.8434 32.875 30.8434 32.6737C30.8434 32.4723 30.9234 32.2791 31.0658 32.1367C31.2082 31.9943 31.4014 31.9143 31.6027 31.9143H39.5072V8.37556H14.4498V30.4868C14.4498 30.6882 14.3698 30.8813 14.2274 31.0237C14.085 31.1661 13.8919 31.2461 13.6905 31.2461C13.4891 31.2461 13.296 31.1661 13.1536 31.0237C13.0112 30.8813 12.9312 30.6882 12.9312 30.4868V7.61625C12.9312 7.41487 13.0112 7.22173 13.1536 7.07933C13.296 6.93693 13.4891 6.85693 13.6905 6.85693H40.2665C40.4679 6.85693 40.661 6.93693 40.8034 7.07933C40.9458 7.22173 41.0258 7.41487 41.0258 7.61625V32.6737C41.0258 32.875 40.9458 33.0682 40.8034 33.2106C40.661 33.353 40.4679 33.433 40.2665 33.433Z" fill="black"/>
<path id="Vector_3" d="M30.0158 14.4501H23.9413C23.7399 14.4501 23.5467 14.3701 23.4043 14.2277C23.2619 14.0853 23.1819 13.8922 23.1819 13.6908V7.61625C23.1819 7.41487 23.2619 7.22173 23.4043 7.07933C23.5467 6.93693 23.7399 6.85693 23.9413 6.85693H30.0158C30.2172 6.85693 30.4103 6.93693 30.5527 7.07933C30.6951 7.22173 30.7751 7.41487 30.7751 7.61625V13.6908C30.7751 13.8922 30.6951 14.0853 30.5527 14.2277C30.4103 14.3701 30.2172 14.4501 30.0158 14.4501ZM24.7006 12.9315H29.2565V8.37556H24.7006V12.9315Z" fill="black"/>
</g>
</g>
</svg>
