<svg width="48" height="48" viewBox="0 0 48 48" fill="none" xmlns="http://www.w3.org/2000/svg">
<g id="delivery-truck 1">
<g id="Group 2625">
<path id="Vector" d="M36.6222 25.1361H41.0152C41.3375 25.1361 41.6269 24.9849 41.8094 24.7213C42.0329 24.3983 42.0621 23.95 41.8894 23.4914L41.8533 23.3956L41.7933 23.3128C41.7866 23.3036 41.118 22.3828 40.4313 21.4738C40.025 20.9359 39.6907 20.5059 39.4378 20.1956C38.9695 19.6209 38.7259 19.3448 38.3087 19.3448H36.6222C36.2308 19.3448 35.8742 19.5818 35.6683 19.9788C35.5365 20.233 35.4668 20.5402 35.4668 20.8673V23.6135C35.4668 23.9406 35.5365 24.2478 35.6683 24.502C35.8742 24.8991 36.2308 25.1361 36.6222 25.1361ZM36.9864 23.6135V20.8673C36.9864 20.8663 36.9864 20.8653 36.9864 20.8643H38.0171C38.3912 21.2905 39.2848 22.4628 40.1333 23.6166H36.9864C36.9864 23.6156 36.9864 23.6145 36.9864 23.6135ZM4.94967 17.8833L8.47545 17.8833C8.89504 17.8833 9.23523 17.5432 9.23523 17.1236C9.23523 16.704 8.89507 16.3638 8.47545 16.3638L4.94967 16.3638C4.53009 16.3638 4.18989 16.7039 4.18989 17.1235C4.18989 17.5432 4.53005 17.8833 4.94967 17.8833ZM9.23523 21.1404C9.23523 20.7208 8.89507 20.3806 8.47545 20.3806L1.5475 20.3806C1.12791 20.3806 0.78772 20.7208 0.78772 21.1403C0.78772 21.56 1.12788 21.9001 1.5475 21.9001L8.47545 21.9001C8.89504 21.9001 9.23523 21.5599 9.23523 21.1404ZM9.23523 25.1572C9.23523 24.7376 8.89507 24.3974 8.47545 24.3974L4.94967 24.3974C4.53009 24.3974 4.18989 24.7376 4.18989 25.1572C4.18989 25.5768 4.53005 25.917 4.94967 25.917L8.47545 25.917C8.89504 25.917 9.23523 25.5768 9.23523 25.1572Z" fill="black"/>
<path id="Vector_2" d="M17.0204 32.4705C17.6097 32.4705 18.0874 31.9928 18.0874 31.4035C18.0874 30.8141 17.6097 30.3364 17.0204 30.3364C16.4311 30.3364 15.9534 30.8141 15.9534 31.4035C15.9534 31.9928 16.4311 32.4705 17.0204 32.4705Z" fill="black"/>
<path id="Vector_3" d="M39.2193 32.4705C39.8086 32.4705 40.2863 31.9928 40.2863 31.4035C40.2863 30.8142 39.8086 30.3364 39.2193 30.3364C38.63 30.3364 38.1523 30.8142 38.1523 31.4035C38.1523 31.9928 38.63 32.4705 39.2193 32.4705Z" fill="black"/>
<path id="Vector_4" d="M46.509 28.8498C46.1463 28.5913 45.6815 28.4453 45.1953 28.4355V23.3637C45.1953 23.0206 45.0472 22.5824 44.8352 22.2981L40.6649 16.7081C40.4074 16.363 39.9083 16.122 39.451 16.122H34.1976V13.5347C34.1976 12.8775 33.6793 12.3428 33.0423 12.3428H11.2051C10.568 12.3428 10.0497 12.8775 10.0497 13.5347V28.4355C9.56348 28.4453 9.09873 28.5913 8.73601 28.8498C8.28907 29.1685 8.03275 29.6342 8.03275 30.1276V30.47C8.03275 30.9634 8.28908 31.4291 8.73602 31.7477C9.11163 32.0155 9.59659 32.163 10.1016 32.163H14.0211C14.3606 33.5028 15.5765 34.497 17.0204 34.497C18.4643 34.497 19.6802 33.5028 20.0197 32.163H36.2199C36.5595 33.5028 37.7754 34.497 39.2193 34.497C40.6632 34.497 41.8791 33.5028 42.2186 32.163H45.1434C45.6484 32.163 46.1334 32.0155 46.509 31.7477C46.9559 31.4291 47.2123 30.9634 47.2123 30.47V30.1276C47.2122 29.6342 46.9559 29.1685 46.509 28.8498ZM39.4393 17.6415C39.4494 17.6439 39.4637 17.6493 39.4755 17.655L43.6157 23.2046C43.6383 23.2394 43.6703 23.3288 43.6758 23.3721V28.4346H41.5656H40.0909C39.8143 28.3532 39.5218 28.3094 39.2193 28.3094C38.9167 28.3094 38.6243 28.3532 38.3477 28.4346H36.935L34.1976 28.4298V17.6415L39.4393 17.6415ZM19.7532 29.9541H36.4865C36.3715 30.1701 36.2813 30.4011 36.2199 30.6434H20.0197C19.9583 30.4011 19.8681 30.1701 19.7532 29.9541ZM11.5692 13.8623H32.6781V17.2125V28.4178H19.3544V28.4346H17.892C17.6154 28.3532 17.323 28.3094 17.0204 28.3094C16.7179 28.3094 16.4254 28.3532 16.1488 28.4346H14.6863V28.4178H11.5692V13.8623ZM9.5523 30.45V30.1476C9.59424 30.084 9.79022 29.9541 10.1016 29.9541H14.2876C14.1727 30.1701 14.0825 30.4011 14.0211 30.6434H10.1016C9.7902 30.6434 9.59422 30.5136 9.5523 30.45ZM17.0204 32.9775C16.1523 32.9775 15.4461 32.2713 15.4461 31.4032C15.4461 30.5352 16.1523 29.8289 17.0204 29.8289C17.2356 29.8289 17.4407 29.8724 17.6277 29.9509V29.9541H17.6354C18.1987 30.1941 18.5947 30.7533 18.5947 31.4032C18.5947 32.2713 17.8885 32.9775 17.0204 32.9775ZM39.2193 32.9775C38.3512 32.9775 37.645 32.2713 37.645 31.4032C37.645 30.5352 38.3512 29.8289 39.2193 29.8289C40.0873 29.8289 40.7936 30.5352 40.7936 31.4032C40.7936 32.2713 40.0873 32.9775 39.2193 32.9775ZM45.6927 30.45C45.6508 30.5136 45.4548 30.6434 45.1434 30.6434H42.2186C42.1572 30.4011 42.067 30.1701 41.952 29.9541H44.0195C44.033 29.9543 44.0481 29.9545 44.0648 29.9545C44.0768 29.9545 44.0897 29.9544 44.1033 29.9541H45.1434C45.4548 29.9541 45.6508 30.084 45.6927 30.1476L45.6927 30.45Z" fill="black"/>
</g>
</g>
</svg>
