<svg width="24" height="24" viewBox="0 0 24 24" fill="none" xmlns="http://www.w3.org/2000/svg">
<path fill-rule="evenodd" clip-rule="evenodd" d="M11.1895 3.1714C11.7635 2.94294 12.4035 2.94279 12.9775 3.1714H12.9785L19.6436 5.83741C20.0911 6.01567 20.4758 6.32412 20.7471 6.72218C21.0182 7.12031 21.1649 7.59108 21.167 8.07276V17.7847C21.1669 18.4254 20.9119 19.0405 20.459 19.4937C20.0059 19.9467 19.3908 20.2006 18.75 20.2007H7.10254C7.09605 20.2009 7.08954 20.2017 7.08301 20.2017C7.07648 20.2017 7.06997 20.2009 7.06348 20.2007H5.41699C4.77618 20.2007 4.16119 19.9467 3.70801 19.4937C3.25487 19.0405 3.00006 18.4255 3 17.7847V8.07276L3.00781 7.89308C3.04083 7.47489 3.18164 7.0706 3.41895 6.72218C3.69023 6.32408 4.0749 6.01566 4.52246 5.83741L11.1885 3.1714H11.1895ZM12.4229 4.56495C12.2052 4.47827 11.9618 4.47838 11.7441 4.56495L11.7432 4.56398L5.07812 7.23097H5.07715C4.90758 7.29855 4.76203 7.4161 4.65918 7.56691C4.55635 7.71788 4.50082 7.89694 4.5 8.0796V17.7847C4.50006 18.0277 4.59673 18.2613 4.76855 18.4331C4.94044 18.6049 5.174 18.7007 5.41699 18.7007H6.33301V8.61866C6.33301 8.20445 6.66879 7.86866 7.08301 7.86866H17.083C17.4972 7.86866 17.833 8.20445 17.833 8.61866V13.6187C17.8328 14.0327 17.4971 14.3687 17.083 14.3687C16.6689 14.3687 16.3332 14.0327 16.333 13.6187V12.98H7.83301V18.7007H18.75C18.9929 18.7006 19.2266 18.6049 19.3984 18.4331C19.5701 18.2613 19.6669 18.0275 19.667 17.7847V8.0796L19.6562 7.94288C19.6355 7.80879 19.5848 7.68001 19.5078 7.56691C19.4049 7.41592 19.2586 7.29859 19.0889 7.23097H19.0879L12.4229 4.56398V4.56495ZM15.0625 14.0982C15.2577 13.9029 15.5743 13.903 15.7695 14.0982L17.4365 15.7651C17.6315 15.9604 17.6317 16.277 17.4365 16.4722L15.7695 18.1382C15.5743 18.3332 15.2577 18.3334 15.0625 18.1382C14.8676 17.943 14.8675 17.6264 15.0625 17.4312L15.874 16.6187H11.25C10.974 16.6187 10.7502 16.3946 10.75 16.1187C10.75 15.8425 10.9739 15.6187 11.25 15.6187H15.876L15.0625 14.8052C14.8674 14.61 14.8675 14.2934 15.0625 14.0982ZM7.83301 11.2017H16.333V9.36866H7.83301V11.2017Z" fill="#346448"/>
</svg>
