<svg width="22" height="22" viewBox="0 0 22 22" fill="none" xmlns="http://www.w3.org/2000/svg">
<g id="eye-off" clip-path="url(#clip0_2987_25417)">
<path id="Vector" d="M16.4451 16.445C14.8781 17.6394 12.9701 18.3011 11.0001 18.3333C4.58341 18.3333 0.916748 11 0.916748 11C2.05698 8.87508 3.63846 7.01857 5.55508 5.55501M9.07508 3.88668C9.70605 3.73899 10.3521 3.66516 11.0001 3.66668C17.4167 3.66668 21.0834 11 21.0834 11C20.527 12.041 19.8634 13.021 19.1034 13.9242M12.9434 12.9433C12.6917 13.2135 12.3881 13.4302 12.0507 13.5805C11.7134 13.7308 11.3492 13.8117 10.98 13.8182C10.6108 13.8247 10.244 13.7568 9.90156 13.6185C9.55913 13.4802 9.24808 13.2743 8.98694 13.0132C8.7258 12.752 8.51994 12.441 8.38163 12.0985C8.24332 11.7561 8.1754 11.3893 8.18191 11.0201C8.18843 10.6509 8.26925 10.2867 8.41955 9.94937C8.56985 9.61204 8.78656 9.30844 9.05675 9.05668" stroke="#346448" stroke-width="2" stroke-linecap="round" stroke-linejoin="round"/>
<path id="Vector_2" d="M0.916748 0.916656L21.0834 21.0833" stroke="#346448" stroke-width="2" stroke-linecap="round" stroke-linejoin="round"/>
</g>
<defs>
<clipPath id="clip0_2987_25417">
<rect width="22" height="22" fill="white"/>
</clipPath>
</defs>
</svg>
