<svg width="33" height="32" viewBox="0 0 33 32" fill="none" xmlns="http://www.w3.org/2000/svg">
<mask id="mask0_4049_13191" style="mask-type:alpha" maskUnits="userSpaceOnUse" x="0" y="0" width="33" height="32">
<rect x="0.5" width="32" height="32" fill="#D9D9D9"/>
</mask>
<g mask="url(#mask0_4049_13191)">
<path d="M6 24V20C6 19.4333 6.19583 18.9583 6.5875 18.575C6.97917 18.1917 7.45 18 8 18H11.275C11.6083 18 11.925 18.0833 12.225 18.25C12.525 18.4167 12.7667 18.6417 12.95 18.925C13.4333 19.575 14.0292 20.0833 14.7375 20.45C15.4458 20.8167 16.2 21 17 21C17.8167 21 18.5792 20.8167 19.2875 20.45C19.9958 20.0833 20.5833 19.575 21.05 18.925C21.2667 18.6417 21.5208 18.4167 21.8125 18.25C22.1042 18.0833 22.4083 18 22.725 18H26C26.5667 18 27.0417 18.1917 27.425 18.575C27.8083 18.9583 28 19.4333 28 20V24H21V21.725C20.4167 22.1417 19.7875 22.4583 19.1125 22.675C18.4375 22.8917 17.7333 23 17 23C16.2833 23 15.5833 22.8875 14.9 22.6625C14.2167 22.4375 13.5833 22.1167 13 21.7V24H6ZM17 20C16.3667 20 15.7667 19.8542 15.2 19.5625C14.6333 19.2708 14.1583 18.8667 13.775 18.35C13.4917 17.9333 13.1375 17.6042 12.7125 17.3625C12.2875 17.1208 11.825 17 11.325 17C11.6917 16.3833 12.4667 15.8958 13.65 15.5375C14.8333 15.1792 15.95 15 17 15C18.05 15 19.1667 15.1792 20.35 15.5375C21.5333 15.8958 22.3083 16.3833 22.675 17C22.1917 17 21.7333 17.1208 21.3 17.3625C20.8667 17.6042 20.5083 17.9333 20.225 18.35C19.8583 18.8833 19.3917 19.2917 18.825 19.575C18.2583 19.8583 17.65 20 17 20ZM9 17C8.16667 17 7.45833 16.7083 6.875 16.125C6.29167 15.5417 6 14.8333 6 14C6 13.15 6.29167 12.4375 6.875 11.8625C7.45833 11.2875 8.16667 11 9 11C9.85 11 10.5625 11.2875 11.1375 11.8625C11.7125 12.4375 12 13.15 12 14C12 14.8333 11.7125 15.5417 11.1375 16.125C10.5625 16.7083 9.85 17 9 17ZM25 17C24.1667 17 23.4583 16.7083 22.875 16.125C22.2917 15.5417 22 14.8333 22 14C22 13.15 22.2917 12.4375 22.875 11.8625C23.4583 11.2875 24.1667 11 25 11C25.85 11 26.5625 11.2875 27.1375 11.8625C27.7125 12.4375 28 13.15 28 14C28 14.8333 27.7125 15.5417 27.1375 16.125C26.5625 16.7083 25.85 17 25 17ZM17 14C16.1667 14 15.4583 13.7083 14.875 13.125C14.2917 12.5417 14 11.8333 14 11C14 10.15 14.2917 9.4375 14.875 8.8625C15.4583 8.2875 16.1667 8 17 8C17.85 8 18.5625 8.2875 19.1375 8.8625C19.7125 9.4375 20 10.15 20 11C20 11.8333 19.7125 12.5417 19.1375 13.125C18.5625 13.7083 17.85 14 17 14Z" fill="#0088FF"/>
</g>
</svg>
