<svg width="48" height="48" viewBox="0 0 48 48" fill="none" xmlns="http://www.w3.org/2000/svg">
<g id="package 1">
<g id="Group 2626">
<path id="Vector" fill-rule="evenodd" clip-rule="evenodd" d="M22.854 6.8984C22.9911 6.84311 23.1443 6.84311 23.2814 6.8984L39.409 13.3494C39.6279 13.4364 39.7713 13.6484 39.7713 13.8839C39.7713 14.1195 39.6279 14.3315 39.409 14.4185L23.2814 20.8695C23.1443 20.9248 22.9911 20.9248 22.854 20.8695L6.72648 14.4185C6.50761 14.3315 6.36419 14.1195 6.36419 13.8839C6.36419 13.6484 6.50761 13.4364 6.72648 13.3494L22.854 6.8984ZM37.6442 13.8839L23.0677 19.7146L8.4913 13.8839L23.0677 8.05325L37.6442 13.8839Z" fill="black"/>
<path id="Vector_2" fill-rule="evenodd" clip-rule="evenodd" d="M23.0678 19.7148L7.15389 13.3496C6.97649 13.2781 6.77547 13.3 6.61708 13.4072C6.45926 13.5143 6.36422 13.6929 6.36422 13.8841V32.7764C6.36422 33.0068 6.5013 33.2153 6.71326 33.3057L22.8408 40.2175C22.986 40.2797 23.1495 40.2797 23.2947 40.2175L39.4223 33.3057C39.6342 33.2153 39.7713 33.0068 39.7713 32.7764V13.8841C39.7713 13.6929 39.6763 13.5143 39.5184 13.4072C39.36 13.3 39.159 13.2781 38.9816 13.3496L23.0678 19.7148ZM7.51619 14.7348L22.8541 20.8696C22.9912 20.9249 23.1444 20.9249 23.2815 20.8696L38.6193 14.7348V32.3968L23.0678 39.0615L7.51619 32.3968V14.7348Z" fill="black"/>
<path id="Vector_3" fill-rule="evenodd" clip-rule="evenodd" d="M23.6438 20.3353V39.6883C23.6438 40.0063 23.3857 40.2643 23.0678 40.2643C22.7498 40.2643 22.4918 40.0063 22.4918 39.6883V20.3353C22.4918 20.0173 22.7498 19.7593 23.0678 19.7593C23.3857 19.7593 23.6438 20.0173 23.6438 20.3353ZM17.0942 9.20265C17.2411 9.14333 17.4058 9.14794 17.5493 9.21417L32.5249 16.126C32.7339 16.2222 32.8653 16.4341 32.8595 16.664C32.8532 16.8938 32.7109 17.0982 32.4972 17.1835L29.6173 18.3355C29.4704 18.3948 29.3057 18.3902 29.1623 18.3239L14.1867 11.4121C13.9776 11.3159 13.8463 11.104 13.852 10.8742C13.8584 10.6443 14.0006 10.4399 14.2143 10.3546L17.0942 9.20265ZM30.8269 16.611L29.4197 17.1743L15.8847 10.9272L17.2918 10.3638L30.8269 16.611Z" fill="black"/>
<path id="Vector_4" fill-rule="evenodd" clip-rule="evenodd" d="M28.8276 17.8007C28.8276 17.5651 28.971 17.3532 29.1899 17.2662L32.0698 16.1142C32.2472 16.0428 32.4482 16.0647 32.6066 16.1718C32.7644 16.279 32.8595 16.4575 32.8595 16.6487V21.8326C32.8595 22.0682 32.7161 22.2801 32.4972 22.3671L29.6173 23.5191C29.4399 23.5905 29.2388 23.5686 29.0804 23.4615C28.9226 23.3543 28.8276 23.1758 28.8276 22.9846V17.8007ZM31.7075 21.4426L29.9796 22.1338V18.1906L31.7075 17.4995V21.4426ZM23.3517 36.7575L7.16367 29.9413C6.87049 29.818 6.53296 29.9557 6.40913 30.2489C6.28587 30.542 6.42353 30.8796 6.7167 31.0034L23.1323 37.9152C23.2774 37.9763 23.4416 37.9751 23.5861 37.9123L39.4257 31.0005C39.7171 30.8732 39.8502 30.5334 39.7235 30.242C39.5962 29.9505 39.2564 29.8175 38.9649 29.9442L23.3517 36.7575Z" fill="black"/>
</g>
</g>
</svg>
