<svg width="25" height="25" viewBox="0 0 25 25" fill="none" xmlns="http://www.w3.org/2000/svg">
<g id="file-text">
<path id="Vector" d="M14.5833 2.08337H6.24999C5.69746 2.08337 5.16755 2.30287 4.77685 2.69357C4.38615 3.08427 4.16666 3.61417 4.16666 4.16671V20.8334C4.16666 21.3859 4.38615 21.9158 4.77685 22.3065C5.16755 22.6972 5.69746 22.9167 6.24999 22.9167H18.75C19.3025 22.9167 19.8324 22.6972 20.2231 22.3065C20.6138 21.9158 20.8333 21.3859 20.8333 20.8334V8.33337L14.5833 2.08337Z" stroke="#346448" stroke-width="2" stroke-linecap="round" stroke-linejoin="round"/>
<path id="Vector_2" d="M14.5833 2.08337V8.33337H20.8333" stroke="#346448" stroke-width="2" stroke-linecap="round" stroke-linejoin="round"/>
<path id="Vector_3" d="M16.6667 13.5416H8.33334" stroke="#346448" stroke-width="2" stroke-linecap="round" stroke-linejoin="round"/>
<path id="Vector_4" d="M16.6667 17.7084H8.33334" stroke="#346448" stroke-width="2" stroke-linecap="round" stroke-linejoin="round"/>
<path id="Vector_5" d="M10.4167 9.375H9.37501H8.33334" stroke="#346448" stroke-width="2" stroke-linecap="round" stroke-linejoin="round"/>
</g>
</svg>
