<svg width="24" height="24" viewBox="0 0 24 24" fill="none" xmlns="http://www.w3.org/2000/svg">
<path d="M12 21.7481C11.7045 21.7487 11.4118 21.691 11.1388 21.578C10.8657 21.4651 10.6177 21.2993 10.409 21.0901L8.39004 19.0711C8.26153 18.9445 8.09218 18.8677 7.91227 18.8545C7.73237 18.8413 7.55364 18.8926 7.40804 18.9991L6.05004 20.0201C5.79004 20.2151 5.48088 20.3338 5.1572 20.363C4.83351 20.3922 4.5081 20.3306 4.21741 20.1853C3.92673 20.04 3.68226 19.8165 3.5114 19.5401C3.34054 19.2636 3.25004 18.9451 3.25004 18.6201V5.99906C3.19131 5.4924 3.24791 4.97902 3.4156 4.49732C3.5833 4.01563 3.85774 3.57808 4.2184 3.21742C4.57906 2.85676 5.0166 2.58232 5.4983 2.41463C5.98 2.24694 6.49338 2.19034 7.00004 2.24906H17C17.5067 2.19034 18.0201 2.24694 18.5018 2.41463C18.9835 2.58232 19.421 2.85676 19.7817 3.21742C20.1423 3.57808 20.4168 4.01563 20.5845 4.49732C20.7522 4.97902 20.8088 5.4924 20.75 5.99906V18.6201C20.75 18.9451 20.6595 19.2636 20.4887 19.5401C20.3178 19.8165 20.0733 20.04 19.7827 20.1853C19.492 20.3306 19.1666 20.3922 18.8429 20.363C18.5192 20.3338 18.21 20.2151 17.95 20.0201L16.591 18.9991C16.4462 18.8914 16.2676 18.8393 16.0876 18.8521C15.9075 18.8649 15.7381 18.9419 15.61 19.0691L13.591 21.0881C13.3825 21.2976 13.1346 21.4638 12.8615 21.5771C12.5884 21.6904 12.2957 21.7485 12 21.7481ZM7.85604 17.3551C8.15174 17.3541 8.44472 17.4115 8.71823 17.5239C8.99174 17.6363 9.24042 17.8015 9.45004 18.0101L11.47 20.0291C11.6131 20.1648 11.8028 20.2405 12 20.2405C12.1973 20.2405 12.387 20.1648 12.53 20.0291L14.55 18.0101C14.934 17.6292 15.4418 17.3987 15.9813 17.3603C16.5207 17.322 17.056 17.4784 17.49 17.8011L18.851 18.8201C18.8875 18.8489 18.9316 18.8666 18.978 18.8708C19.0243 18.8751 19.0709 18.8658 19.112 18.8441C19.1544 18.8242 19.19 18.7924 19.2145 18.7527C19.239 18.7129 19.2513 18.6668 19.25 18.6201V5.99906C19.25 4.42206 18.577 3.74906 17 3.74906H7.00004C5.42304 3.74906 4.75004 4.42206 4.75004 5.99906V18.6201C4.74873 18.6668 4.76109 18.7129 4.78561 18.7527C4.81012 18.7924 4.84572 18.8242 4.88804 18.8441C4.92918 18.8658 4.97576 18.8751 5.0221 18.8708C5.06844 18.8666 5.11254 18.8489 5.14904 18.8201L6.50904 17.7991C6.89904 17.5091 7.37104 17.3531 7.85604 17.3551ZM16.75 8.99906C16.75 8.80015 16.671 8.60938 16.5304 8.46873C16.3897 8.32808 16.1989 8.24906 16 8.24906H11C10.8011 8.24906 10.6104 8.32808 10.4697 8.46873C10.3291 8.60938 10.25 8.80015 10.25 8.99906C10.25 9.19797 10.3291 9.38874 10.4697 9.52939C10.6104 9.67004 10.8011 9.74906 11 9.74906H16C16.1989 9.74906 16.3897 9.67004 16.5304 9.52939C16.671 9.38874 16.75 9.19797 16.75 8.99906ZM16.75 12.9991C16.75 12.8001 16.671 12.6094 16.5304 12.4687C16.3897 12.3281 16.1989 12.2491 16 12.2491H11C10.8011 12.2491 10.6104 12.3281 10.4697 12.4687C10.3291 12.6094 10.25 12.8001 10.25 12.9991C10.25 13.198 10.3291 13.3887 10.4697 13.5294C10.6104 13.67 10.8011 13.7491 11 13.7491H16C16.1989 13.7491 16.3897 13.67 16.5304 13.5294C16.671 13.3887 16.75 13.198 16.75 12.9991ZM8.00004 8.24906C7.80112 8.24906 7.61036 8.32808 7.46971 8.46873C7.32905 8.60938 7.25004 8.80015 7.25004 8.99906C7.25004 9.19797 7.32905 9.38874 7.46971 9.52939C7.61036 9.67004 7.80112 9.74906 8.00004 9.74906C8.19895 9.74906 8.38971 9.67004 8.53037 9.52939C8.67102 9.38874 8.75004 9.19797 8.75004 8.99906C8.75004 8.80015 8.67102 8.60938 8.53037 8.46873C8.38971 8.32808 8.19895 8.24906 8.00004 8.24906ZM8.00004 12.2491C7.80112 12.2491 7.61036 12.3281 7.46971 12.4687C7.32905 12.6094 7.25004 12.8001 7.25004 12.9991C7.25004 13.198 7.32905 13.3887 7.46971 13.5294C7.61036 13.67 7.80112 13.7491 8.00004 13.7491C8.19895 13.7491 8.38971 13.67 8.53037 13.5294C8.67102 13.3887 8.75004 13.198 8.75004 12.9991C8.75004 12.8001 8.67102 12.6094 8.53037 12.4687C8.38971 12.3281 8.19895 12.2491 8.00004 12.2491Z" fill="#0088FF"/>
</svg>
