<svg width="48" height="48" viewBox="0 0 48 48" fill="none" xmlns="http://www.w3.org/2000/svg">
<g id="Frame 2598">
<path id="Star 1" d="M23.7133 9.62234L26.2157 17.324C26.5169 18.251 27.3808 18.8787 28.3556 18.8787H36.4536C37.1801 18.8787 37.4822 19.8084 36.8944 20.2354L30.343 24.9953C29.5544 25.5683 29.2244 26.5838 29.5256 27.5109L32.028 35.2125C32.2526 35.9035 31.4617 36.4781 30.8739 36.051L24.3225 31.2912C23.5339 30.7182 22.4661 30.7182 21.6775 31.2912L15.1261 36.051C14.5383 36.4781 13.7474 35.9035 13.972 35.2125L16.4744 27.5109C16.7756 26.5838 16.4456 25.5683 15.657 24.9953L9.10561 20.2354C8.51783 19.8084 8.8199 18.8787 9.54645 18.8787H17.6444C18.6192 18.8787 19.4831 18.251 19.7843 17.324L22.2867 9.62233C22.5112 8.93136 23.4888 8.93135 23.7133 9.62234Z" stroke="black" stroke-width="1.5"/>
</g>
</svg>
