<svg width="20" height="20" viewBox="0 0 20 20" fill="none" xmlns="http://www.w3.org/2000/svg">
<path d="M12.6865 7.23789L10.0055 1.20561C9.97034 1.12643 9.85796 1.12643 9.82277 1.20561L7.14176 7.23789C7.12732 7.27036 7.09674 7.29274 7.06142 7.29666L1.01608 7.96837C0.936249 7.97724 0.898924 8.07185 0.951197 8.13283L4.98914 12.8438C5.00962 12.8677 5.01766 12.8998 5.01083 12.9305L3.66686 18.9784C3.64904 19.0586 3.73006 19.1248 3.80509 19.0915L9.87103 16.3955C9.89833 16.3834 9.92963 16.3841 9.95636 16.3975L15.3411 19.0898C15.412 19.1253 15.494 19.0681 15.4853 18.9894L14.8114 12.9249C14.8084 12.8974 14.8169 12.8698 14.8349 12.8488L18.8771 8.13283C18.9294 8.07185 18.8921 7.97724 18.8122 7.96837L12.7669 7.29666C12.7316 7.29274 12.701 7.27036 12.6865 7.23789Z" stroke="#FFC80B" stroke-width="0.586711"/>
</svg>
