<svg width="20" height="20" viewBox="0 0 20 20" fill="none" xmlns="http://www.w3.org/2000/svg">
<path d="M12.8155 7.23789L10.1344 1.20561C10.0992 1.12643 9.98687 1.12643 9.95168 1.20561L7.27066 7.23789C7.25623 7.27036 7.22564 7.29274 7.19032 7.29666L1.14499 7.96837C1.06516 7.97724 1.02783 8.07185 1.0801 8.13283L5.11804 12.8438C5.13853 12.8677 5.14656 12.8998 5.13973 12.9305L3.79576 18.9784C3.77795 19.0586 3.85897 19.1248 3.93399 19.0915L9.99993 16.3955C10.0272 16.3834 10.0585 16.3841 10.0853 16.3975L15.47 19.0898C15.5409 19.1253 15.6229 19.0681 15.6142 18.9894L14.9403 12.9249C14.9373 12.8974 14.9458 12.8698 14.9638 12.8488L19.006 8.13283C19.0583 8.07185 19.021 7.97724 18.9411 7.96837L12.8958 7.29666C12.8605 7.29274 12.8299 7.27036 12.8155 7.23789Z" fill="#FFC80B" stroke="#FFC80B" stroke-width="0.586711"/>
</svg>
