<svg width="103" height="103" viewBox="0 0 103 103" fill="none" xmlns="http://www.w3.org/2000/svg">
<g id="email (1) 1" clip-path="url(#clip0_2987_25361)">
<path id="Vector" fill-rule="evenodd" clip-rule="evenodd" d="M96.5625 47.6922C96.5629 45.9298 96.0809 44.2008 95.1688 42.6927C94.2567 41.1846 92.9492 39.9549 91.3881 39.1369C89.827 38.3189 88.0717 37.9437 86.3126 38.052C84.5535 38.1604 82.8576 38.7481 81.4086 39.7516L53.3315 59.1928C52.7925 59.5646 52.1532 59.7637 51.4984 59.7637C50.8436 59.7637 50.2043 59.5646 49.6653 59.1928L21.5914 39.7516C20.1424 38.7481 18.4465 38.1604 16.6874 38.052C14.9283 37.9437 13.173 38.3189 11.6119 39.1369C10.0508 39.9549 8.7433 41.1846 7.83119 42.6927C6.91907 44.2008 6.4371 45.9298 6.4375 47.6922V93.3438C6.4375 95.9059 7.45141 98.365 9.26678 100.174C10.1631 101.071 11.2274 101.782 12.3989 102.267C13.5703 102.752 14.8259 103.001 16.0938 103H86.9062C88.1748 103.002 89.4312 102.753 90.6035 102.268C91.7759 101.784 92.841 101.073 93.738 100.176C94.635 99.2785 95.3462 98.2134 95.8309 97.041C96.3156 95.8687 96.5642 94.6123 96.5625 93.3438V47.6922Z" fill="#346448"/>
<path id="Vector_2" fill-rule="evenodd" clip-rule="evenodd" d="M16.0938 42.1173C16.0935 42.6832 16.2425 43.2391 16.5256 43.7291C16.8087 44.219 17.216 44.6256 17.7063 44.908C17.7819 44.9499 17.855 44.9961 17.9252 45.0464L46.0024 64.4844C47.6178 65.6021 49.5356 66.2008 51.5 66.2008C53.4644 66.2008 55.3822 65.6021 56.9976 64.4844L85.0748 45.0464C85.145 44.9961 85.2181 44.9499 85.2937 44.908C85.784 44.6256 86.1913 44.219 86.4744 43.7291C86.7575 43.2391 86.9065 42.6832 86.9062 42.1173V9.65625C86.9062 7.09413 85.8891 4.63822 84.077 2.82928C83.1809 1.93198 82.1167 1.22022 80.9453 0.734731C79.7738 0.249245 78.5181 -0.000429916 77.25 5.55694e-07H25.75C23.1879 5.55694e-07 20.732 1.01713 18.923 2.82928C18.0257 3.72532 17.314 4.78953 16.8285 5.96099C16.343 7.13246 16.0933 8.38817 16.0938 9.65625V42.1173Z" fill="white"/>
<g id="Group 33">
<path id="Vector_3" fill-rule="evenodd" clip-rule="evenodd" d="M51.5 22.5312C48.9821 22.5963 46.5893 23.6421 44.8314 25.446C43.0736 27.2498 42.0898 29.6688 42.0898 32.1875C42.0898 34.7062 43.0736 37.1252 44.8314 38.929C46.5893 40.7329 48.9821 41.7787 51.5 41.8438C54.0178 41.7787 56.4107 40.7329 58.1685 38.929C59.9263 37.1252 60.9101 34.7062 60.9101 32.1875C60.9101 29.6688 59.9263 27.2498 58.1685 25.446C56.4107 23.6421 54.0178 22.5963 51.5 22.5312ZM51.5 28.9688C52.3536 28.9688 53.1723 29.3079 53.776 29.9115C54.3796 30.5151 54.7187 31.3338 54.7187 32.1875C54.7187 33.0412 54.3796 33.8599 53.776 34.4635C53.1723 35.0671 52.3536 35.4062 51.5 35.4062C50.6463 35.4062 49.8276 35.0671 49.224 34.4635C48.6203 33.8599 48.2812 33.0412 48.2812 32.1875C48.2812 31.3338 48.6203 30.5151 49.224 29.9115C49.8276 29.3079 50.6463 28.9688 51.5 28.9688Z" fill="#346448"/>
<path id="Vector_4" fill-rule="evenodd" clip-rule="evenodd" d="M54.7188 25.75V32.1875C54.7188 33.0412 55.0579 33.8599 55.6615 34.4635C56.2651 35.0671 57.0838 35.4062 57.9375 35.4062C58.7912 35.4062 59.6099 35.0671 60.2135 34.4635C60.8171 33.8599 61.1562 33.0412 61.1562 32.1875V25.75C61.1562 24.8963 60.8171 24.0776 60.2135 23.474C59.6099 22.8704 58.7912 22.5312 57.9375 22.5312C57.0838 22.5312 56.2651 22.8704 55.6615 23.474C55.0579 24.0776 54.7188 24.8963 54.7188 25.75Z" fill="#346448"/>
<path id="Vector_5" fill-rule="evenodd" clip-rule="evenodd" d="M58.7937 43.1988C56.5601 44.4292 54.05 45.0706 51.5 45.0625C43.5433 45.0625 37.0156 38.9758 37.0156 31.3828C37.0156 23.7898 43.5433 17.7031 51.5 17.7031C59.4535 17.7031 65.9844 23.7898 65.9844 31.3828C65.9844 32.2365 66.3235 33.0552 66.9271 33.6588C67.5308 34.2624 68.3495 34.6016 69.2031 34.6016C70.0568 34.6016 70.8755 34.2624 71.4791 33.6588C72.0828 33.0552 72.4219 32.2365 72.4219 31.3828C72.4219 20.3232 63.0875 11.2656 51.5 11.2656C39.9125 11.2656 30.5781 20.3232 30.5781 31.3828C30.5781 42.4424 39.9125 51.5 51.5 51.5C55.1396 51.5079 58.7215 50.5908 61.9094 48.8349C62.2795 48.6303 62.6057 48.3548 62.8693 48.0242C63.1329 47.6936 63.3288 47.3143 63.4458 46.9079C63.5628 46.5016 63.5986 46.0762 63.5512 45.656C63.5039 45.2358 63.3742 44.8291 63.1696 44.459C62.965 44.0889 62.6895 43.7628 62.3589 43.4992C62.0283 43.2356 61.649 43.0397 61.2426 42.9226C60.8363 42.8056 60.4109 42.7698 59.9907 42.8172C59.5705 42.8646 59.1638 42.9943 58.7937 43.1988Z" fill="#346448"/>
<path id="Vector_6" fill-rule="evenodd" clip-rule="evenodd" d="M65.9844 32.1875C65.9844 33.858 65.0316 35.4062 63.5703 35.4062C62.109 35.4062 61.1562 33.858 61.1562 32.1875C61.1562 31.3338 60.8171 30.5151 60.2135 29.9115C59.6099 29.3079 58.7912 28.9688 57.9375 28.9688C57.0838 28.9688 56.2651 29.3079 55.6615 29.9115C55.0579 30.5151 54.7188 31.3338 54.7188 32.1875C54.7188 37.6272 58.8098 41.8438 63.5703 41.8438C68.3308 41.8438 72.4219 37.6272 72.4219 32.1875C72.4219 31.3338 72.0828 30.5151 71.4791 29.9115C70.8755 29.3079 70.0568 28.9688 69.2031 28.9688C68.3495 28.9688 67.5308 29.3079 66.9271 29.9115C66.3235 30.5151 65.9844 31.3338 65.9844 32.1875Z" fill="#346448"/>
</g>
</g>
<defs>
<clipPath id="clip0_2987_25361">
<rect width="103" height="103" fill="white"/>
</clipPath>
</defs>
</svg>
