<svg width="24" height="24" viewBox="0 0 24 24" fill="none" xmlns="http://www.w3.org/2000/svg">
<path fill-rule="evenodd" clip-rule="evenodd" d="M21.75 10.5C22.164 10.5 22.5 10.164 22.5 9.75V6.75C22.5 5.50725 21.4928 4.5 20.25 4.5H3.75C2.50725 4.5 1.5 5.50725 1.5 6.75V9.75C1.5 10.164 1.836 10.5 2.25 10.5C3.078 10.5 3.75 11.172 3.75 12C3.75 12.828 3.078 13.5 2.25 13.5C1.836 13.5 1.5 13.836 1.5 14.25V17.25C1.5 18.4928 2.50725 19.5 3.75 19.5H20.25C21.4928 19.5 22.5 18.4928 22.5 17.25V14.25C22.4925 13.809 22.221 13.5772 21.75 13.5C20.922 13.5 20.25 12.828 20.25 12C20.25 11.172 20.922 10.5 21.75 10.5ZM16.5 6V7.5C16.5 7.914 16.164 8.25 15.75 8.25C15.336 8.25 15 7.914 15 7.5V6H3.75C3.336 6 3 6.336 3 6.75V9.09451C4.293 9.42826 5.25 10.6027 5.25 12C5.25 13.3973 4.293 14.5717 3 14.9055V17.25C3 17.664 3.336 18 3.75 18H15V16.5C15 16.086 15.336 15.75 15.75 15.75C16.164 15.75 16.5 16.086 16.5 16.5V18H20.25C20.664 18 21 17.664 21 17.25V14.9055C19.707 14.5717 18.75 13.3965 18.75 12C18.75 10.6027 19.707 9.42826 21 9.09451V6.75C21 6.336 20.664 6 20.25 6H16.5ZM15 10.5V13.5C15 13.914 15.336 14.25 15.75 14.25C16.164 14.25 16.5 13.914 16.5 13.5V10.5C16.5 10.086 16.164 9.75 15.75 9.75C15.336 9.75 15 10.086 15 10.5Z" fill="black"/>
</svg>
