<svg width="18" height="18" viewBox="0 0 18 18" fill="none"
    xmlns="http://www.w3.org/2000/svg">
    <g id="voucher 1">
        <path id="Vector" fill-rule="evenodd" clip-rule="evenodd" d="M16.3125 7.875C16.623 7.875 16.875 7.623 16.875 7.3125V5.0625C16.875 4.13044 16.1196 3.375 15.1875 3.375H2.8125C1.88044 3.375 1.125 4.13044 1.125 5.0625V7.3125C1.125 7.623 1.377 7.875 1.6875 7.875C2.3085 7.875 2.8125 8.379 2.8125 9C2.8125 9.621 2.3085 10.125 1.6875 10.125C1.377 10.125 1.125 10.377 1.125 10.6875V12.9375C1.125 13.8696 1.88044 14.625 2.8125 14.625H15.1875C16.1196 14.625 16.875 13.8696 16.875 12.9375V10.6875C16.8694 10.3568 16.6658 10.1829 16.3125 10.125C15.6915 10.125 15.1875 9.621 15.1875 9C15.1875 8.379 15.6915 7.875 16.3125 7.875ZM12.375 4.5V5.625C12.375 5.9355 12.123 6.1875 11.8125 6.1875C11.502 6.1875 11.25 5.9355 11.25 5.625V4.5H2.8125C2.502 4.5 2.25 4.752 2.25 5.0625V6.82088C3.21975 7.07119 3.9375 7.95206 3.9375 9C3.9375 10.0479 3.21975 10.9288 2.25 11.1791V12.9375C2.25 13.248 2.502 13.5 2.8125 13.5H11.25V12.375C11.25 12.0645 11.502 11.8125 11.8125 11.8125C12.123 11.8125 12.375 12.0645 12.375 12.375V13.5H15.1875C15.498 13.5 15.75 13.248 15.75 12.9375V11.1791C14.7803 10.9288 14.0625 10.0474 14.0625 9C14.0625 7.95206 14.7803 7.07119 15.75 6.82088V5.0625C15.75 4.752 15.498 4.5 15.1875 4.5H12.375ZM11.25 7.875V10.125C11.25 10.4355 11.502 10.6875 11.8125 10.6875C12.123 10.6875 12.375 10.4355 12.375 10.125V7.875C12.375 7.5645 12.123 7.3125 11.8125 7.3125C11.502 7.3125 11.25 7.5645 11.25 7.875Z" 
        fill="#346448" stroke="#346448" stroke-width="0.4" stroke-linecap="round" stroke-linejoin="round"
        />
    </g>
</svg>
