<svg width="290" height="142" viewBox="0 0 290 142" fill="none" xmlns="http://www.w3.org/2000/svg">
<path d="M98.3915 88.7647C98.3915 89.4116 98.3779 90.0042 98.3362 90.5556V90.6518C98.3362 90.8033 98.3226 90.9541 98.3089 91.0923V91.2025C97.9367 97.7448 95.9814 104.191 92.6619 109.81C92.0137 110.916 91.315 111.992 90.568 113.033C82.7722 123.832 70.1702 130.292 56.8508 130.292C46.7872 130.29 37.0666 126.634 29.4968 120.002L29.4419 119.947C29.3589 119.878 29.2635 119.796 29.1805 119.713L29.1116 119.659C28.0645 118.708 27.0594 117.717 26.1228 116.683C22.9961 113.24 20.4754 109.342 18.6569 105.058C18.3683 104.398 18.0929 103.695 17.8036 102.91C16.1613 98.3751 15.3224 93.5882 15.3246 88.7647V51.8519C15.3246 30.6959 31.1635 12.9562 52.1677 10.5877C53.7224 10.4108 55.2861 10.3233 56.8508 10.3256C57.843 10.3256 58.724 10.3533 59.6052 10.4222C66.3228 10.8558 72.8332 12.9218 78.5715 16.4411C81.3399 18.1491 83.9159 20.1733 86.2159 22.4876C92.4415 28.7133 96.4631 36.5633 97.8541 45.2275C98.2124 47.3619 98.3915 49.5936 98.3915 51.8519V88.7647ZM102.124 44.5246C100.596 34.9802 96.1468 26.3024 89.2872 19.4299C86.7256 16.8812 83.8883 14.6365 80.8309 12.7634C74.5223 8.87934 67.2772 6.57903 59.9093 6.11057C58.9447 6.04237 57.9392 6 56.8508 6C55.8317 6 54.799 6.02875 53.8893 6.09767C53.1875 6.13821 52.457 6.20677 51.6863 6.2897C28.4917 8.90735 11 28.4929 11 51.8519V88.7647C10.9953 94.0911 11.9228 99.3773 13.7404 104.384C14.0574 105.251 14.3607 106.037 14.677 106.766C16.7019 111.491 19.47 115.802 22.9136 119.59C23.9539 120.724 25.0479 121.809 26.1917 122.839C26.3425 122.991 26.5087 123.129 26.6735 123.267C35.0233 130.584 45.7481 134.618 56.8508 134.617C71.5612 134.617 85.4724 127.495 94.0666 115.554C94.8789 114.438 95.6507 113.24 96.3802 112.014C100.044 105.803 102.207 98.7086 102.62 91.4918C102.647 91.2438 102.661 90.9957 102.661 90.7344C102.689 90.1281 102.716 89.4805 102.716 88.7647V51.8519C102.716 49.3592 102.51 46.8942 102.124 44.5246Z" fill="#517650"/>
<path d="M87.3589 101.601C86.9051 102.584 86.4041 103.545 85.8576 104.48C85.3375 105.373 84.7767 106.241 84.1769 107.083C83.3013 108.311 82.3395 109.476 81.2987 110.568C80.611 111.308 79.8843 112.012 79.1219 112.675C77.4349 114.183 75.5929 115.508 73.6267 116.628C72.7488 117.137 71.8481 117.606 70.9272 118.033C70.8006 118.087 70.6765 118.147 70.5554 118.212H70.5413C66.3063 120.104 61.7235 121.094 57.0849 121.118C52.3468 121.132 47.719 120.154 43.4633 118.267C43.1245 118.128 42.7893 117.981 42.4579 117.826C39.7386 116.521 37.2088 114.853 34.9378 112.868L34.8275 112.758C33.9344 111.973 33.0836 111.14 32.2788 110.264C31.1119 109.002 30.048 107.648 29.0973 106.215C28.4712 105.288 27.8967 104.327 27.3764 103.337C26.9501 102.551 26.5593 101.747 26.205 100.926C25.9637 100.353 25.7341 99.7743 25.5165 99.1914C25.2971 98.6127 25.104 98.0243 24.9378 97.4281C24.6354 96.4789 24.3871 95.5133 24.1944 94.5359C23.7337 92.3757 23.4937 90.1743 23.4779 87.9656V87.8001L23.4643 85.0045L23.4503 81.5608L23.4366 79.0268L23.3677 63.0224L23.3537 58.5869L23.3264 53.1054C23.3124 51.9072 23.3813 50.7089 23.4915 49.524C23.5849 48.5533 23.7274 47.5879 23.9187 46.6317C24.3459 44.3318 25.0344 42.1001 25.957 39.938C26.3784 38.9202 26.8568 37.9271 27.39 36.9632C27.5142 36.7288 27.6373 36.5083 27.7888 36.2743C27.7888 36.2603 27.7888 36.2603 27.8024 36.2603C28.2743 35.4144 28.794 34.5961 29.359 33.8092C31.7835 30.3103 34.8552 27.3492 38.353 25.0349C39.1507 24.5001 39.9736 24.0039 40.8188 23.548H40.8328C44.5538 21.5163 48.6316 20.2208 52.8429 19.7325C53.3943 19.6636 53.917 19.6223 54.4547 19.581C54.7301 19.5534 55.0187 19.5397 55.308 19.5397C55.7352 19.5117 56.1893 19.4981 56.6301 19.4981C57.1815 19.4981 57.7052 19.5117 58.2006 19.5397C58.421 19.5397 58.6138 19.5534 58.8205 19.567C63.6828 19.8563 68.4346 21.2061 72.6898 23.5204C73.1813 23.7792 73.6638 24.0548 74.1365 24.3467C74.4811 24.5531 74.8257 24.7739 75.1692 25.022C77.0291 26.2198 78.7507 27.6249 80.3349 29.195C81.7531 30.6137 83.048 32.1285 84.1769 33.754C84.1909 33.7676 84.2046 33.7812 84.2046 33.7952C84.7666 34.5746 85.2862 35.3837 85.7611 36.219L85.7747 36.233C87.6346 39.4422 88.929 42.9408 89.6319 46.6317C89.6861 46.9074 89.7413 47.1828 89.7826 47.4585C89.8936 48.1329 89.9894 48.8222 90.0583 49.524C90.1685 50.6127 90.2234 51.7004 90.2375 52.8021L90.2787 62.3885L90.2924 65.4189L90.32 72.2638L90.334 75.3075L90.3613 81.4919L90.3753 84.5496L90.3889 87.5108C90.3889 88.0895 90.3889 88.5996 90.3613 89.0537L90.3477 89.3013C90.2511 91.3127 89.9618 93.3229 89.5217 95.2653C89.5217 95.293 89.5077 95.3066 89.5077 95.3342C88.9979 97.4694 88.295 99.5626 87.3865 101.546C87.3725 101.56 87.3725 101.588 87.3589 101.601ZM93.8462 52.7885C93.8326 50.7779 93.6671 48.7805 93.3365 46.8658C92.0693 39.1525 88.4465 32.1562 82.8688 26.6327C80.7991 24.5817 78.4973 22.7791 76.01 21.2614C70.9 18.1483 65.0326 16.3165 59.055 15.9726C58.2968 15.9177 57.4848 15.8901 56.6164 15.8901C55.7905 15.9037 54.9637 15.9313 54.2063 15.9866C53.6084 16.0292 53.0114 16.0844 52.4158 16.1521C40.5158 17.5428 29.9793 24.6773 24.2221 35.2415C23.6329 36.3083 23.104 37.4073 22.6379 38.5333C20.6819 43.1476 19.6897 48.05 19.7173 53.1191L19.8559 85.652L19.8699 87.0983V87.8278C19.8975 92.1527 20.6546 96.3946 22.1282 100.445C22.3688 101.089 22.6259 101.728 22.8992 102.359C24.5479 106.157 26.8198 109.653 29.621 112.703C30.4945 113.647 31.4137 114.548 32.3754 115.402C32.4451 115.471 32.4992 115.526 32.5822 115.581C39.3316 121.476 47.967 124.727 56.9334 124.727C56.9887 124.727 57.0436 124.713 57.0989 124.713C68.9852 124.672 80.2106 118.86 87.1108 109.177C87.7584 108.282 88.3776 107.317 88.9703 106.298C89.5766 105.265 90.1409 104.19 90.6234 103.116C91.6548 100.88 92.4576 98.5451 93.0195 96.1473C93.5225 93.9845 93.8315 91.7811 93.9428 89.5634C93.9564 89.4392 93.9564 89.3153 93.9564 89.1911C93.9841 88.6685 93.9977 88.1171 93.9977 87.4972L93.8462 52.7885Z" fill="#517650"/>
<path d="M91.1467 95.8993C90.6042 98.1704 89.8336 100.381 88.8468 102.497C88.3783 102.194 87.8962 101.877 87.3869 101.546C85.9125 100.61 84.3019 99.591 82.5662 98.5298C81.3131 97.7588 79.991 96.9597 78.6136 96.1473C75.9387 94.5653 73.2434 93.018 70.5284 91.5058C69.22 90.7889 67.8972 90.0595 66.5334 89.329C61.6788 86.7149 56.7604 84.2212 51.7825 81.8502C51.2451 81.5885 50.7085 81.3275 50.1711 81.0795C50.4741 80.4315 50.4604 79.5919 50.0609 78.8341C49.909 78.5444 49.7299 78.2971 49.4966 78.0907H49.4819C49.2622 77.8562 48.9729 77.6771 48.6695 77.5669C48.587 77.5393 48.5044 77.5116 48.4215 77.498C48.2423 77.4427 48.0772 77.4291 47.9125 77.4291C47.6064 77.4287 47.3044 77.4995 47.0304 77.6358C47.0032 77.6495 46.9892 77.6635 46.9615 77.6771C46.6612 77.8514 46.4138 78.1038 46.2457 78.4076C46.1158 78.6383 46.0272 78.8899 45.9841 79.1511C45.6394 78.9992 45.2952 78.8477 44.9366 78.6822C44.8134 78.6273 44.6756 78.572 44.5241 78.5171C44.4552 78.4895 44.3726 78.4618 44.3037 78.4482C44.1106 78.3793 43.9038 78.3247 43.711 78.2698C43.6834 78.2698 43.6698 78.2562 43.6421 78.2562C43.5732 78.2285 43.4914 78.2145 43.4217 78.1869C43.4217 78.1732 43.4088 78.1732 43.4088 78.1732C43.0089 78.0494 42.6093 77.9252 42.2234 77.815C42.114 77.7873 41.9901 77.7597 41.8792 77.7324C41.9489 77.6218 42.0038 77.498 42.0443 77.3601C42.0996 77.2087 42.1272 77.0295 42.1409 76.8648C42.1822 76.355 42.0178 75.8726 41.6997 75.487C41.4989 75.2034 41.2289 74.9759 40.9154 74.8262C40.774 74.7569 40.6263 74.7016 40.4742 74.661C40.3371 74.6194 40.1996 74.6058 40.0477 74.5921C39.9928 74.5781 39.9375 74.5781 39.8826 74.5781C38.7113 74.5781 37.7334 75.4457 37.6645 76.5754C37.6509 76.7546 37.6645 76.9193 37.7058 77.0844C37.513 77.0708 37.3199 77.0572 37.1419 77.0572C36.9351 77.0432 36.7283 77.0432 36.5215 77.0432H36.1496L35.861 77.0572H35.7645C34.1183 77.1153 32.4855 77.3744 30.9022 77.8286C27.7619 78.7099 25.2416 80.2111 23.4503 81.5608C22.8412 82.0054 22.2575 82.4836 21.7017 82.9931L21.5915 80.8587L21.5775 80.5144C21.5915 80.5144 21.5915 80.5144 21.5915 80.5004C22.0187 80.032 22.6379 79.5366 23.437 79.0269C25.0488 78.0217 27.376 76.947 30.2682 75.9278L30.3924 75.8866C31.7422 75.4177 32.8851 75.0742 33.6293 74.8402L33.6982 74.8262C33.8774 74.7572 34.0288 74.661 34.1667 74.5505C34.3124 74.4347 34.4336 74.2911 34.5234 74.128C34.6131 73.965 34.6695 73.7857 34.6893 73.6006C34.731 73.2424 34.6481 72.8978 34.4424 72.6084C34.3237 72.4356 34.1741 72.2862 34.0012 72.1676C33.7395 72.0028 33.4774 71.8374 33.2158 71.6446C32.3345 71.0243 31.3434 70.2672 30.2822 69.3859C28.464 67.8847 25.5025 65.0743 23.3684 63.0228C22.7068 62.3612 22.1149 61.7969 21.6741 61.3561C22.1245 60.3444 22.6256 59.356 23.1753 58.3946C23.2029 58.4222 23.2306 58.4639 23.2579 58.4911L23.3544 58.5877C23.6165 58.8486 23.8911 59.1243 24.1804 59.4137C27.8032 62.9535 33.6017 67.5954 38.5329 70.5016C38.7669 70.6531 39.0279 70.791 39.2759 70.9424C39.3312 70.9694 39.3725 70.997 39.4278 71.0243C39.9652 71.3276 40.5018 71.6306 41.0528 71.9339C41.0945 72.388 41.2736 72.7876 41.5217 73.1182C41.6042 73.2284 41.6868 73.3249 41.7826 73.3939C42.0472 73.6601 42.3815 73.8464 42.7472 73.9313C42.8973 73.9581 43.0495 73.9717 43.202 73.9718C43.5872 73.9718 43.9454 73.848 44.2484 73.6419C44.3999 73.7108 44.5378 73.7798 44.6896 73.8623C44.2409 73.8902 43.81 74.048 43.4493 74.3164C43.3812 74.3717 43.2986 74.4266 43.2433 74.5092C42.876 74.8219 42.6238 75.2485 42.5268 75.7211C42.5114 75.7461 42.502 75.7744 42.4991 75.8036C42.4166 76.3001 42.4991 76.7822 42.7336 77.1946C42.7608 77.2639 42.8025 77.3325 42.8574 77.4014C43.0751 77.7001 43.3702 77.9336 43.711 78.0767C43.9219 78.1627 44.1453 78.214 44.3726 78.2285C44.8344 78.2704 45.2974 78.1642 45.6947 77.9252C45.7913 77.8839 45.8875 77.8286 45.9841 77.7597C46.1495 77.6358 46.3003 77.498 46.4249 77.3325C46.6885 77.0324 46.8647 76.6658 46.9342 76.2725C46.9615 76.093 46.9755 75.9278 46.9479 75.7487C46.9374 75.4331 46.8474 75.1253 46.6862 74.8538C46.7411 74.8951 46.7824 74.9087 46.8377 74.9227V74.9364C46.9033 75.139 47.001 75.3297 47.127 75.5014C47.1683 75.5703 47.2236 75.6249 47.2925 75.6798C47.6508 76.093 48.2011 76.3137 48.7524 76.3274C49.0141 76.3414 49.2898 76.3137 49.5508 76.2172C49.9373 76.4093 50.3278 76.5932 50.7221 76.7686C50.9971 76.8917 51.2728 77.0155 51.5481 77.1397C51.934 77.3189 52.3336 77.498 52.7335 77.6771C52.8986 77.7458 53.0778 77.7741 53.2561 77.7597C54.0003 77.6911 54.6888 76.8788 54.9641 76.1759C55.1289 75.7624 55.3087 66.5619 55.3913 59.0141C55.6526 59.0554 55.9007 59.0691 56.1624 59.0831C56.3595 59.0993 56.5572 59.1084 56.755 59.1103C57.016 59.1103 57.2777 59.0967 57.5397 59.0691C57.6223 66.0252 57.6912 74.7296 57.7601 75.7624C57.8567 77.0844 58.0495 78.0077 58.3801 78.7375C58.9167 79.9081 59.8128 80.597 61.3 81.6574C61.631 81.8918 61.9885 82.1395 62.3744 82.4152C64.1926 83.7237 66.947 85.2525 70.1562 86.8503C71.5987 87.5703 73.0543 88.2637 74.5224 88.9302C77.6214 90.3629 80.9272 91.7812 84.1493 93.1172C85.8736 93.8269 87.6046 94.5199 89.3422 95.1964C89.3975 95.224 89.4664 95.2381 89.5213 95.2653C90.0727 95.4721 90.6101 95.6925 91.1467 95.8993Z" fill="#517650"/>
<path d="M40.1026 78.8341C40.0474 78.8481 39.9784 78.8481 39.9235 78.8481H39.758C38.7116 78.7788 37.8716 78.0358 37.7065 77.0848C37.6652 76.9193 37.6512 76.7542 37.6652 76.5758C37.7338 75.4458 38.7116 74.5785 39.8822 74.5785C39.9371 74.5785 39.9924 74.5785 40.0474 74.5921C40.1992 74.6058 40.3367 74.6198 40.4745 74.6611C40.6267 74.7017 40.7744 74.7571 40.9157 74.8265C41.2292 74.9764 41.4992 75.2038 41.7004 75.487C42.0174 75.8729 42.1825 76.355 42.1412 76.8644C42.1276 77.0295 42.1 77.209 42.045 77.3605C42.0067 77.4913 41.951 77.6164 41.8796 77.7324C41.7541 77.9561 41.5909 78.1564 41.3971 78.3244C41.3698 78.338 41.3558 78.3656 41.3282 78.3656C40.9706 78.655 40.5435 78.8065 40.1026 78.8341ZM42.857 77.4018C42.8062 77.3391 42.7645 77.2695 42.7332 77.195C42.4988 76.7815 42.4162 76.3001 42.4988 75.804C42.4988 75.7764 42.5128 75.7491 42.5264 75.7215C42.6234 75.2489 42.8756 74.8223 43.2429 74.5096C43.0914 74.3028 42.926 74.11 42.7476 73.9305C42.3816 73.8465 42.0471 73.6601 41.783 73.3931C41.6864 73.3253 41.6039 73.2288 41.5213 73.1186C41.0896 72.9297 40.6282 72.8176 40.1579 72.7876C39.8959 72.7739 39.6342 72.7739 39.3861 72.8016C37.4997 73.022 35.9845 74.5508 35.8607 76.4516C35.8467 76.6532 35.8467 76.8556 35.8607 77.0572C36.0258 78.903 37.5134 80.3906 39.4274 80.625C39.4971 80.6387 39.5796 80.6523 39.6485 80.6523C39.7304 80.6663 39.8269 80.6663 39.9235 80.6663C40.4196 80.6663 40.8881 80.5834 41.3282 80.4183C41.3834 80.2251 41.466 80.046 41.5762 79.8805C41.7338 79.6291 41.9517 79.421 42.2102 79.2753C42.5264 79.0685 42.8847 78.9583 43.2569 78.9443C43.4084 78.7239 43.5323 78.5035 43.6425 78.2554C43.6701 78.2001 43.6978 78.1312 43.7114 78.077C43.3706 77.9337 43.0753 77.7003 42.857 77.4018Z" fill="#517650"/>
<path d="M48.7521 76.327C48.2018 76.3134 47.6504 76.093 47.2921 75.6794C47.2264 75.6307 47.1703 75.5702 47.1266 75.5011C47.001 75.3292 46.9033 75.1385 46.8373 74.936V74.9224C46.7357 74.5923 46.7167 74.2424 46.782 73.9033C46.8526 73.5084 47.0234 73.1383 47.2781 72.8285C47.416 72.677 47.5538 72.5399 47.7193 72.4157C48.1353 72.1122 48.6367 71.9482 49.1516 71.9472C49.8125 71.9472 50.4464 72.2229 50.846 72.7736C51.5477 73.7241 51.2724 75.1151 50.2533 75.8586C50.1208 75.9646 49.9719 76.0484 49.8125 76.1066C49.7296 76.1619 49.6341 76.1892 49.5512 76.2168C49.2895 76.3134 49.0138 76.341 48.7521 76.327ZM52.3059 71.7132C51.0933 70.0601 48.7934 69.6606 47.0028 70.7493C46.8819 70.8075 46.7666 70.8766 46.6582 70.9557C46.2317 71.272 45.8598 71.6579 45.5841 72.0991C45.2955 72.5519 45.0991 73.0573 45.0062 73.5863C44.9922 73.6692 44.9786 73.7654 44.9649 73.8483C45.0339 73.8483 45.0888 73.8483 45.1577 73.862C45.5357 73.9021 45.8943 74.0501 46.1905 74.2884C46.3389 74.3954 46.4689 74.5257 46.5756 74.6743C46.6169 74.7292 46.6582 74.7982 46.6858 74.8535C46.8472 75.1249 46.9372 75.4328 46.9475 75.7484C46.9752 75.9275 46.9615 76.093 46.9346 76.2721C46.8646 76.6653 46.6883 77.0319 46.4249 77.3322C46.5897 77.4676 46.7698 77.5833 46.9615 77.6768C46.9888 77.6631 47.0028 77.6491 47.0304 77.6355C47.3043 77.4991 47.6061 77.4283 47.9121 77.4287C48.0768 77.4287 48.2423 77.4427 48.4215 77.4976C48.504 77.5113 48.5866 77.5389 48.6695 77.5666C48.9725 77.6768 49.2618 77.8559 49.4822 78.0903H49.4962C50.1018 77.9937 50.7081 77.7457 51.2584 77.3598C51.2861 77.3462 51.2997 77.3322 51.3273 77.3185C51.411 77.2632 51.4788 77.209 51.5477 77.1401C53.1732 75.776 53.5314 73.3935 52.3059 71.7132Z" fill="#517650"/>
<path d="M49.3031 82.0017C48.6415 82.3463 47.8432 82.2497 47.1963 81.8225C46.8012 81.5738 46.4818 81.2214 46.273 80.8038C46.1075 80.4728 45.9973 80.1146 45.9697 79.771C45.9537 79.5643 45.9584 79.3565 45.9837 79.1507C46.025 78.889 46.1212 78.627 46.2454 78.4066C46.4141 78.1033 46.6617 77.8512 46.9619 77.6771C46.9895 77.6631 47.0032 77.6495 47.0308 77.6355C47.3058 77.498 47.6088 77.4291 47.9121 77.4291C48.0776 77.4291 48.2427 77.4427 48.4218 77.498C48.5048 77.5116 48.5866 77.5393 48.6692 77.5669C48.9732 77.6771 49.2618 77.8563 49.4822 78.0903H49.4959C49.7303 78.2964 49.9094 78.5444 50.0609 78.8337C50.4597 79.5919 50.4737 80.4315 50.1711 81.0791C49.9926 81.4747 49.6871 81.7994 49.3031 82.0017ZM51.6727 78.0078C51.551 77.782 51.4128 77.5655 51.2592 77.3602C51.0982 77.1469 50.9183 76.9485 50.7218 76.7675C50.449 76.5084 50.1435 76.2862 49.8129 76.1066C49.7303 76.1619 49.6337 76.1896 49.5512 76.2172C49.2895 76.3138 49.0138 76.341 48.7517 76.3274C48.2014 76.3138 47.6504 76.093 47.2918 75.6798C47.176 75.6961 47.0613 75.7191 46.9483 75.7487C46.9759 75.9279 46.9619 76.093 46.9343 76.2721C46.8657 76.6717 46.6862 77.0292 46.4245 77.3325C46.3007 77.498 46.1488 77.6355 45.9837 77.7597C45.8936 77.8249 45.7969 77.8804 45.6951 77.9252C45.2978 78.1642 44.8347 78.2703 44.373 78.2282C44.3411 78.2984 44.3176 78.3721 44.303 78.4478C44.2338 78.6622 44.1924 78.8845 44.1799 79.1094C44.3018 79.1602 44.4174 79.2249 44.5245 79.3022C44.7856 79.4742 45.0025 79.7053 45.1577 79.9767C45.5849 80.6659 45.5985 81.5468 45.1161 82.2637C45.1161 82.2774 45.1024 82.2774 45.0888 82.291C45.4515 82.7856 45.9225 83.1908 46.4658 83.4756C47.0622 83.8287 47.7428 84.0144 48.4358 84.013C49.0138 84.013 49.5924 83.8888 50.1298 83.5995C50.8663 83.2249 51.4502 82.6068 51.7822 81.8502C52.0446 81.3135 52.1817 80.6936 52.1817 80.0733C52.1817 79.3851 52.017 78.6682 51.6727 78.0078Z" fill="#517650"/>
<path d="M44.2484 73.6412C43.9411 73.8547 43.5762 73.9701 43.202 73.9722C43.0495 73.972 42.8973 73.9582 42.7472 73.9309C42.3815 73.8464 42.0473 73.6599 41.7834 73.3931C41.6868 73.3242 41.6042 73.228 41.5213 73.1174C41.2732 72.7876 41.0941 72.388 41.0528 71.9332C41.0362 71.8423 41.027 71.7502 41.0252 71.6579C40.9979 70.3631 41.9348 69.289 43.1191 69.275H43.1467C44.3173 69.275 45.2672 70.3081 45.2948 71.5897C45.2948 71.7541 45.2812 71.9059 45.2535 72.0574C45.1433 72.7326 44.7722 73.2969 44.2484 73.6412ZM47.0028 70.749C46.6169 68.8482 44.9926 67.4295 43.0918 67.4708C41.163 67.4985 39.5653 68.9997 39.2767 70.9421C39.2372 71.1878 39.2186 71.4363 39.221 71.6851C39.221 72.071 39.2767 72.4433 39.3861 72.8016C39.5734 73.5084 39.9495 74.151 40.4742 74.6603C40.6262 74.7009 40.7738 74.7563 40.915 74.8258C41.2289 74.9757 41.4993 75.2033 41.7004 75.487C41.9647 75.6004 42.2424 75.6792 42.5268 75.7215C42.6232 75.2486 42.8755 74.8219 43.2433 74.5096C43.2982 74.427 43.3811 74.3717 43.449 74.3164C43.8095 74.0477 44.2405 73.8898 44.6892 73.862C44.7445 73.848 44.8134 73.848 44.8684 73.848H44.9649C45.0339 73.848 45.0891 73.848 45.1581 73.862C45.5361 73.9022 45.8947 74.0503 46.1908 74.2888C46.5718 73.7979 46.8396 73.2289 46.9752 72.6224C47.0581 72.3055 47.0994 71.9745 47.0994 71.6439V71.5613C47.0994 71.2863 47.0581 71.0106 47.0028 70.749Z" fill="#517650"/>
<path d="M42.1685 82.8284C41.9346 82.6755 41.7337 82.4773 41.5775 82.2454C41.4214 82.0136 41.3133 81.7529 41.2596 81.4787C41.1907 81.1204 41.2047 80.7485 41.3285 80.4186C41.3831 80.2255 41.4656 80.0464 41.5766 79.8809C41.7336 79.629 41.9513 79.4205 42.2098 79.2745C42.5268 79.0678 42.885 78.9576 43.2562 78.9447H43.3391C43.6285 78.9447 43.9178 78.9989 44.1795 79.1094C44.3015 79.1599 44.4172 79.2246 44.5241 79.3022C44.7857 79.4739 45.0027 79.7054 45.1573 79.9774C45.5845 80.6656 45.5981 81.5476 45.116 82.2634C45.116 82.2774 45.102 82.2774 45.0884 82.291C44.4415 83.2279 43.1323 83.49 42.1685 82.8284ZM46.2726 80.8034C46.1082 80.4728 45.998 80.1153 45.9704 79.7707C45.9541 79.5641 45.9587 79.3564 45.984 79.1507C46.0253 78.8898 46.1219 78.6277 46.2461 78.4073C46.0821 78.2251 45.897 78.0631 45.6947 77.9248C45.2974 78.1638 44.8343 78.2701 44.3726 78.2282C44.1453 78.2137 43.9219 78.1626 43.711 78.0767C43.3705 77.9336 43.0753 77.7004 42.8574 77.4022C42.8063 77.3395 42.7644 77.2699 42.7328 77.1954C42.4975 77.2228 42.2664 77.2782 42.0443 77.3605C42.006 77.4912 41.9505 77.6161 41.8792 77.732C41.754 77.9559 41.591 78.1564 41.3974 78.3247C41.3702 78.3384 41.3554 78.366 41.3285 78.366C40.9703 78.6553 40.5431 78.8068 40.1023 78.8345C40.0883 78.8481 40.0883 78.8621 40.0746 78.8757C39.7196 79.3971 39.4976 79.9974 39.4278 80.6243C39.3842 81.0244 39.4027 81.4288 39.4827 81.8233C39.6895 82.856 40.2814 83.7509 41.1634 84.3296C41.8091 84.7687 42.5719 85.0037 43.3528 85.0041C44.537 85.0041 45.6947 84.4815 46.4658 83.476C46.5207 83.4074 46.562 83.3381 46.6173 83.2696C46.9206 82.8147 47.1134 82.3323 47.1959 81.8233C46.8008 81.574 46.4815 81.2213 46.2726 80.8034Z" fill="#517650"/>
<path d="M45.9837 77.7593C45.8934 77.8247 45.7964 77.8802 45.6943 77.9248C45.297 78.1637 44.8339 78.2698 44.3722 78.2278C44.1452 78.2135 43.922 78.1623 43.7114 78.0763C43.3705 77.933 43.0752 77.6996 42.857 77.4011C42.8017 77.3321 42.7605 77.2632 42.7332 77.1943C42.4988 76.7819 42.4162 76.2994 42.4988 75.8033C42.4988 75.776 42.5124 75.7484 42.5264 75.7207C42.6232 75.2481 42.8755 74.8215 43.2429 74.5088C43.2978 74.4263 43.3808 74.371 43.4497 74.3161C43.8099 74.0474 44.2407 73.8896 44.6892 73.862C44.7441 73.848 44.8131 73.848 44.8684 73.848H44.9646C45.0335 73.848 45.0888 73.848 45.1577 73.862C45.5358 73.9015 45.8945 74.0494 46.1904 74.2881C46.3419 74.3986 46.4661 74.5225 46.5752 74.6743C46.6169 74.7292 46.6589 74.7982 46.6866 74.8531C46.8478 75.1246 46.9376 75.4327 46.9475 75.7484C46.9752 75.9275 46.9611 76.0926 46.9346 76.2717C46.8648 76.6652 46.6884 77.032 46.4245 77.3321C46.3007 77.4976 46.1492 77.6355 45.9837 77.7593ZM47.2921 75.6794C47.2232 75.6241 47.1679 75.57 47.1266 75.501C47.0008 75.3294 46.9033 75.1386 46.838 74.936V74.922C46.7362 74.5919 46.7172 74.2417 46.7828 73.9025C46.853 73.5079 47.0236 73.1381 47.2781 72.8285C47.1819 72.7596 47.0854 72.6906 46.9752 72.6217C46.5623 72.3608 46.0939 72.1953 45.5841 72.0987C45.5152 72.0851 45.4607 72.0851 45.391 72.0714C45.3497 72.0574 45.2944 72.0574 45.2532 72.0574C45.1429 72.7319 44.7718 73.2969 44.248 73.6416C43.9406 73.8548 43.5758 73.9698 43.2016 73.9714C43.0502 73.9714 42.8983 73.9582 42.7468 73.9309C42.3812 73.8463 42.047 73.6599 41.783 73.3931C41.3971 73.8067 41.0937 74.2881 40.9146 74.8258C41.2285 74.9759 41.4989 75.2034 41.7004 75.487C42.0174 75.8722 42.1818 76.3547 42.1405 76.8644C42.1265 77.0292 42.0992 77.2083 42.0439 77.3598C42.0064 77.4907 41.9511 77.6158 41.8796 77.7317C41.754 77.9555 41.5908 78.156 41.3971 78.3244C41.3694 78.3384 41.3558 78.3656 41.3282 78.3656C41.3422 78.4069 41.3694 78.4346 41.3971 78.4758C41.6257 78.7818 41.8996 79.0512 42.2094 79.2746C42.5264 79.0678 42.8847 78.9576 43.2566 78.9436H43.3395C43.6288 78.9436 43.9174 78.9989 44.1791 79.1091C44.3033 79.1643 44.4135 79.2193 44.5237 79.3018C44.7857 79.4735 45.003 79.7051 45.1577 79.9774C45.4372 79.9492 45.711 79.8795 45.97 79.7707C45.9538 79.564 45.9583 79.3561 45.9837 79.1503C46.025 78.8887 46.1215 78.6266 46.2454 78.4069C46.4138 78.1035 46.6611 77.8512 46.9611 77.6768C46.9888 77.6628 47.0024 77.6491 47.0301 77.6355C47.3041 77.4991 47.606 77.4283 47.9121 77.4287C48.0776 77.4287 48.242 77.4423 48.4211 77.4976C48.5589 77.2083 48.6562 76.9057 48.7104 76.5887C48.7244 76.5062 48.7381 76.41 48.7521 76.327C48.2014 76.313 47.6504 76.0926 47.2921 75.6794Z" fill="#517650"/>
<path d="M70.6383 40.0206C69.7563 38.4917 68.6269 37.087 67.3048 35.9164L75.1696 25.0216L75.4445 24.6357C77.3624 25.9198 79.1439 27.3966 80.7613 29.0432C82.1523 30.4342 83.4195 31.9631 84.5495 33.5885C84.5632 33.6021 84.5772 33.6021 84.5772 33.6158L84.2049 33.7949L70.6519 40.0482C70.6519 40.0346 70.6383 40.0346 70.6383 40.0206ZM87.9235 33.4514C87.6933 33.0798 87.4499 32.7167 87.1937 32.3626C85.9129 30.4478 84.4393 28.658 82.8139 27.0049C81.0783 25.2557 79.1775 23.6719 77.1256 22.3221C76.9605 22.1983 76.795 22.0881 76.6435 21.9639L76.0921 21.6333L75.8312 21.4678C75.4445 21.2337 75.0594 21.0137 74.6735 20.7796L72.9655 23.1345L72.6898 23.52L64.9913 34.2084L63.3386 36.4944L64.4815 37.3351C65.9691 38.4373 67.2081 39.8403 68.1179 41.4529C68.3273 41.8041 68.5157 42.1674 68.6822 42.5409L69.2885 43.863L71.7949 42.7064L85.7751 36.2334L86.092 36.0956L88.7226 34.8829L88.7915 34.8424L87.9235 33.4514Z" fill="#517650"/>
<path d="M64.9909 34.2081C62.9328 32.9447 60.6074 32.1807 58.201 31.9774V19.0023C58.4759 19.016 58.7376 19.0436 58.9997 19.0573C63.897 19.3797 68.6642 20.7713 72.9658 23.1341L72.6902 23.52L64.9909 34.2081ZM76.6428 21.9635L76.0925 21.6329L75.8304 21.4674C75.4449 21.2341 75.059 21.0137 74.6738 20.7793C69.935 18.1074 64.6186 16.5233 59.2061 16.1787C58.8891 16.1514 58.5585 16.1374 58.201 16.1101C57.7601 16.1101 57.2917 16.0965 56.7539 16.0965H55.308V34.7871H56.7539C59.5647 34.7871 62.2365 35.668 64.4812 37.3347L65.6525 38.202L67.3045 35.9161L75.17 25.0212L75.4449 24.6353L77.1253 22.3218L77.1529 22.2805L76.6428 21.9635Z" fill="#517650"/>
<path d="M40.8324 23.5477H40.8188L40.5155 23.1205C44.3586 21.0137 48.518 19.6916 52.9115 19.1955C53.4352 19.1406 53.9719 19.0853 54.5506 19.044C54.785 19.03 55.0467 19.0164 55.308 19.0023V31.9767C52.9016 32.1809 50.5763 32.9452 48.518 34.2084L40.8324 23.5477ZM56.7547 16.0965C56.2449 16.0965 55.7624 16.1105 55.308 16.1241C54.9777 16.1378 54.6608 16.1518 54.3578 16.1654C53.7246 16.2207 53.1459 16.262 52.5809 16.3309C47.7049 16.8812 43.0918 18.3688 38.8351 20.7933C38.6283 20.8898 38.4363 21 38.2432 21.1102L37.6645 21.4541L36.3424 22.2532L36.3701 22.2945L38.0504 24.6221L38.3534 25.0352L46.1908 35.9164L47.8435 38.2023L48.8486 37.4729C48.9039 37.4176 48.9581 37.3764 49.0141 37.3351H49.0278C51.2724 35.6684 53.9442 34.7871 56.7547 34.7871H58.201V16.0965H56.7547Z" fill="#517650"/>
<path d="M42.8574 40.0482L29.3597 33.8089L28.9185 33.6021C31.3699 30.063 34.4966 27.0053 38.0504 24.6221L38.3534 25.0356L46.1908 35.9164C44.8581 37.0991 43.7315 38.4955 42.8574 40.0482ZM48.518 34.2084L40.8324 23.5477H40.8188L40.5162 23.1209L38.8358 20.7933L38.8082 20.752L38.2432 21.1103L37.6645 21.4538C37.228 21.7262 36.7965 22.0065 36.37 22.2945C32.4034 24.9391 28.9461 28.3963 26.2743 32.3766C26.0304 32.7285 25.796 33.0869 25.5714 33.4514L24.7042 34.8284L24.7454 34.8424L27.362 36.0679L27.8032 36.2611L41.6591 42.6787L44.2208 43.8637L44.6756 42.8719L44.8271 42.5409C45.722 40.5443 47.0994 38.795 48.8486 37.4729C48.9039 37.4177 48.9589 37.3764 49.0141 37.3351H49.0278L50.1707 36.4944L48.518 34.2084Z" fill="#517650"/>
<path d="M40.8052 46.6318H23.4237C24.1531 42.8999 25.4752 39.3461 27.3623 36.0676L27.7895 36.2743L41.6595 42.6791C41.2042 43.954 40.917 45.2827 40.8052 46.6318ZM42.8578 40.0478L29.3589 33.8085L28.9189 33.6025L26.2747 32.3759L26.247 32.3622L25.5718 33.451C25.2828 33.9064 25.0073 34.3703 24.7458 34.842C22.4588 38.8636 20.9576 43.2434 20.2971 47.8713L20.049 49.524H43.6285V48.0781C43.6285 46.2735 43.9731 44.5102 44.676 42.8723C44.7172 42.7617 44.7585 42.6515 44.8138 42.5413L45.4194 41.2332L42.8578 40.0478Z" fill="#517650"/>
<path d="M72.6352 46.6318C72.511 45.296 72.2357 43.9739 71.7945 42.7068C71.7809 42.6931 71.7809 42.6931 71.7809 42.6791L85.7611 36.219L86.078 36.0676C86.078 36.0816 86.0917 36.0816 86.0917 36.0952C87.9788 39.3597 89.2872 42.9128 90.0167 46.6318H72.6352ZM93.1433 47.8713C92.4828 43.2571 90.9952 38.8912 88.7222 34.8833C88.4459 34.401 88.1613 33.9235 87.8686 33.451L87.1934 32.3622L84.5492 33.5889L84.1769 33.754L70.6379 40.0206L68.021 41.2332L68.1176 41.4529L68.6129 42.5413C69.412 44.2762 69.8119 46.1493 69.8119 48.0781V49.524H93.3914L93.1433 47.8713Z" fill="#517650"/>
<path d="M62.0574 53.8765L61.9885 53.9454C60.8042 55.0331 59.3436 55.7223 57.7742 55.9284C57.6223 55.9427 57.4845 55.9568 57.3053 55.9704C56.9801 55.9949 56.6537 55.9996 56.3279 55.9844C56.1487 55.9704 55.9556 55.9568 55.7765 55.9284C54.2203 55.7363 52.7877 55.0747 51.6034 54.028L51.4932 53.9318C49.8678 52.4302 48.9456 50.295 48.9456 48.078C48.9456 46.9214 49.1789 45.819 49.6614 44.7722C50.2148 43.5438 51.0728 42.4771 52.1541 41.6732C53.4872 40.6932 55.0997 40.167 56.7543 40.172C58.421 40.172 60.0048 40.6958 61.3545 41.6872C62.4293 42.4856 63.2969 43.5467 63.8472 44.7862C64.3297 45.819 64.5637 46.9214 64.5637 48.078C64.5637 50.2814 63.6552 52.3889 62.0574 53.8765ZM66.4785 43.588C65.72 41.9097 64.5439 40.4539 63.0625 39.3597C61.2307 37.9955 59.041 37.2798 56.7543 37.2798C54.4544 37.2798 52.2779 37.9955 50.4461 39.3597C48.9603 40.4491 47.7834 41.9063 47.0308 43.588C46.3829 44.9926 46.0522 46.5079 46.0522 48.078C46.052 49.5427 46.3484 50.9923 46.9237 52.3393C47.4989 53.6863 48.3411 54.9028 49.3993 55.9155L49.4682 56.0257L49.6474 56.1488C51.2563 57.5982 53.2699 58.5212 55.4182 58.7941C55.6663 58.8213 55.9143 58.849 56.1764 58.8626C56.3691 58.8626 56.5612 58.8766 56.7543 58.8766C57.016 58.8766 57.278 58.8626 57.5261 58.849C57.7325 58.8354 57.9385 58.8077 58.1453 58.7801C60.2941 58.5047 62.2778 57.5818 63.9025 56.1075L63.9722 56.053C65.0665 55.0326 65.9392 53.7981 66.5362 52.4262C67.1331 51.0542 67.4416 49.5742 67.4423 48.078C67.4423 46.5079 67.1261 44.9926 66.4785 43.588Z" fill="#517650"/>
<path d="M63.5977 77.1209C68.4061 78.6432 72.3459 78.9587 76.4972 76.236L66.4228 74.6599L63.5977 77.1209ZM73.6543 78.4884C72.5685 78.8383 71.4388 79.0337 70.2984 79.0689C67.5956 79.1581 64.9334 78.4058 62.6858 77.6576L62.0275 77.4379L66.181 73.8203L78.5214 75.7502L77.7651 76.3137C76.4268 77.3115 75.0649 78.0328 73.6543 78.4884Z" fill="#517650"/>
<path d="M64.5542 62.7408C61.2119 66.3068 60.7644 69.9764 61.297 74.5601L64.2873 72.1886L64.5542 62.7408ZM60.6914 76.0506L60.5989 75.3599C60.1865 72.2749 60.2278 69.9937 60.7346 67.9621C61.332 65.5682 62.6305 63.443 64.7049 61.4648L65.4011 60.8021L65.0687 72.5797L60.6914 76.0506Z" fill="#517650"/>
<path d="M66.0885 61.2831L65.8147 70.9767L69.7492 67.8575L70.0072 58.7539C68.5716 59.4616 67.3269 60.2511 66.3001 61.1047C66.2292 61.1637 66.1587 61.2232 66.0885 61.2831ZM64.9747 72.653L65.3071 60.9127L65.4376 60.7992C65.5533 60.6978 65.6717 60.5972 65.7925 60.4962C67.0092 59.4852 68.5108 58.5634 70.2553 57.7577L70.8347 57.4893L70.5299 68.2489L64.9747 72.653Z" fill="#517650"/>
<path d="M67.8931 73.378L78.1654 74.9858C79.2663 74.0544 80.3087 72.9096 81.2692 71.5794L71.6762 70.0781L67.8931 73.378ZM78.3958 75.8228L66.0919 73.8977L71.4348 69.2389L82.6385 70.9926L82.2857 71.5097C81.1575 73.1642 79.9066 74.5682 78.5682 75.682L78.5568 75.6908C78.5487 75.6982 78.5406 75.7056 78.5325 75.7119L78.3958 75.8228Z" fill="#517650"/>
<path d="M73.1487 68.7962L82.1881 70.2108C82.8747 69.1124 83.5149 67.9061 84.0962 66.6172L76.9351 65.4971L73.1487 68.7962ZM82.578 71.074L71.3467 69.3159L76.6925 64.6571L85.2336 65.9932L85.0302 66.4624C84.3409 68.0554 83.5628 69.5334 82.7173 70.8562L82.578 71.074Z" fill="#517650"/>
<path d="M71.521 58.0684L71.2785 66.6463L75.2127 63.5274L75.4047 56.7352C74.0233 57.12 72.72 57.5675 71.521 58.0684ZM70.4389 68.323L70.7437 57.5384L70.9763 57.4396C72.42 56.82 74.0145 56.2797 75.7151 55.8304L76.2267 55.6947L75.9941 63.9181L70.4389 68.323Z" fill="#517650"/>
<path d="M76.9111 56.3471L76.7427 62.3126L80.6765 59.1925L80.7786 55.6088C79.4788 55.7955 78.1883 56.0418 76.9111 56.3471ZM75.9027 63.9888L76.136 55.722L76.4286 55.6501C77.98 55.267 79.5513 54.9698 81.1354 54.76L81.5965 54.6985L81.4579 59.5847L75.9027 63.9888Z" fill="#517650"/>
<path d="M78.4057 64.2155L84.697 65.1996C85.1808 63.9904 85.604 62.7579 85.9649 61.5065L82.1906 60.9156L78.4057 64.2155ZM85.1931 66.0791L76.6045 64.7352L81.9481 60.0756L86.9685 60.8618L86.8491 61.2901C86.4271 62.8194 85.9136 64.322 85.3114 65.7897L85.1931 66.0791Z" fill="#517650"/>
<path d="M83.6624 59.6334L86.3585 60.055C86.6406 58.9371 86.8753 57.8077 87.0621 56.67L83.6624 59.6334ZM86.9453 60.9484L81.8604 60.153L88.1443 54.6763L88.005 55.7183C87.7927 57.3021 87.4668 58.9452 87.0363 60.6012L86.9453 60.9484Z" fill="#517650"/>
<path d="M82.2769 55.4198L82.2046 57.9814L85.705 55.206C84.6446 55.2163 83.4821 55.2885 82.2769 55.4198ZM81.3658 59.6577L81.5003 54.7121L81.8438 54.6715C83.6484 54.46 85.3752 54.3759 86.8384 54.4275L87.9124 54.4659L81.3658 59.6577Z" fill="#517650"/>
<path d="M73.682 116.697C73.6684 116.669 73.6544 116.656 73.6267 116.628C71.8174 114.117 69.7894 111.771 67.5666 109.618C66.8475 108.912 66.108 108.228 65.3488 107.566C63.8056 106.23 62.1871 104.983 60.5013 103.832C59.6742 103.27 58.8336 102.728 57.9802 102.207C56.0385 101.023 53.9999 99.9625 51.906 99.0263C50.9698 98.6128 50.0336 98.2133 49.0687 97.855C41.3971 94.9351 32.9268 93.6956 24.1937 94.5363C24.0982 94.5499 23.988 94.5499 23.8914 94.5636C23.7245 93.7051 23.5866 92.8413 23.4779 91.9736L23.0231 88.0073L23.4779 87.966C34.0008 86.9196 44.1799 88.586 53.2834 92.3595C54.2463 92.7583 55.1973 93.1854 56.1351 93.6403C58.2333 94.6287 60.2705 95.7419 62.2358 96.9737C63.0964 97.5053 63.9417 98.0611 64.7709 98.6404C67.2668 100.375 69.6286 102.295 71.8362 104.384C74.5125 106.92 76.9514 109.695 79.1222 112.676L79.2461 112.841C77.5224 114.306 75.6587 115.597 73.682 116.697ZM70.5554 118.212H70.5417C68.6819 119.011 66.7406 119.631 64.7156 120.099C64.1876 119.433 63.6364 118.785 63.0629 118.157C62.3331 117.331 61.5613 116.546 60.7759 115.789C59.234 114.311 57.5859 112.948 55.845 111.711C55.0274 111.118 54.1867 110.557 53.3247 110.031C51.3963 108.832 49.358 107.786 47.2512 106.89C46.3281 106.493 45.3906 106.13 44.4408 105.802C38.9607 103.904 33.169 103.067 27.3756 103.337C27.2521 103.337 27.1419 103.351 27.0181 103.351C26.0199 101.471 25.2122 99.4963 24.6072 97.4558C24.7174 97.4422 24.8276 97.4422 24.9378 97.4285C32.8302 96.7393 40.4605 97.855 47.416 100.403C48.3684 100.751 49.31 101.127 50.2393 101.533C52.33 102.447 54.359 103.496 56.3135 104.673C57.1678 105.197 58.0075 105.733 58.8345 106.312C60.5303 107.469 62.1497 108.734 63.6828 110.1C64.4541 110.777 65.2028 111.48 65.9275 112.207C67.7457 114.025 69.4124 115.954 70.9276 118.033C70.9413 118.033 70.9413 118.047 70.9413 118.047C70.817 118.102 70.6796 118.157 70.5554 118.212ZM43.0774 118.116C42.8707 118.019 42.6639 117.923 42.4582 117.826C41.7329 117.496 41.0206 117.138 40.3231 116.752C35.6812 114.191 31.7009 110.582 28.7526 106.216H29.0973C33.8897 106.187 38.6529 106.965 43.1876 108.515C44.1522 108.846 45.0888 109.205 46.011 109.59C48.1158 110.49 50.1467 111.554 52.0851 112.772C52.9535 113.336 53.8071 113.901 54.6331 114.521C56.406 115.829 58.0689 117.28 59.6052 118.86C60.196 119.459 60.7657 120.079 61.3132 120.719C61.1618 120.732 61.0239 120.76 60.8724 120.774C60.2399 120.842 59.6061 120.897 58.9713 120.939C56.8096 121.063 54.688 120.994 52.6089 120.732C51.6038 120.608 50.5976 120.444 49.6201 120.223C47.509 119.774 45.4469 119.118 43.4633 118.267C43.3255 118.226 43.2017 118.171 43.0774 118.116ZM82.7723 112.648C82.3451 112.028 81.9186 111.394 81.4642 110.788C81.4089 110.719 81.354 110.637 81.2987 110.568C79.1088 107.595 76.6565 104.824 73.9713 102.29C73.2412 101.602 72.5114 100.926 71.7536 100.266C70.1984 98.9316 68.5808 97.672 66.9061 96.4913C66.079 95.8997 65.2246 95.3483 64.371 94.7973C62.3873 93.5441 60.3487 92.3871 58.2419 91.3544C57.3057 90.8859 56.3411 90.4587 55.3773 90.0323C45.6803 85.8445 34.7586 83.9445 23.4643 85.0049C23.2026 85.0185 22.9545 85.0461 22.6932 85.0734C22.6796 85.0734 22.6796 85.0734 22.6796 85.0598C21.8801 85.1427 21.0947 85.2529 20.31 85.3631C20.2178 85.3759 20.1295 85.4084 20.0511 85.4583C19.9726 85.5082 19.9058 85.5744 19.8551 85.6525C19.7726 85.7619 19.732 85.9274 19.7449 86.0789L19.8691 87.0988L20.0214 88.3932L20.4618 92.3182C20.6887 94.1742 21.0522 96.0109 21.5495 97.8133C22.1117 99.8161 22.8588 101.762 23.7812 103.627C24.2469 104.582 24.7571 105.515 25.3101 106.422C28.739 112.069 33.7115 116.669 39.5933 119.727C40.5083 120.212 41.4459 120.654 42.4029 121.049C44.5097 121.931 46.7138 122.633 48.9998 123.116C49.9869 123.336 50.9844 123.505 51.9886 123.625C54.0275 123.901 56.1074 123.997 58.2282 123.928C59.2205 123.887 60.2119 123.818 61.203 123.694C61.272 123.694 61.3272 123.68 61.3822 123.68C62.0707 123.597 62.7459 123.487 63.42 123.377C64.4952 123.184 65.5692 122.95 66.602 122.675C68.6676 122.13 70.6818 121.407 72.6216 120.512C73.5433 120.102 74.4442 119.647 75.3211 119.149C77.3012 118.044 79.1773 116.762 80.9264 115.32C81.5133 114.825 82.0875 114.315 82.6484 113.791C82.802 113.646 82.899 113.452 82.9217 113.242C82.9444 113.033 82.8914 112.822 82.7723 112.648Z" fill="#517650"/>
<path d="M147.274 53.2853C149.109 53.2853 150.717 52.2791 151.566 50.7797H142.983C143.832 52.2791 145.439 53.2853 147.274 53.2853ZM147.274 54.6863C146.346 54.6888 145.429 54.4846 144.59 54.0888C143.75 53.6929 143.009 53.1151 142.421 52.3974V75.3923H152.187V52.3384C151.595 53.0721 150.847 53.6639 149.997 54.0702C149.147 54.4765 148.216 54.687 147.274 54.6863Z" fill="#517650"/>
<path d="M155.346 75.3901V43.4214H165.112V75.3901H160.259H155.346Z" fill="#517650"/>
<path d="M196.576 75.5618V60.1346H191.782V51.3746H196.576V43.2069H206.343V51.3746H211.906V60.1346H206.343V75.5618H201.489H196.576Z" fill="#517650"/>
<path d="M230.55 52.6027C229.404 52.6027 228.349 52.9193 227.383 53.5496C226.416 54.1817 225.676 55.1478 225.164 56.4499H235.876C235.403 55.1087 234.702 54.1327 233.775 53.5205C232.848 52.909 231.772 52.6027 230.55 52.6027ZM242.979 73.97C240.257 75.1148 237.554 75.8239 234.87 76.1007C232.187 76.3764 229.652 76.2282 227.265 75.6566C224.877 75.0849 222.756 74.1085 220.902 72.7267C219.046 71.346 217.596 69.5898 216.552 67.459C215.506 65.3283 214.983 62.8628 214.983 60.0605C214.983 57.7326 215.367 55.5919 216.137 53.6388C216.907 51.6857 218.002 49.9689 219.422 48.4894C220.843 47.0095 222.519 45.8655 224.454 45.0564C226.386 44.2481 228.498 43.8431 230.787 43.8431C232.838 43.8431 234.693 44.1789 236.35 44.8493C238.007 45.5205 239.447 46.4574 240.671 47.6608C241.893 48.865 242.881 50.2947 243.63 51.9518C244.38 53.6089 244.852 55.4246 245.051 57.3968C245.248 59.3706 245.129 61.4615 244.695 63.6711H225.164C225.912 65.1709 227.166 66.2364 228.922 66.8671C230.677 67.4988 232.769 67.696 235.196 67.459C237.623 67.2224 240.217 66.5914 242.979 65.5649V69.7671V73.97Z" fill="#517650"/>
<path d="M173.426 53.2853C175.261 53.2853 176.869 52.2791 177.717 50.7797H169.135C169.983 52.2791 171.591 53.2853 173.426 53.2853ZM173.426 54.6863C172.498 54.6888 171.581 54.4846 170.741 54.0888C169.902 53.6929 169.161 53.1151 168.573 52.3974V75.3923H178.338V52.3384C177.747 53.0721 176.999 53.6639 176.149 54.0702C175.299 54.4765 174.368 54.687 173.426 54.6863Z" fill="#517650"/>
<path d="M115.327 75.326V66.563L121.482 59.4045L127.637 52.2459H115.327V43.4214H139.593V52.2459C137.542 54.6325 135.489 57.019 133.437 59.4045L127.283 66.563H139.593V75.326H127.46H115.327Z" fill="#517650"/>
<path d="M264.582 67.5773C266.476 67.5773 267.995 66.8877 269.14 65.5056C270.284 64.1249 270.856 62.3096 270.856 60.0602C270.856 57.8115 270.284 56.0062 269.14 54.645C267.995 53.2831 266.476 52.6027 264.582 52.6027C262.649 52.6027 261.12 53.2739 259.996 54.6152C258.87 55.9568 258.309 57.7724 258.309 60.0602C258.309 62.3491 258.87 64.1739 259.996 65.5351C261.12 66.8966 262.649 67.5773 264.582 67.5773ZM270.619 75.3901V73.6147C269.633 74.4432 268.519 75.0846 267.276 75.5379C266.033 75.9913 264.7 76.2187 263.281 76.2187C261.268 76.2187 259.374 75.8342 257.598 75.0647C255.822 74.2954 254.254 73.1908 252.893 71.75C251.532 70.31 250.466 68.6038 249.696 66.6305C248.927 64.6575 248.542 62.4677 248.542 60.0602C248.542 57.6143 248.927 55.405 249.696 53.4317C250.466 51.4587 251.532 49.7717 252.893 48.3707C254.254 46.9705 255.822 45.8846 257.598 45.1154C259.374 44.3458 261.248 43.9614 263.221 43.9614C264.642 43.9614 265.983 44.1888 267.246 44.6418C268.509 45.0963 269.633 45.7177 270.619 46.5064V44.7896H280.386V75.3901H275.533H270.619Z" fill="#517650"/>
<path d="M116.64 90.0133V88.3851H126.342V90.0133H122.43V100.92H120.545V90.0133H116.64ZM127.173 100.92V91.519H128.942V93.0124H129.04C129.211 92.5064 129.513 92.1086 129.945 91.8189C130.382 91.5251 130.876 91.3782 131.427 91.3782C131.541 91.3782 131.676 91.3823 131.831 91.3904C131.99 91.3986 132.114 91.4088 132.204 91.421V93.1716C132.13 93.1512 132 93.1287 131.812 93.1042C131.625 93.0757 131.437 93.0614 131.249 93.0614C130.817 93.0614 130.431 93.1532 130.092 93.3368C129.758 93.5164 129.492 93.7673 129.297 94.0897C129.101 94.4079 129.003 94.7711 129.003 95.1792V100.92H127.173ZM136.25 101.129C135.654 101.129 135.116 101.018 134.634 100.798C134.153 100.574 133.771 100.249 133.489 99.8248C133.212 99.4004 133.073 98.8802 133.073 98.264C133.073 97.7336 133.175 97.2969 133.379 96.9542C133.583 96.6114 133.859 96.3401 134.206 96.1401C134.552 95.9402 134.94 95.7892 135.369 95.6872C135.797 95.5852 136.234 95.5076 136.678 95.4546C137.241 95.3893 137.698 95.3363 138.049 95.2955C138.4 95.2506 138.655 95.1792 138.814 95.0812C138.974 94.9833 139.053 94.8242 139.053 94.6038V94.561C139.053 94.0264 138.902 93.6123 138.6 93.3185C138.302 93.0247 137.858 92.8778 137.266 92.8778C136.65 92.8778 136.164 93.0145 135.809 93.2879C135.458 93.5572 135.215 93.8571 135.081 94.1876L133.361 93.7959C133.565 93.2246 133.863 92.7635 134.255 92.4126C134.65 92.0576 135.105 91.8005 135.619 91.6414C136.134 91.4782 136.674 91.3965 137.241 91.3965C137.617 91.3965 138.015 91.4414 138.435 91.5312C138.859 91.6169 139.255 91.776 139.622 92.0086C139.994 92.2412 140.298 92.5738 140.534 93.0063C140.771 93.4347 140.889 93.9917 140.889 94.6773V100.92H139.102V99.6351H139.029C138.91 99.8717 138.733 100.104 138.496 100.333C138.26 100.561 137.956 100.751 137.584 100.902C137.213 101.053 136.768 101.129 136.25 101.129ZM136.648 99.6596C137.154 99.6596 137.586 99.5596 137.945 99.3596C138.309 99.1597 138.584 98.8985 138.772 98.5762C138.963 98.2497 139.059 97.9009 139.059 97.5295V96.3176C138.994 96.3829 138.868 96.4441 138.68 96.5012C138.496 96.5543 138.286 96.6012 138.049 96.642C137.813 96.6787 137.582 96.7134 137.358 96.7461C137.133 96.7746 136.946 96.7991 136.795 96.8195C136.44 96.8644 136.115 96.9399 135.821 97.046C135.532 97.1521 135.299 97.3051 135.124 97.505C134.952 97.7009 134.867 97.9621 134.867 98.2885C134.867 98.7414 135.034 99.0842 135.369 99.3168C135.703 99.5453 136.13 99.6596 136.648 99.6596ZM136.623 90.2642L134.732 87.4425H136.66L138.086 90.2642H136.623ZM151.029 101.104C150.27 101.104 149.592 100.91 148.997 100.523C148.405 100.131 147.94 99.5739 147.601 98.8516C147.267 98.1253 147.099 97.2541 147.099 96.2381C147.099 95.222 147.269 94.3529 147.607 93.6306C147.95 92.9084 148.419 92.3555 149.015 91.9719C149.611 91.5883 150.286 91.3965 151.041 91.3965C151.624 91.3965 152.094 91.4945 152.449 91.6903C152.808 91.8821 153.085 92.1065 153.281 92.3636C153.481 92.6207 153.636 92.8472 153.746 93.043H153.857V88.3851H155.687V100.92H153.899V99.4576H153.746C153.636 99.6575 153.477 99.886 153.269 100.143C153.065 100.4 152.783 100.625 152.424 100.816C152.065 101.008 151.6 101.104 151.029 101.104ZM151.433 99.5433C151.959 99.5433 152.404 99.4045 152.767 99.127C153.134 98.8455 153.412 98.4558 153.599 97.958C153.791 97.4602 153.887 96.8807 153.887 96.2197C153.887 95.5668 153.793 94.9955 153.606 94.5059C153.418 94.0162 153.142 93.6347 152.779 93.3613C152.416 93.0879 151.967 92.9512 151.433 92.9512C150.882 92.9512 150.423 93.094 150.056 93.3797C149.688 93.6653 149.411 94.055 149.223 94.5487C149.04 95.0425 148.948 95.5995 148.948 96.2197C148.948 96.8481 149.042 97.4132 149.229 97.9151C149.417 98.417 149.694 98.8149 150.062 99.1087C150.433 99.3984 150.89 99.5433 151.433 99.5433ZM151.316 90.7661V89.4991H156.941V90.7661H151.316ZM160.845 101.129C160.249 101.129 159.711 101.018 159.229 100.798C158.748 100.574 158.366 100.249 158.085 99.8248C157.807 99.4004 157.668 98.8802 157.668 98.264C157.668 97.7336 157.77 97.2969 157.974 96.9542C158.178 96.6114 158.454 96.3401 158.801 96.1401C159.148 95.9402 159.535 95.7892 159.964 95.6872C160.392 95.5852 160.829 95.5076 161.273 95.4546C161.837 95.3893 162.294 95.3363 162.645 95.2955C162.995 95.2506 163.25 95.1792 163.41 95.0812C163.569 94.9833 163.648 94.8242 163.648 94.6038V94.561C163.648 94.0264 163.497 93.6123 163.195 93.3185C162.898 93.0247 162.453 92.8778 161.861 92.8778C161.245 92.8778 160.759 93.0145 160.404 93.2879C160.053 93.5572 159.811 93.8571 159.676 94.1876L157.956 93.7959C158.16 93.2246 158.458 92.7635 158.85 92.4126C159.245 92.0576 159.7 91.8005 160.215 91.6414C160.729 91.4782 161.269 91.3965 161.837 91.3965C162.212 91.3965 162.61 91.4414 163.03 91.5312C163.455 91.6169 163.85 91.776 164.218 92.0086C164.589 92.2412 164.893 92.5738 165.13 93.0063C165.366 93.4347 165.485 93.9917 165.485 94.6773V100.92H163.697V99.6351H163.624C163.506 99.8717 163.328 100.104 163.091 100.333C162.855 100.561 162.551 100.751 162.179 100.902C161.808 101.053 161.363 101.129 160.845 101.129ZM161.243 99.6596C161.749 99.6596 162.181 99.5596 162.54 99.3596C162.904 99.1597 163.179 98.8985 163.367 98.5762C163.559 98.2497 163.654 97.9009 163.654 97.5295V96.3176C163.589 96.3829 163.463 96.4441 163.275 96.5012C163.091 96.5543 162.881 96.6012 162.645 96.642C162.408 96.6787 162.177 96.7134 161.953 96.7461C161.728 96.7746 161.541 96.7991 161.39 96.8195C161.035 96.8644 160.71 96.9399 160.417 97.046C160.127 97.1521 159.894 97.3051 159.719 97.505C159.547 97.7009 159.462 97.9621 159.462 98.2885C159.462 98.7414 159.629 99.0842 159.964 99.3168C160.298 99.5453 160.725 99.6596 161.243 99.6596ZM163.134 88.3362H164.64C164.64 89.0258 164.395 89.5868 163.905 90.0194C163.42 90.4478 162.763 90.662 161.935 90.662C161.11 90.662 160.455 90.4478 159.97 90.0194C159.484 89.5868 159.241 89.0258 159.241 88.3362H160.741C160.741 88.6422 160.831 88.9136 161.01 89.1502C161.19 89.3828 161.498 89.4991 161.935 89.4991C162.363 89.4991 162.669 89.3828 162.853 89.1502C163.04 88.9176 163.134 88.6463 163.134 88.3362ZM161.849 104.164C161.535 104.164 161.263 104.058 161.035 103.846C160.806 103.634 160.692 103.377 160.692 103.075C160.692 102.773 160.806 102.516 161.035 102.304C161.263 102.092 161.535 101.985 161.849 101.985C162.167 101.985 162.438 102.092 162.663 102.304C162.891 102.516 163.006 102.773 163.006 103.075C163.006 103.377 162.891 103.634 162.663 103.846C162.438 104.058 162.167 104.164 161.849 104.164ZM171.693 101.11C170.783 101.11 169.999 100.904 169.342 100.492C168.689 100.076 168.188 99.5025 167.837 98.772C167.486 98.0416 167.31 97.2051 167.31 96.2625C167.31 95.3077 167.49 94.4651 167.849 93.7347C168.208 93.0002 168.714 92.4269 169.367 92.0147C170.02 91.6026 170.789 91.3965 171.674 91.3965C172.388 91.3965 173.025 91.5292 173.584 91.7944C174.143 92.0555 174.594 92.4228 174.937 92.8961C175.284 93.3695 175.49 93.9224 175.555 94.5548H173.774C173.676 94.1142 173.451 93.7347 173.1 93.4164C172.754 93.0981 172.288 92.939 171.705 92.939C171.195 92.939 170.748 93.0736 170.364 93.3429C169.985 93.6082 169.689 93.9877 169.477 94.4814C169.265 94.9711 169.159 95.5505 169.159 96.2197C169.159 96.9052 169.263 97.4969 169.471 97.9947C169.679 98.4925 169.973 98.8781 170.352 99.1515C170.736 99.4249 171.187 99.5616 171.705 99.5616C172.052 99.5616 172.366 99.4984 172.648 99.3719C172.933 99.2413 173.172 99.0556 173.364 98.8149C173.56 98.5741 173.696 98.2844 173.774 97.9457H175.555C175.49 98.5537 175.292 99.0964 174.961 99.5739C174.631 100.051 174.188 100.427 173.633 100.7C173.082 100.973 172.435 101.11 171.693 101.11ZM188.739 93.8142L187.081 94.108C187.011 93.8958 186.901 93.6939 186.75 93.5021C186.603 93.3103 186.403 93.1532 186.15 93.0308C185.897 92.9084 185.581 92.8472 185.201 92.8472C184.683 92.8472 184.251 92.9635 183.904 93.196C183.557 93.4245 183.384 93.7204 183.384 94.0835C183.384 94.3977 183.5 94.6507 183.732 94.8425C183.965 95.0343 184.34 95.1914 184.859 95.3138L186.352 95.6566C187.217 95.8565 187.862 96.1646 188.286 96.5808C188.711 96.997 188.923 97.5377 188.923 98.2028C188.923 98.7659 188.76 99.2678 188.433 99.7085C188.111 100.145 187.66 100.488 187.081 100.737C186.505 100.986 185.838 101.11 185.079 101.11C184.026 101.11 183.167 100.886 182.502 100.437C181.837 99.984 181.429 99.3413 181.278 98.5089L183.047 98.2395C183.157 98.7006 183.384 99.0495 183.726 99.2862C184.069 99.5188 184.516 99.6351 185.067 99.6351C185.667 99.6351 186.146 99.5106 186.505 99.2617C186.864 99.0087 187.044 98.7006 187.044 98.3375C187.044 98.0437 186.934 97.7968 186.713 97.5969C186.497 97.3969 186.164 97.2459 185.716 97.1439L184.124 96.795C183.247 96.5951 182.598 96.2768 182.178 95.8402C181.762 95.4036 181.554 94.8507 181.554 94.1815C181.554 93.6265 181.709 93.141 182.019 92.7247C182.329 92.3085 182.757 91.9841 183.304 91.7515C183.851 91.5149 184.477 91.3965 185.183 91.3965C186.199 91.3965 186.999 91.6169 187.582 92.0576C188.166 92.4942 188.552 93.0797 188.739 93.8142ZM193.481 101.129C192.886 101.129 192.347 101.018 191.866 100.798C191.384 100.574 191.003 100.249 190.721 99.8248C190.444 99.4004 190.305 98.8802 190.305 98.264C190.305 97.7336 190.407 97.2969 190.611 96.9542C190.815 96.6114 191.09 96.3401 191.437 96.1401C191.784 95.9402 192.172 95.7892 192.6 95.6872C193.029 95.5852 193.465 95.5076 193.91 95.4546C194.473 95.3893 194.93 95.3363 195.281 95.2955C195.632 95.2506 195.887 95.1792 196.046 95.0812C196.205 94.9833 196.285 94.8242 196.285 94.6038V94.561C196.285 94.0264 196.134 93.6123 195.832 93.3185C195.534 93.0247 195.089 92.8778 194.498 92.8778C193.881 92.8778 193.396 93.0145 193.041 93.2879C192.69 93.5572 192.447 93.8571 192.312 94.1876L190.592 93.7959C190.796 93.2246 191.094 92.7635 191.486 92.4126C191.882 92.0576 192.337 91.8005 192.851 91.6414C193.365 91.4782 193.906 91.3965 194.473 91.3965C194.848 91.3965 195.246 91.4414 195.667 91.5312C196.091 91.6169 196.487 91.776 196.854 92.0086C197.225 92.2412 197.529 92.5738 197.766 93.0063C198.003 93.4347 198.121 93.9917 198.121 94.6773V100.92H196.334V99.6351H196.26C196.142 99.8717 195.964 100.104 195.728 100.333C195.491 100.561 195.187 100.751 194.816 100.902C194.444 101.053 194 101.129 193.481 101.129ZM193.879 99.6596C194.385 99.6596 194.818 99.5596 195.177 99.3596C195.54 99.1597 195.816 98.8985 196.003 98.5762C196.195 98.2497 196.291 97.9009 196.291 97.5295V96.3176C196.226 96.3829 196.099 96.4441 195.911 96.5012C195.728 96.5543 195.518 96.6012 195.281 96.642C195.044 96.6787 194.814 96.7134 194.589 96.7461C194.365 96.7746 194.177 96.7991 194.026 96.8195C193.671 96.8644 193.347 96.9399 193.053 97.046C192.763 97.1521 192.531 97.3051 192.355 97.505C192.184 97.7009 192.098 97.9621 192.098 98.2885C192.098 98.7414 192.265 99.0842 192.6 99.3168C192.935 99.5453 193.361 99.6596 193.879 99.6596ZM195.318 90.2214H193.873L193.824 88.9727C194.257 88.9523 194.563 88.8952 194.742 88.8013C194.922 88.7034 195.01 88.5626 195.006 88.379C195.01 88.1587 194.885 88.0016 194.632 87.9077C194.383 87.8139 194.079 87.7669 193.72 87.7669L193.775 86.757C194.702 86.757 195.403 86.9039 195.881 87.1977C196.362 87.4915 196.601 87.8873 196.597 88.3851C196.601 88.7891 196.468 89.087 196.199 89.2788C195.934 89.4665 195.64 89.5848 195.318 89.6338V90.2214ZM202.199 95.3383V100.92H200.369V91.519H202.126V93.0491H202.242C202.458 92.5513 202.797 92.1514 203.258 91.8495C203.723 91.5475 204.309 91.3965 205.015 91.3965C205.655 91.3965 206.216 91.5312 206.698 91.8005C207.179 92.0657 207.553 92.4616 207.818 92.9879C208.083 93.5143 208.216 94.1652 208.216 94.9405V100.92H206.386V95.1608C206.386 94.4794 206.208 93.9469 205.853 93.5633C205.498 93.1756 205.011 92.9818 204.39 92.9818C203.966 92.9818 203.588 93.0736 203.258 93.2572C202.932 93.4409 202.672 93.7102 202.481 94.0652C202.293 94.4161 202.199 94.8405 202.199 95.3383ZM219.057 100.92H214.999V88.3851H219.186C220.414 88.3851 221.469 88.6361 222.35 89.138C223.232 89.6358 223.907 90.3519 224.376 91.2864C224.85 92.2167 225.086 93.3327 225.086 94.6344C225.086 95.9402 224.848 97.0623 224.37 98.0008C223.897 98.9393 223.211 99.6616 222.314 100.168C221.416 100.669 220.331 100.92 219.057 100.92ZM216.891 99.2678H218.953C219.908 99.2678 220.702 99.0883 221.334 98.7292C221.967 98.366 222.44 97.8417 222.754 97.1562C223.069 96.4666 223.226 95.626 223.226 94.6344C223.226 93.651 223.069 92.8166 222.754 92.131C222.444 91.4455 221.981 90.9252 221.365 90.5702C220.749 90.2152 219.984 90.0377 219.07 90.0377H216.891V99.2678ZM227.102 100.92V91.519H228.932V100.92H227.102ZM228.026 90.0683C227.708 90.0683 227.434 89.9622 227.206 89.7501C226.981 89.5338 226.869 89.2767 226.869 88.9788C226.869 88.6769 226.981 88.4198 227.206 88.2076C227.434 87.9914 227.708 87.8832 228.026 87.8832C228.344 87.8832 228.616 87.9914 228.84 88.2076C229.069 88.4198 229.183 88.6769 229.183 88.9788C229.183 89.2767 229.069 89.5338 228.84 89.7501C228.616 89.9622 228.344 90.0683 228.026 90.0683ZM235.723 100.92V88.3851H237.614V99.2923H243.295V100.92H235.723ZM245.116 100.92V91.519H246.946V100.92H245.116ZM246.04 90.0683C245.722 90.0683 245.448 89.9622 245.22 89.7501C244.995 89.5338 244.883 89.2767 244.883 88.9788C244.883 88.6769 244.995 88.4198 245.22 88.2076C245.448 87.9914 245.722 87.8832 246.04 87.8832C246.358 87.8832 246.629 87.9914 246.854 88.2076C247.082 88.4198 247.197 88.6769 247.197 88.9788C247.197 89.2767 247.082 89.5338 246.854 89.7501C246.629 89.9622 246.358 90.0683 246.04 90.0683ZM251.048 95.3383V100.92H249.218V91.519H250.975V93.0491H251.091C251.307 92.5513 251.646 92.1514 252.107 91.8495C252.572 91.5475 253.158 91.3965 253.864 91.3965C254.504 91.3965 255.066 91.5312 255.547 91.8005C256.029 92.0657 256.402 92.4616 256.667 92.9879C256.932 93.5143 257.065 94.1652 257.065 94.9405V100.92H255.235V95.1608C255.235 94.4794 255.057 93.9469 254.702 93.5633C254.347 93.1756 253.86 92.9818 253.24 92.9818C252.815 92.9818 252.438 93.0736 252.107 93.2572C251.781 93.4409 251.522 93.7102 251.33 94.0652C251.142 94.4161 251.048 94.8405 251.048 95.3383ZM261.16 95.3383V100.92H259.33V88.3851H261.135V93.0491H261.252C261.472 92.5432 261.809 92.1412 262.262 91.8434C262.715 91.5455 263.306 91.3965 264.037 91.3965C264.681 91.3965 265.244 91.5292 265.726 91.7944C266.212 92.0596 266.587 92.4554 266.852 92.9818C267.122 93.5041 267.256 94.157 267.256 94.9405V100.92H265.426V95.1608C265.426 94.4712 265.249 93.9367 264.894 93.5572C264.539 93.1736 264.045 92.9818 263.412 92.9818C262.98 92.9818 262.592 93.0736 262.249 93.2572C261.911 93.4409 261.643 93.7102 261.448 94.0652C261.256 94.4161 261.16 94.8405 261.16 95.3383Z" fill="#517650"/>
<ellipse cx="4.93232" cy="4.92734" rx="4.93232" ry="4.92734" transform="matrix(1 0 0 -1 142.342 53.0601)" fill="#517650"/>
<ellipse cx="4.93232" cy="4.92734" rx="4.93232" ry="4.92734" transform="matrix(1 0 0 -1 168.494 53.0601)" fill="#517650"/>
</svg>
