<svg width="58" height="75" viewBox="0 0 58 75" fill="none" xmlns="http://www.w3.org/2000/svg">
<g id="logo">
<path id="Vector" d="M57.8388 37.4626C57.8388 40.1775 57.8783 42.8923 57.8309 45.6072C57.7362 51.4169 56.3 56.8624 53.1433 61.7698C48.7793 68.553 42.6396 72.843 34.7322 74.3864C26.4302 76.0011 18.7043 74.4576 11.8149 69.4157C6.2355 65.3316 2.71583 59.7989 0.995461 53.1107C0.332564 50.5383 0.0247908 47.9184 0.0326824 45.259C0.0563573 39.6788 -0.0778004 34.1066 0.0721405 28.5344C0.403589 15.5854 8.60299 4.22723 21.561 0.989963C30.3523 -1.20251 38.6148 0.214286 46.033 5.56487C51.707 9.66488 55.2267 15.2688 56.9234 22.0441C57.5626 24.6006 57.8388 27.1968 57.8546 29.8246C57.8546 32.3732 57.8467 34.914 57.8388 37.4626ZM56.0711 37.4547C56.0711 34.9377 56.079 32.4207 56.0711 29.9037C56.0711 27.086 55.7397 24.3078 54.9663 21.5929C52.9145 14.4456 48.7871 8.87337 42.2766 5.22453C36.5157 1.99518 30.3207 1.12452 23.8575 2.28012C17.0233 3.49904 11.4755 6.91043 7.31665 12.4826C3.56813 17.5008 1.86354 23.2392 1.79251 29.4605C1.73727 34.6686 1.76884 39.8767 1.77673 45.0848C1.78462 47.5306 2.03716 49.9447 2.62903 52.3271C4.28627 59.0312 7.79804 64.5084 13.5037 68.4501C19.667 72.7005 26.517 74.054 33.8562 72.7638C40.2089 71.6478 45.4884 68.5768 49.6158 63.614C53.9562 58.3901 55.9291 52.2717 56.0553 45.5281C56.1106 42.8369 56.0711 40.1458 56.0711 37.4547Z" fill="#346448"/>
<path id="Vector_2" d="M7.23031 33.6948C7.23031 33.212 7.22241 32.7846 7.2382 32.3572C7.2382 32.278 7.30922 32.191 7.37235 32.1356C9.83454 29.9985 12.4467 28.1226 15.5718 27.0699C17.521 26.413 19.5176 26.2388 21.5615 26.3734C26.1386 26.6742 30.5501 27.7902 34.9536 28.9774C35.5455 29.1357 36.1452 29.302 36.7371 29.4682C36.745 29.4682 36.7529 29.4919 36.7608 29.5078C36.745 29.5394 36.7371 29.579 36.7134 29.6027C34.7247 31.906 32.7518 34.2172 30.7474 36.5047C28.5614 39.0058 26.2412 41.3804 23.6449 43.4541C20.7171 45.797 17.4184 47.5225 13.954 48.9076C12.0442 49.6674 10.0634 50.269 8.11417 50.9338C8.00369 50.9734 7.88531 50.9893 7.7038 51.0367C7.56965 50.1503 7.34079 49.2875 7.32501 48.4248C7.27766 45.5516 7.30922 42.6784 7.30922 39.7578C7.38025 39.7499 7.5144 39.734 7.64856 39.734C8.29568 39.734 8.9349 39.734 9.58201 39.734C10.095 39.734 10.2686 39.5599 10.2765 39.0454C10.2844 38.056 10.2765 37.0666 10.2765 36.0773C10.2765 35.5232 10.4185 35.3807 10.9788 35.3807C11.3892 35.3807 11.7917 35.3728 12.202 35.3807C12.6913 35.3887 12.8649 35.5549 12.8649 36.0535C12.8728 37.0429 12.8649 38.0323 12.8649 39.0217C12.8649 39.5836 13.007 39.734 13.5594 39.734C16.2583 39.734 18.9494 39.734 21.6483 39.734C22.177 39.734 22.3507 39.552 22.3507 39.0138C22.3586 37.6286 22.3507 36.2435 22.3507 34.8663C22.3507 34.3676 22.1297 34.0589 21.672 33.869C19.415 32.9429 17.158 32.0089 14.901 31.0749C14.4748 30.9008 14.0645 30.9166 13.6383 31.0908C11.6496 31.9139 9.65303 32.7213 7.65645 33.5365C7.54597 33.584 7.41181 33.6315 7.23031 33.6948ZM15.919 46.1848C16.2978 46.1848 16.5898 45.8999 16.5977 45.512C16.5977 45.14 16.3057 44.8234 15.9348 44.8234C15.5639 44.8155 15.264 45.1242 15.264 45.5041C15.2561 45.892 15.5402 46.1848 15.919 46.1848ZM8.34302 48.2111C8.72182 48.2111 9.00592 47.9182 9.00592 47.5304C9.00592 47.1346 8.73761 46.8576 8.34302 46.8576C7.95633 46.8576 7.68013 47.1346 7.68013 47.5304C7.68013 47.9103 7.97212 48.2111 8.34302 48.2111ZM12.0915 48.0053C12.4782 48.0132 12.7544 47.7441 12.7623 47.3404C12.7702 46.9447 12.5019 46.6518 12.1231 46.6439C11.7443 46.636 11.4602 46.9209 11.4523 47.3087C11.4523 47.7124 11.7127 47.9974 12.0915 48.0053ZM23.1556 41.3487C23.1556 41.412 23.1556 41.4674 23.1635 41.5307C23.3371 41.6495 23.4949 41.8394 23.6843 41.8711C23.9448 41.9107 24.1184 41.7128 24.1184 41.4279C24.1184 41.1271 23.9369 40.9292 23.6607 40.9767C23.4713 41.0084 23.3213 41.2221 23.1556 41.3487ZM21.1117 42.7972C21.1906 42.6784 21.38 42.5122 21.4037 42.3302C21.4352 42.0769 21.2616 41.8869 20.9696 41.8869C20.6855 41.8948 20.5356 42.0611 20.5435 42.3381C20.5356 42.623 20.6934 42.7734 21.1117 42.7972ZM17.3789 42.9871C17.3789 43.0504 17.3789 43.1138 17.3789 43.1771C17.5447 43.2958 17.7025 43.4858 17.884 43.5174C18.1523 43.5649 18.3259 43.3591 18.3338 43.09C18.3417 42.8051 18.1602 42.5834 17.884 42.6309C17.7025 42.6626 17.5447 42.8684 17.3789 42.9871ZM15.0825 43.8973C15.335 43.8657 15.4849 43.6916 15.4692 43.4224C15.4613 43.1533 15.3034 42.9792 15.0114 42.995C14.7195 43.003 14.5853 43.185 14.5932 43.462C14.6011 43.739 14.7668 43.8894 15.0825 43.8973ZM9.76352 44.1111C9.65303 44.0398 9.48731 43.8419 9.3058 43.8182C9.03749 43.7865 8.87176 43.9923 8.87966 44.2694C8.88755 44.5464 9.05327 44.7126 9.33737 44.7047C9.61358 44.7047 9.75563 44.5385 9.76352 44.1111ZM27.0383 37.4228C26.9594 37.5336 26.7621 37.6919 26.7384 37.8819C26.6989 38.1589 26.8883 38.3568 27.1882 38.3489C27.4644 38.341 27.6065 38.1668 27.6065 37.8898C27.5986 37.597 27.4487 37.4545 27.0383 37.4228ZM11.5786 45.1004C11.9732 45.045 12.1389 44.9026 12.131 44.6176C12.1231 44.3406 11.9811 44.1744 11.697 44.1744C11.405 44.1744 11.2314 44.3643 11.2708 44.6255C11.2945 44.8076 11.4918 44.9738 11.5786 45.1004ZM29.3505 34.8109C29.1532 34.6684 29.0349 34.5101 28.9323 34.518C28.8218 34.5259 28.6561 34.6921 28.6561 34.795C28.6561 34.8979 28.8139 35.072 28.9165 35.0879C29.0191 35.0958 29.1453 34.9533 29.3505 34.8109ZM11.0183 41.2062C10.8605 41.412 10.7026 41.5307 10.7026 41.6336C10.7105 41.7445 10.8683 41.8473 10.963 41.9582C11.0656 41.8632 11.2314 41.784 11.255 41.6732C11.2708 41.5624 11.1367 41.4358 11.0183 41.2062ZM13.6935 42.3223C13.4726 42.1877 13.3463 42.0452 13.2437 42.0611C13.1332 42.0769 12.9754 42.251 12.9833 42.346C12.9833 42.441 13.1569 42.5993 13.2674 42.6151C13.37 42.623 13.4805 42.4726 13.6935 42.3223ZM25.1522 36.3464C25.0101 36.5759 24.876 36.7026 24.8918 36.8054C24.9075 36.9163 25.0733 37.0033 25.168 37.0983C25.2627 36.9954 25.4205 36.9004 25.4363 36.7975C25.4521 36.6946 25.3021 36.5759 25.1522 36.3464Z" fill="#346448"/>
<path id="Vector_3" d="M7.2454 29.8245C7.12703 27.0305 7.47426 24.3235 8.35023 21.6799C8.50807 21.1892 8.7606 20.8963 9.23409 20.6905C10.7098 20.0415 12.1698 19.3371 13.6376 18.6722C16.3681 17.4374 19.1539 17.3345 21.9633 18.3318C23.6284 18.9255 25.2699 19.6062 26.9271 20.2394C29.9338 21.3871 33.051 22.1073 36.2156 22.6218C39.0329 23.0809 41.866 23.35 44.7227 23.4371C44.9121 23.445 45.1015 23.4608 45.3146 23.4766C44.3992 23.9436 43.5074 24.3552 42.6551 24.838C40.9348 25.8037 39.388 26.9988 37.9675 28.3602C37.7387 28.5819 37.5729 28.5898 37.2967 28.4631C33.6587 26.793 29.9338 25.3921 26.0117 24.5373C23.6284 24.0228 21.2136 23.7457 18.7672 23.9595C15.4369 24.2523 12.4854 25.495 9.88121 27.5687C8.98945 28.2811 8.14505 29.0568 7.2454 29.8245Z" fill="#346448"/>
<path id="Vector_4" d="M9.81037 56.7518C9.36844 55.7782 8.9344 54.8126 8.47668 53.7995C8.89494 53.6728 9.24217 53.562 9.5894 53.4512C14.8926 51.7494 19.8801 49.4303 24.3389 46.0348C27.6454 43.5099 30.4391 40.4705 33.0354 37.2411C34.8584 34.9774 36.6735 32.6979 38.6069 30.5291C41.1165 27.7114 44.1942 25.6693 47.7849 24.4662C48.5267 24.2208 49.2843 24.015 50.0813 23.7776C50.1208 23.9675 50.1445 24.1021 50.176 24.2604C49.7578 24.4425 49.3632 24.6087 48.9765 24.7907C46.0724 26.1284 43.7128 28.1705 41.7004 30.6083C39.7117 33.0145 37.8335 35.4998 35.9238 37.9693C33.3353 41.3095 30.5417 44.4518 27.2982 47.1666C24.0311 49.8973 20.472 52.1769 16.613 53.9657C14.498 54.9471 12.3041 55.7624 10.1418 56.6568C10.0471 56.6964 9.96031 56.7122 9.81037 56.7518Z" fill="#346448"/>
<path id="Vector_5" d="M22.3981 66.9939C29.6348 58.0261 38.6943 52.2243 50.1135 50.3801C50.1609 50.4118 50.2082 50.4514 50.2556 50.483C50.1135 51.045 49.9873 51.6149 49.8136 52.1689C49.79 52.256 49.5769 52.3035 49.4427 52.3431C44.6841 53.7678 40.178 55.7465 36.0743 58.5801C32.8466 60.8043 30.0609 63.4717 27.9696 66.8276C27.8591 67.0097 27.7171 67.1759 27.654 67.3738C27.4803 67.8724 27.1568 68.007 26.6517 67.9041C25.318 67.6271 23.9765 67.3738 22.6428 67.1047C22.5796 67.0888 22.5165 67.0493 22.3981 66.9939Z" fill="#346448"/>
<path id="Vector_6" d="M27.4632 18.1419C27.0687 17.9757 26.7056 17.8253 26.3505 17.667C24.5749 16.8439 22.7677 16.0999 20.8501 15.6487C18.1353 15.0076 15.5311 15.34 13.0058 16.4798C12.1693 16.8597 11.3485 17.2792 10.5278 17.6829C10.4173 17.7383 10.299 17.7937 10.1096 17.8807C10.1806 17.7304 10.2043 17.6512 10.2437 17.58C13.1873 12.7755 17.3462 9.54618 22.7283 7.89985C22.9887 7.8207 23.1623 7.86027 23.3675 8.0344C25.664 10.0527 27.0766 12.5539 27.4396 15.6012C27.5501 16.4165 27.4632 17.2475 27.4632 18.1419Z" fill="#346448"/>
<path id="Vector_7" d="M29.3195 67.9909C29.6273 67.4685 29.8956 67.0015 30.1797 66.5504C32.0263 63.6772 34.4254 61.3343 37.148 59.316C40.8729 56.5536 44.9844 54.5274 49.3406 52.9839C49.4116 52.9602 49.4905 52.9444 49.6168 52.9048C49.5458 53.1502 49.4905 53.3639 49.4116 53.5617C49.1038 54.3137 48.7803 55.0656 48.4725 55.8175C48.3462 56.1262 48.1332 56.3083 47.8175 56.4349C44.7476 57.7013 41.9303 59.3951 39.4366 61.5955C37.6846 63.1469 36.1616 64.8961 34.9384 66.9065C34.8358 67.0728 34.6306 67.2311 34.4412 67.2865C32.9181 67.706 31.3634 67.9355 29.7772 67.983C29.651 67.9988 29.5247 67.9909 29.3195 67.9909Z" fill="#346448"/>
<path id="Vector_8" d="M11.4214 59.2527C13.1971 58.4533 14.8938 57.7014 16.5905 56.9257C17.1981 56.6487 17.8137 56.3637 18.374 56.0075C19.755 55.1369 21.2939 54.7174 22.8643 54.4087C26.676 53.6647 30.5192 53.4668 34.394 53.7043C34.4176 53.7043 34.4413 53.7201 34.5202 53.7359C34.4334 53.7992 34.3782 53.8546 34.3072 53.8942C32.5552 54.9786 30.8033 56.0629 29.0434 57.1394C28.854 57.2581 28.6173 57.3452 28.3963 57.361C24.3558 57.5351 20.4179 58.2396 16.6457 59.7514C15.6277 60.163 14.6412 60.6774 13.6706 61.184C13.347 61.3502 13.1734 61.3265 12.9524 61.0494C12.4631 60.4479 11.9423 59.8622 11.4214 59.2527Z" fill="#346448"/>
<path id="Vector_9" d="M50.5233 47.9975C47.6586 46.5807 44.6756 45.7575 41.5663 45.4013C38.4728 45.0451 35.3872 45.1322 32.2384 45.52C32.8145 44.8631 33.4064 44.3011 33.8641 43.6363C34.3218 42.9635 34.961 42.8368 35.6713 42.7181C39.0252 42.1799 42.4028 41.9108 45.7962 42.0928C47.3035 42.172 48.795 42.4332 50.2944 42.6073C50.476 42.631 50.618 42.6548 50.618 42.9002C50.6022 44.4832 50.5943 46.0583 50.5864 47.6413C50.5864 47.7442 50.5549 47.8471 50.5233 47.9975Z" fill="#346448"/>
<path id="Vector_10" d="M29.2712 17.1763C30.9521 17.0655 32.6015 16.9546 34.2508 16.8517C36.5078 16.7014 38.7569 16.551 41.014 16.4006C42.7422 16.2898 44.4784 16.179 46.2066 16.0602C46.4671 16.0444 46.6565 16.0919 46.7906 16.3373C47.4772 17.5799 48.1717 18.8147 48.8582 20.0574C48.9214 20.1682 48.945 20.2948 49.0003 20.4531C42.3476 19.6379 35.7345 18.8305 29.0976 18.0153C29.1607 17.7224 29.2081 17.4691 29.2712 17.1763Z" fill="#346448"/>
<path id="Vector_11" d="M40.4293 51.156C38.8983 51.8129 37.3753 52.4778 35.8364 53.1269C35.7338 53.1664 35.6075 53.1664 35.4971 53.1506C32.4509 52.7707 29.3889 52.6994 26.327 52.9052C25.2695 52.9765 24.2199 53.1268 23.123 53.2377C23.5334 52.9527 23.9279 52.6915 24.2988 52.4066C25.6088 51.3934 26.911 50.3724 28.2289 49.3593C28.3788 49.2485 28.5682 49.1297 28.7418 49.1218C32.6955 48.9556 36.5151 49.5651 40.1926 51.0373C40.2794 51.0768 40.3583 51.1243 40.4293 51.156Z" fill="#346448"/>
<path id="Vector_12" d="M14.1907 62.2844C17.1421 60.2186 24.4103 57.9469 27.8195 58.1369C27.7327 58.1844 27.6301 58.216 27.5591 58.2794C24.726 60.4877 22.1612 62.973 19.8569 65.7195C19.7464 65.8541 19.6675 65.9807 19.4465 65.8699C17.5288 64.928 15.7848 63.7487 14.1907 62.2844Z" fill="#346448"/>
<path id="Vector_13" d="M30.2501 47.5701C30.6368 47.1744 30.9762 46.8103 31.3313 46.462C31.4102 46.3829 31.568 46.3591 31.6864 46.3433C34.2985 46.0109 36.9264 45.9159 39.5544 46.1059C43.1214 46.367 46.5463 47.1902 49.7582 48.8207C49.8845 48.884 50.0029 48.9632 50.1607 49.0582C49.1506 49.2006 48.1878 49.2956 47.2408 49.4777C45.9387 49.723 44.6523 50.0476 43.3581 50.3167C43.1687 50.3562 42.932 50.3721 42.7662 50.2929C38.8757 48.4645 34.7799 47.586 30.4869 47.5781C30.4158 47.5781 30.3527 47.5701 30.2501 47.5701Z" fill="#346448"/>
<path id="Vector_14" d="M46.2706 15.6169C40.5729 15.6961 34.9698 15.7752 29.3431 15.8544C29.3115 15.5536 29.28 15.2766 29.2484 14.96C29.9902 14.8017 30.7084 14.6355 31.4423 14.4851C35.1435 13.7094 38.8367 12.9337 42.5379 12.1501C42.7983 12.0947 42.9798 12.1185 43.1771 12.3005C44.2898 13.282 45.3158 14.3505 46.2706 15.6169Z" fill="#346448"/>
<path id="Vector_15" d="M50.5864 37.5975C50.5864 38.9589 50.5864 40.2491 50.5864 41.5946C45.4647 40.819 40.4141 41.2385 35.3792 42.1724C40.0037 39.1885 45.1017 37.8112 50.5864 37.5975Z" fill="#346448"/>
<path id="Vector_16" d="M37.3762 39.2118C38.2285 38.0245 38.9861 36.9006 39.8305 35.8479C40.1382 35.4679 40.6433 35.2384 41.0852 34.9693C43.6105 33.4575 46.341 32.4602 49.2057 31.8349C49.6003 31.7479 50.0975 32.0407 50.5315 32.2069C50.7209 32.2782 50.642 32.856 50.4447 32.943C48.2114 33.8849 46.3174 35.3413 44.4944 36.9085C44.2971 37.0747 44.0288 37.2093 43.7763 37.2647C41.614 37.6842 39.5227 38.3174 37.3762 39.2118Z" fill="#346448"/>
<path id="Vector_17" d="M42.37 11.6755C37.8876 12.3641 33.4919 13.0369 29.0568 13.7176C28.9858 13.4168 28.9148 13.1477 28.8359 12.839C29.7197 12.4511 30.5799 12.0712 31.4401 11.6834C33.4288 10.7969 35.4254 9.91832 37.4141 9.02392C37.6666 8.91311 37.856 8.91311 38.1006 9.06349C39.4107 9.87083 40.7286 10.6623 42.0465 11.4538C42.1254 11.5092 42.2043 11.5726 42.37 11.6755Z" fill="#346448"/>
<path id="Vector_18" d="M47.6818 57.2108C45.2591 61.39 41.8184 64.4056 37.3675 66.2815C39.9086 62.2448 43.4835 59.3716 47.6818 57.2108Z" fill="#346448"/>
<path id="Vector_19" d="M49.5922 22.0203C43.6025 21.862 37.7232 21.2367 31.9702 19.5983C32.933 19.6695 33.8879 19.7328 34.8507 19.8041C36.792 19.9544 38.7254 20.1048 40.6668 20.2552C42.9238 20.4293 45.1729 20.6035 47.4299 20.7776C47.9034 20.8172 48.3769 20.8726 48.8425 20.8726C49.1108 20.8726 49.2529 20.9676 49.316 21.2209C49.3949 21.4662 49.4896 21.7116 49.5922 22.0203Z" fill="#346448"/>
<path id="Vector_20" d="M37.1148 8.62773C34.1633 9.68835 31.3302 10.7094 28.4498 11.7463C28.2683 11.4138 28.0868 11.1052 27.9053 10.7648C28.1183 10.6223 28.3077 10.4878 28.505 10.3532C29.9097 9.41133 31.3223 8.46943 32.7271 7.51962C32.9322 7.37715 33.1137 7.36132 33.3426 7.43256C34.4711 7.78874 35.5996 8.12908 36.7281 8.47735C36.8228 8.50901 36.9175 8.54858 37.1148 8.62773Z" fill="#346448"/>
<path id="Vector_21" d="M50.5864 30.6082C48.7476 30.1966 46.8931 29.7771 45.0149 29.3576C45.4174 29.0014 45.8514 28.574 46.3249 28.2178C46.4827 28.0991 46.751 28.1228 46.972 28.107C48.1873 28.0199 49.3869 28.0991 50.5864 28.4236C50.5864 29.1755 50.5864 29.9354 50.5864 30.6082Z" fill="#346448"/>
<path id="Vector_22" d="M41.1169 33.9483C41.9771 32.8877 42.8373 31.8271 43.7053 30.7823C43.7921 30.6794 43.9737 30.6082 44.1078 30.6161C45.6072 30.719 47.0672 30.996 48.5034 31.4472C48.5271 31.4551 48.535 31.4867 48.5666 31.5263C46.0018 32.0725 43.5238 32.856 41.1879 34.0433C41.1642 34.0116 41.1406 33.98 41.1169 33.9483Z" fill="#346448"/>
<path id="Vector_23" d="M50.6028 33.3783C50.6028 34.5102 50.6028 35.5629 50.6028 36.6156C49.0166 36.7026 47.4541 36.7897 45.7968 36.8768C47.2725 35.4995 48.7956 34.3044 50.6028 33.3783Z" fill="#346448"/>
<path id="Vector_24" d="M26.77 9.08693C27.354 8.43789 27.9143 7.80469 28.4825 7.18731C28.5535 7.10816 28.6798 7.02901 28.7745 7.03693C29.8162 7.08442 30.8579 7.15565 32.018 7.22689C31.8049 7.35353 31.7023 7.42476 31.5918 7.48017C30.3291 8.15295 29.0586 8.80199 27.8117 9.50643C27.4171 9.72805 27.1804 9.69639 26.9515 9.3323C26.92 9.25314 26.8489 9.18982 26.77 9.08693Z" fill="#346448"/>
<path id="Vector_25" d="M50.4357 25.6614C50.4989 26.4371 50.562 27.1494 50.6172 27.838C49.4177 27.751 48.2734 27.6639 47.1055 27.5768C48.1077 26.817 49.1967 26.1838 50.4357 25.6614Z" fill="#346448"/>
<path id="Vector_26" d="M15.7923 36.0537C15.9186 35.8162 16.0054 35.4126 16.1711 35.3809C16.5736 35.2938 17.0076 35.3651 17.4338 35.4126C17.5048 35.4205 17.5679 35.6184 17.6232 35.7292C17.6468 35.7846 17.631 35.8558 17.631 35.927C17.6626 37.0035 17.6074 37.0747 16.4789 37.0431C16.0448 37.0272 15.9107 36.8689 15.8949 36.4257C15.8949 36.3228 15.8949 36.212 15.8949 36.1091C15.8554 36.0854 15.8239 36.0695 15.7923 36.0537Z" fill="#346448"/>
<path id="Vector_27" d="M26.9506 7.1952C26.5639 7.48014 26.1772 7.76509 25.7827 8.06586C25.5143 7.84424 25.2697 7.63844 24.954 7.36933C25.6722 7.27435 26.3035 7.18729 26.9348 7.10022C26.9348 7.1398 26.9427 7.17146 26.9506 7.1952Z" fill="#346448"/>
</g>
</svg>
